<?xml version="1.0" encoding="UTF-8"?>
<!-- Created with Inkscape (http://www.inkscape.org/) -->
<svg width="235.43mm" height="139.8mm" version="1.1" viewBox="0 0 235.43 139.8" xmlns="http://www.w3.org/2000/svg">
 <g transform="translate(32.859 -42.534)">
  <g transform="rotate(42.877 99.113 45.305)" stroke-width=".26458">
   <path d="m94.368 50.301c-0.67185 0.8845-1.0759 1.5519-0.91746 1.4891 0.02926-0.0116-0.15096 0.25794-0.5066 0.76736l-1e-6 1e-6c-0.37032 0.52938-7.8118 10.785-12.402 17.812-1.4395 2.2039-2.7384 4.2755-3.9263 6.2466-2.0807 3.4745-3.8375 6.8947-5.0959 9.4035-2.3457 4.6665-3.191 6.2739-4.7627 9.5618-0.57767 1.2222-0.87949 1.9744-1.0982 2.422-0.54129 1.1423-1.2842 2.4627-1.8461 3.5979-0.82505 1.6927-0.96638 2.0352-1.381 2.8274-0.31516 0.60208-0.61926 1.2001-0.91394 1.7925 2.4889 0.95678 4.978 1.9133 7.4671 2.8696 2.8316 0.78859 5.654 1.6029 8.4647 2.4489 0.36687-0.14924 0.6066-0.27663 0.78725-0.44737 0.27752-0.68425 0.56129-1.3437 0.8567-1.9758 0.03498-0.0869 0.07252-0.17845 0.1125-0.2741 0.24949-0.63463 0.77884-1.6526 1.6757-3.6459 0.45118-1.0149 0.77829-1.8825 1.0077-2.4074 1.2684-2.8587 2.4408-5.2341 4.3965-9.2852 1.279-2.648 2.7531-5.6179 4.3627-8.3694 0.82437-1.4175 1.6963-2.8608 2.6209-4.3397 4.3849-7.0135 9.4401-14.079 12.622-18.611 1e-3 -0.0016 0.0789-0.11215 0.08-0.11379 1.3326-1.8941 3.4622-4.8072 5.8632-7.6567 2.3594-2.8157 4.2353-4.6745 7.6649-8.436v-1e-6c1.4343-1.5714 3.0685-3.3999 4.5027-4.9713 0.96586-1.0593 1.8994-2.0709 2.8284-3.047 5.9637-6.28 11.928-11.815 17.292-16.5 1.0149-0.90559 2.4835-1.92 4.0143-3.0522 1.5131-1.1042 3.1477-2.2707 4.6193-3.3267 1.6993-1.2144 3.0226-2.2517 4.149-2.9777v-1e-6c3.2031-2.1505 7.5983-4.0442 10.933-5.5547 1.0428-0.45945 1.7781-0.82784 2.2954-1.0421 1.3984-0.58348 2.7249-1.0374 3.9573-1.3912 0.87245-0.24872 1.8723-0.50385 2.7628-0.73474 0.71765-0.18607 1.2772-0.33141 1.8807-0.4942 1.1335-0.29764 1.5995-0.46357 1.8702-0.54312v-1e-7c0.21327-0.089708 0.55272-0.16158 0.54038-0.18192-8e-3 -0.013889-0.32385 0.0031-0.56815 0.046816-0.0613 0.00932-0.13225 0.02187-0.21693 0.038625-0.53749 0.10635-1.2222 0.27013-1.6892 0.36009v1e-7c-0.66898 0.12444-0.652 0.08536-0.0245-0.1074 0.5082-0.14953 1.3071-0.40978 1.8732-0.57065 0.18883-0.072674 0.50923-0.13395 1.2093-0.28734 0.17737-0.038863 0.37165-0.082313 0.58243-0.13154 1.7466-0.34153 2.6186-0.70067 2.7293-0.76384v-2e-8c0.0695-0.017338 0.14099-0.034745 0.21456-0.052301-0.0756 0.007289-0.14921 0.014454-0.22089 0.02158-0.11477-0.026318-0.81237 0.17011-2.0959 0.37653-0.1725 0.027745-0.41005 0.065965-0.67966 0.10622-0.66939 0.11091-1.4722 0.20127-1.8327 0.2753l-1e-5 1e-7c-0.38608 0.067424-0.98822 0.22948-1.9136 0.43892-1.5034 0.34007-3.3045 0.71771-4.6967 1.0833-0.23027 0.060489-0.45923 0.12375-0.68672 0.18965-1.3139 0.38047-2.4712 0.79743-3.4401 1.1808-0.80526 0.31304-1.7736 0.76899-2.3531 1.0013-0.30468 0.12305-0.45875 0.17699-0.43151 0.14876 0.0208-0.021535 0.15971-0.097721 0.40081-0.22089 0.11235-0.055202 1.9525-0.9723 2.3056-1.1296 1.1229-0.49677 2.5206-1.036 4.1257-1.4922 0.23471-0.066391 0.47549-0.13217 0.72329-0.19803 1.3219-0.3513 2.6278-0.66313 3.9497-1.0144v-1e-7c0.94332-0.24626 1.5164-0.43701 1.9022-0.54382 0.39677-0.13561 1.1564-0.27832 1.8226-0.45652 1.2112-0.26261 1.6635-0.49472 1.759-0.57325 0.175-0.14388 0.67028-0.39989 0.86421-0.51629v-3e-8c0.37886-0.12966 0.84834-0.25132 1.3924-0.36878 1.3301-0.28703 2.6614-0.67186 2.9175-0.82945 0.0435-0.026801-1.8426 0.19317-4.4295 0.61734-0.32139 0.046395-1.1322 0.33978-2.6868 0.58504-0.82801 0.1556-1.4798 0.22793-1.8917 0.31489-0.49768 0.095321-1.1436 0.27179-1.9497 0.45679-1.2246 0.28141-2.3984 0.53585-3.462 0.7941-0.43711 0.10613-0.85433 0.20979-1.2598 0.31513-1.6331 0.42422-3.0996 0.91793-4.3673 1.3967-0.75875 0.28145-1.5993 0.66205-2.4204 0.9854v3e-7c-1.8742 0.74024-2.9152 1.0824-2.7766 0.87186 0.0998-0.15167 0.51018-0.3623 0.9142-0.46849 0.40334-0.106 0.84299-0.35394 0.97707-0.55082 0.0541-0.079622 0.28839-0.2325 0.64125-0.42613 0.53121-0.2827 1.4225-0.73554 2.084-1.0062 0.10504-0.042988 0.20432-0.083322 0.30101-0.1221v-1e-7c1.133-0.45739 1.9925-0.82459 1.9567-0.93513-0.0383-0.11843 0.42774-0.35831 1.0433-0.51202 0.43898-0.10961 0.88727-0.2204 1.3757-0.3353 1.6734-0.39498 3.2994-0.75199 4.7316-1.1525v-1.2e-7c1.1428-0.31439 1.6646-0.52599 1.6473-0.60277-0.0246-0.10935-0.50821-0.017115-1.7286 0.24638-0.61576 0.13238-1.6238 0.35722-2.565 0.58297-0.83544 0.2004-1.4372 0.34126-2.1837 0.52576v1e-7c-1.3266 0.32733-2.4023 0.64987-2.7509 0.71072-0.31333 0.054757 0.23716-0.29993 2.1902-0.835 0.16821-0.046082 0.33257-0.09083 0.49683-0.13528v-7e-8c1.5967-0.43167 2.9797-0.81934 3.1566-0.99358 0.23728-0.23381 0.44094-0.27871 0.75432-0.16767 0.14575 0.051592 0.46476 0.055416 0.83403 0.015942 0.24686-0.028386 0.50111-0.073554 0.73362-0.13061 0.7213-0.17702 0.88698-0.30925 0.59801-0.41804-0.14236-0.05366 0.0955-0.12386 0.61486-0.12099 0.24175 0.00384 0.49929 0.024051 0.89473 0.055128 0.43691 0.034353 0.80388 0.044144 1.1389 0.032317 1.0196-0.028831 1.1881-0.13072 0.9509-0.24891-0.16402-0.081727-0.11846-0.16677 0.17807-0.30267 0.17736-0.081278 0.94346-0.38112 1.4018-0.50084 0.19739-0.047685 0.41395-0.095964 0.66407-0.14848 0.90411-0.18979 1.8895-0.37316 2.9238-0.63853-1.2416 0.27213-2.4068 0.42603-3.4589 0.616-0.0535 0.00966-0.1062 0.019232-0.15826 0.028765-0.73782 0.13521-1.7558 0.42597-2.6184 0.50199-0.72442 0.086129-1.135 0.055055-1.2118 2.602e-4 -0.0926-0.066036 0.12942-0.17092 0.78396-0.35471 0.60376-0.16958 0.11904-0.1287-0.79732 0.00622-0.28672 0.042216-0.58413 0.081547-0.86161 0.12614-0.65377 0.10329-1.3662 0.24335-1.7692 0.28938-0.0985 0.01126-0.17709 0.020128-0.27558 0.031388-0.55975 0.061623-0.59187 0.087064 0.0324 0.14194 0.10439 0.00789 0.21973 0.01561 0.35523 0.024183 0.97033 0.061403 1.0049 0.11169 0.2552 0.29362-0.16559 0.040182-0.34282 0.072098-0.51652 0.093778-0.33437 0.039865-0.63437 0.038536-0.76801-0.00898-0.19816-0.070472-0.79316-0.0444-1.3114 0.056674-1.0519 0.20506-1.8854 0.36253-2.8102 0.55487v2e-7c-2.0672 0.42854-3.7501 0.92486-4.8515 1.2372-0.77247 0.21601-1.2398 0.35753-1.3403 0.30756-0.13582-0.067647 0.1565-0.32706 1.1613-0.76626v-1e-7c0.48438-0.21165 1.1629-0.48015 2.0088-0.76453 2.1196-0.71263 4.5929-1.2836 1.4315-0.65052-0.629 0.12598-1.9513 0.48739-3.5606 1.1067-0.85055 0.32702-1.5637 0.66913-2.5154 1.0827v2.3e-7c-0.77405 0.33671-1.558 0.68357-2.3287 1.0362-4.5229 2.0692-6.1232 2.9603-6.2089 2.7983-0.0782-0.14771 1.2268-0.98208 4.0034-2.2685 1.8641-0.86359 3.6225-1.629 4.3646-1.9647v-6e-8c0.17027-0.077062 0.29197-0.13479 0.34141-0.1601 0.17965-0.091975 1.0047-0.53252 2.1447-1.0338v-1e-7c0.59663-0.26239 1.2483-0.53121 1.9493-0.79542 1.0996-0.41443 2.0956-0.736 2.9521-0.98716v-2e-7c2.7493-0.80659 4.1702-1.1602 4.7434-1.3858v-1e-7c0.30583-0.12157 0.3677-0.19081 0.27124-0.22493-0.0273-0.00965-0.13634 0.00168-0.31626 0.027599-0.3952 0.057872-2.863 0.48875-4.8546 0.94812-1.6242 0.37508-3.3321 0.88928-5.0776 1.5655v4e-7c-0.89461 0.34754-1.7839 0.76281-2.5577 1.0963-0.66999 0.2877-1.3058 0.56443-1.9192 0.83791-3.3575 1.497-0.69797 0.56306 1.1368-0.1937 0.2999-0.12369 0.59968-0.24683 0.89921-0.36965 0.61756-0.25362 1.2435-0.53108 1.8916-0.79524-0.63346 0.29886-1.2426 0.61014-1.8474 0.89921-0.47443 0.22584-0.94939 0.45249-1.4242 0.68084-1.023 0.49203-5.4537 2.1158-10.76 5.5493-1.5834 1.0271-2.818 1.995-4.4772 3.1796-1.4888 1.0626-3.1224 2.2237-4.6956 3.3686-1.5165 1.1024-3.1202 2.2264-4.5979 3.5147-7.7584 6.7719-13.514 12.502-17.884 17.076-1.1289 1.1817-2.0062 2.1277-2.5891 2.7452-1.9332 2.0482-3.7245 3.9397-4.636 4.8273-0.10158 0.09891-0.23079 0.22923-0.3843 0.38692-0.75749 0.77786-3.3129 3.4701-4.9558 5.2983-1.3808 1.5364-2.3724 2.6637-2.9469 3.2869-0.46256 0.50212-0.66224 0.67749-0.5621 0.46658 0.18937-0.39856 0.17455-0.66968-0.039-0.60055-0.12863 0.04163-0.10835-0.08011 0.0428-0.33909 0.66513-1.1365 2.8172-3.5696 6.0121-6.8132 0.17303-0.17586 0.28319-0.14049 0.24367 0.07957-0.0429 0.23866 0.48783-0.21524 1.3394-1.1708 0.19052-0.21377 0.35206-0.39669 0.48596-0.55037 0.75549-0.86708 0.63214-0.7873-0.13774-0.1243-2e-5 2.1e-5 -8e-3 0.0067-8e-3 0.0067-0.73391 0.63144-0.7853 0.62822-0.12938-0.13056 0.16883-0.19532 0.3859-0.44271 0.65237-0.74553 0.96569-1.0974 1.5532-1.6488 1.5126-1.3996-0.0362 0.22116 0.19359 0.11056 0.51097-0.24648 0.31741-0.35708 0.50399-0.71472 0.41435-0.79441-0.0897-0.07971 0.42993-0.81396 1.161-1.6313 0.73163-0.81791 1.3056-1.3146 1.2694-1.1081-0.0365 0.20706 0.17688 0.20939 0.47233 8e-3 0.29535-0.20131 0.58171-0.61061 0.63658-0.91008 0.0366-0.19981 0.37153-0.68926 0.8462-1.2774v-1e-6c1.1037-1.3679 2.9212-3.2203 3.3944-3.3556 0.29764-0.08506 0.40235-0.18714 0.30064-0.29377-0.10173-0.10638 4.1731-4.9082 14.147-13.637 0.40511-0.35325 0.82115-0.69718 1.2498-1.0372 1.1512-0.91336 2.3298-1.7508 3.4321-2.5533 1.5705-1.1474 3.19-2.3052 4.6973-3.3889 1.5392-1.1079 2.8879-2.1646 4.5141-3.2321 4.2714-2.7825 9.2052-4.9215 12.383-6.3308 0.84393-0.37732 1.6968-0.79328 2.5644-1.1531 2.1327-0.8832 3.94-1.442 5.1468-1.7963 1.0182-0.29955 1.5949-0.46977 1.7376-0.55935 0.0843-0.05293-0.5833 0.0522-1.7964 0.32032v1e-7c-1.3178 0.29233-3.1443 0.78496-5.2594 1.5958v2e-7c-0.58516 0.22575-1.1283 0.45954-1.6746 0.69788-0.33595 0.14658-0.63141 0.27646-0.92801 0.40222v3e-7c-4.0248 1.6948-7.0295 3.1788-6.0687 2.8541 1.2576-0.42495 0.29889 0.01343-1.8453 1.1362-1.7563 0.91969-3.1972 1.7158-3.2445 1.6394-0.0132-0.021424-0.49018 0.22637-1.3163 0.72794-1.5984 0.98121-2.2674 1.5243-4.6007 3.1551-1.3537 0.94554-3.074 2.1502-4.7343 3.35-0.47304 0.34009-0.99279 0.71108-1.4986 1.0791-1.1104 0.80785-2.1896 1.6233-3.2465 2.5371l-1e-5 1e-6c-4.7936 4.1618-8.527 7.684-9.0245 8.0993-0.70824 0.59107-0.92892 0.87598-0.64787 0.81616 0.28854-0.06134 0.0438 0.23111-0.69849 0.85644-0.75625 0.63706-0.9806 0.92547-0.69321 0.86606 0.24051-0.04974 0.0198 0.12179-0.48346 0.38146-0.62851 0.32425-1.8638 1.4143-4.025 3.701-1.043 1.1035-1.8752 1.9678-2.4358 2.5105-0.45887 0.44486-0.73075 0.67021-0.77616 0.62832-0.0904-0.08338-0.42367 0.12995-0.739 0.47509-0.31529 0.3451-0.49895 0.69416-0.41009 0.7747 0.0889 0.08055-0.019 0.34556-0.23853 0.58897-0.2192 0.243-0.36695 0.26102-0.32805 0.03826 0.0389-0.22231-0.0983-0.21689-0.30576 0.01381-0.20737 0.23063-0.40715 0.60049-0.44487 0.8228-0.0378 0.22208-0.27028 0.62743-0.51534 0.89952-0.27658 0.30748-0.29909 0.21822-0.056-0.24166 0.25749-0.4871-1.352 1.2837-3.8107 3.9916-1.5383 1.6936-5.3385 5.7496-7.8185 8.7368-2.2043 2.6606-4.2829 5.4349-6.3356 8.3057-2.4517 3.426-4.6428 6.5533-6.6368 9.5407-0.94355 1.4136-3.2762 4.8171-5.1232 7.6118-2.1567 3.2612-3.1557 5.0709-2.9184 4.9548 0.20371-0.09965 0.23412 0.03609 0.07079 0.29892-0.16331 0.26279-0.47249 0.56553-0.68677 0.67219-0.13364 0.06648-0.35746 0.30972-0.58661 0.62553-0.14074 0.1948-0.28237 0.41574-0.40694 0.64021-0.24605 0.44401-1.0105 1.7795-1.3194 2.3069-0.56396 0.96232-0.67414 1.0802-0.4857 0.38134 0.19177-0.71086 0.16586-0.74061-0.25741 0.02131-0.26772 0.48045-0.35253 0.94414-0.19436 1.0299 0.20644 0.1119-0.18697 0.89939-2.1093 4.6833 0 1e-6 -1e-6 1e-6 -1e-6 1e-6 -0.35168 0.69178-0.72338 1.4143-1.1866 2.3122-2.5991 5.0381-3.5526 6.975-1.8674 3.2885 0.54536-1.193 1.0962-2.3784 1.645-3.559-0.60424 1.1523-1.2105 2.3095-1.8118 3.4753-1.2876 2.4969-1.7317 3.3029-1.5648 2.5916 0.12213-0.52079 0.47966-1.4672 0.80468-2.1245 0.22345-0.45346 1.5013-3.0547 3.1414-6.4097l1e-6 -1e-6c0.73021-1.4943 1.5588-3.1589 2.4508-4.8541 0.82434-1.5667 1.6112-2.9719 2.3782-4.259 2.1369-3.5766 3.7099-5.8574 3.9543-6.0684 0.3443-0.29725 0.48812-0.5248 0.3765-0.59905-0.10305-0.06855 0.91146-1.782 2.4197-3.9783 1.0289-1.4976 3.8387-5.5888 4.3765-6.3912 1.3184-1.9671 2.8633-4.1905 4.7166-6.8019 1.8249-2.5744 3.9709-5.4892 6.3484-8.3801 2.5934-3.1444 5.1751-5.8665 7.7853-8.8114v-3e-6c2.5698-2.9004 4.7686-5.4847 7.3525-8.272 8.503-9.1642 16.032-15.575 15.894-15.097-0.0542 0.18745 0.1198 0.08744 0.38688-0.22041 0.4556-0.52498 1.1778-1.2554 1.9032-1.9429 1.221-1.1381 2.3784-1.9739 2.4368-1.8963 0.0611 0.0812 0.57073-0.13338 1.116-0.45516 0.54599-0.32234 0.92196-0.65228 0.85048-0.75069-0.0651-0.08963 0.16122-0.30942 0.50655-0.50406v-1e-7c0.0348-0.01998 0.0708-0.03977 0.1079-0.059228 0.41791-0.21929 0.71901-0.45441 0.66846-0.52428-0.0319-0.044097 1.5162-1.2347 3.8425-2.9516 1.0231-0.75822 2.8691-2.1903 4.5802-3.3173 0.12959-0.084022 0.25997-0.16766 0.39117-0.25093 5.4506-3.4593 10.154-5.2954 10.266-5.4044 0.11172-0.10922-3.9595 1.3784-8.9885 4.3168-0.59424 0.34717-1.2015 0.71623-1.8168 1.1088-1.7532 1.1379-3.0888 2.17-4.632 3.2667-1.5064 1.0683-3.1406 2.2222-4.7388 3.3769-1.4968 1.072-3.1846 2.2551-4.8798 3.714 0 1e-6 0 1e-6 -1e-5 2e-6 -7.8034 6.7597-13.679 12.54-18.24 17.267v2e-6c-0.46226 0.47964-0.89812 0.93691-1.2845 1.3439-2.0885 2.2002-3.4946 3.8089-6.2235 6.7987-1.9179 2.0998-3.9867 4.2814-5.6717 6.173-0.8272 0.9286-1.5532 1.7605-2.2361 2.5622-2.5648 3.0202-4.0435 4.9529-3.8142 4.4636 0.48142-1.0274 2.7101-4.0492 3.4624-4.7617 0.11407-0.10795 0.17495-0.14042 0.16393-0.07473-0.0336 0.20035 0.16258 0.0082 0.43486-0.41695 0.63583-0.9926 0.43569-1.2125-0.52105-0.29523-0.37644 0.36087 0.0221-0.21011 1.0525-1.3954 1.4024-1.6133 1.808-1.9434 1.8226-1.6078 0.025 0.57627 0.65535 0.09883 1.4371-1.0684 0.34785-0.51944 0.41428-0.71829 0.14618-0.43969-0.26766 0.27813-0.56091 0.4407-0.64914 0.35942-0.0855-0.07881 1.3449-1.7067 3.5817-4.2122v-1e-6c-4.9524 5.5509 6.0777-6.8119 1.1252-1.261 4.003-4.4832 4.916-5.4405 4.9328-5.058 0.0208 0.47141 0.8771-0.23703 1.8733-1.4532 0.14628-0.17866 0.29551-0.36858 0.44526-0.56754 0.74733-0.9929 0.70313-1.0313-0.56397 0.18879-0.0437 0.04206-0.0934 0.08631-0.1466 0.13095-0.20193 0.17013-0.4541 0.34674-0.62207 0.4306-0.0934 0.04663 0.0778-0.17982 0.44577-0.59525 0.45873-0.51756 1.2113-1.3155 2.1264-2.2319 2.4042-2.4079 5.4857-5.5276 10.456-10.114 2.1935-2.0243 4.1771-3.7638 5.6904-5.0503 1.638-1.3855 2.6363-2.0417 2.7358-2.0722 0.2071-0.063368 0.21287 0.17247 0.0155 0.52336-0.20489 0.36415 0.43858-0.042284 2.6625-1.6124 1.0742-0.76628 2.5376-1.811 4.4702-3.1912-3e-3 0.00189 0.27179-0.19422 0.26915-0.19233 1.5978-1.1459 3.2287-2.3851 4.623-3.3162v-2e-7c1.7676-1.1597 2.8529-1.7744 2.7313-1.7539-0.16077 0.027149-1.3334 0.61296-2.8583 1.5573v2e-7c-0.5842 0.36927-1.167 0.76125-1.7603 1.1793-1.4335 1.0102-2.1436 1.5345-2.9409 2.0462-0.48092 0.31014-0.7781 0.48177-0.79835 0.45342-0.0212-0.029726 0.20131-0.23352 0.67896-0.62055 0.22274-0.18277 2.5074-2.0599 4.561-3.4599 3.4175-2.2856 7.03-4.1559 12.897-6.7276 0.13724-0.061629 0.28118-0.12741 0.43404-0.1976 0.67185-0.3085 1.374-0.63716 2.2387-0.99394 2.3268-0.95563 4.291-1.5502 5.6232-1.9242v-1e-7c0.97722-0.27533 1.5081-0.42202 1.4259-0.43288-0.0426-0.00551-0.53777 0.089079-1.4578 0.30295-1.2662 0.29596-3.2864 0.83676-5.7006 1.774-1.1427 0.44876-1.8424 0.78127-2.7018 1.1465v4e-7c-3.1985 1.3368-7.8796 3.3269-12.344 6.0907-0.24843 0.15378-0.4938 0.30832-0.73624 0.46368-1.7786 1.1658-3.6514 2.5897-4.6851 3.3335-1.9506 1.3979-3.1939 2.285-4.7376 3.4093-2.1294 1.5328-3.4078 2.4602-4.9959 3.8143-2.4823 2.1317-3.3837 2.8776-3.5972 2.9179-0.42421 0.07973-0.67643 0.29948-1.1753 1.0349-0.3482 0.51281-0.77441 0.99188-0.94863 1.0619-0.17436 0.07016-4.368 3.8079-9.0834 8.5883-1.1741 1.1903-2.3784 2.437-3.6048 3.7382-2.5562 2.7164-5.0482 5.5692-7.4618 8.2253-2.9108 3.2003-5.1801 5.4947-7.9642 8.7564-2.7244 3.2046-5.1186 6.3735-6.6129 8.3839-1.5778 2.1174-2.5373 3.4277-2.5774 3.5001-0.07549 0.13663-3.369 4.6265-7.1553 10.217-2.1395 3.159-4.3551 6.5782-6.5051 10.182-1.7848 3.0055-3.2696 5.8926-4.1898 7.7232-0.26458 0.52634-0.52631 1.0505-0.78699 1.5745-1.658 3.3285-3.4139 6.7137-4.789 9.495-0.5465 1.1227-0.8758 1.8979-1.1364 2.3973-1.0984 2.1606-1.7987 3.0948-1.7426 2.8922 0.09899-0.35721 0.69497-1.5661 1.3345-3.085 0.20284-0.47581 0.47325-1.2192 1.0291-2.45 1.3395-2.9728 2.3359-4.9672 4.5994-9.6068 1.2165-2.4954 2.9265-5.9099 4.9641-9.3761 0.70886-1.2 1.4613-2.4416 2.2637-3.7309 5.0082-8.0482 11.045-16.453 12.74-18.917 0.27622-0.40146 0.62782-0.90372 1.0438-1.4911 1.467-2.0758 3.8131-5.2858 6.5259-8.5519v-1e-6c1.4823-1.7754 2.9797-3.443 4.3998-4.9958 1.5277-1.6705 2.4424-2.6609 3.5107-3.8639 2.7763-3.1287 3.08-3.5726 2.5611-3.0143-1.3769 1.4816-2.3325 2.3705-2.2979 2.1494 0.0323-0.20722-0.10432-0.19385-0.30357 0.02799-0.12009 0.1337-0.23841 0.32559-0.32168 0.51022-0.0533 0.11974-0.0921 0.23715-0.10666 0.3336-0.0284 0.18738-1.0326 1.3649-2.5118 2.9845-1.6907 1.8512-3.2193 3.4654-5.1707 5.6644-2.1273 2.4074-3.7724 4.3647-3.9534 4.3772-0.18404 0.0126-0.8953 0.74737-1.5671 1.6318-1.2e-4 -1.3e-5 -2.4e-4 -2.6e-5 -3.59e-4 -3.9e-5zm5.6235-6.9989c-0.23403 0.27119-0.40046 0.54101-0.44411 0.70068-0.01664 0.06309-0.01394 0.10872 0.01142 0.13017 0.02535 0.02145 0.06721 0.01353 0.12032-0.01855 0.1346-0.08183 0.34182-0.31618 0.53749-0.6184 0.27413-0.4234 0.47056-0.79128 0.43504-0.82238-0.0354-0.03099-0.33259 0.24889-0.66016 0.62848zm14.061-14.801c-0.48608 0.49002-0.44894 0.53949-0.0339 0.33978 0.37457-0.18028 1.07-0.81285 1.5471-1.403 0 0 4.3e-4 -5.3e-4 4.3e-4 -5.3e-4 0.86598-1.0722 0.97744-1.2574-0.19708-0.18408v1e-6c-0.1863 0.17106-0.40331 0.37295-0.65085 0.60564-0.28332 0.26632-0.50493 0.48002-0.66574 0.64218zm15.733-15.452c-1.3041 1.1718-3.0869 3.0124-3.3605 3.5774-0.36598 0.75575-0.19225 0.61983 1.4022-0.87204 1.3742-1.2863 1.6508-1.5992 1.0286-1.2726-0.5898 0.3096-0.46389 0.13664 0.66166-0.80059 0.7991-0.6654 1.5015-1.3561 1.5554-1.538 0.0677-0.23016-0.51319 0.21011-1.2874 0.90574 0-8e-6 -1e-5 -1.5e-5 -2e-5 -2.3e-5zm-8.3428 8.1969c-1.7686 1.7753-3.5279 3.6592-4.153 4.4383-0.32201 0.4014 1.2178-1.1702 3.3629-3.3117 2.1712-2.1676 4.0233-4.0288 4.0667-4.1954 0.0371-0.14278-1.554 1.3398-3.2766 3.0688zm20.233-17.122c-0.91909 0.65854-1.8136 1.3142-2.5817 1.897-0.0715 0.053672-0.14178 0.10649-0.21099 0.1587-1.0634 0.80227-0.78721 0.63257 0.25398-0.099823v-1e-7c0.38094-0.27234 2.0349-1.46 2.4158-1.7324 1.0238-0.7342 1.7192-1.2332 2.3359-1.682v-2e-7c1.3956-1.0224 1.0896-0.84878 0.43663-0.3994-0.0997 0.068584-0.38395 0.26504-0.48362 0.33362-0.63306 0.43637-1.398 0.974-2.1661 1.5243zm44.293-17.002c-0.1208 0.02348-0.27026 0.06763-0.41003 0.1257-0.28595 0.11878-0.24031 0.17296 0.26563 0.08253 0.397-0.07146 0.54443-0.17326 0.42739-0.21462-0.0607-0.02136-0.1606-0.01724-0.28298 0.0064zm-5.1904 1.0992c-0.26137 0.07295-0.40688 0.16255-0.49222 0.27575-0.19208 0.255-0.12739 0.26343 0.94812-0.01903 0.44873-0.11785 0.8479-0.21034 1.2202-0.29428 0.59625-0.14739 0.64553-0.19993-0.0375-0.18228-0.10909 0.0085-0.22396 0.01805-0.34576 0.02864-0.63449 0.05534-1.0347 0.11906-1.2928 0.1912zm-43.062 20.123c-0.16991 0.12283-0.35414 0.2786-0.51342 0.43939-0.3704 0.37386-0.18477 0.28961 0.37506-0.11823 0.51169-0.37338 0.76812-0.62039 0.56299-0.56147-0.10027 0.028809-0.25477 0.11772-0.42459 0.24037zm17.722-11.697c-0.19059 0.090314-0.39907 0.20925-0.5819 0.33633-0.42067 0.29236-0.23329 0.25041 0.38691-0.045826 0.57211-0.27382 0.8776-0.4745 0.66219-0.45222-0.10601 0.011072-0.27683 0.071678-0.46718 0.16177zm-3.2285 1.6881c-0.24862 0.13831-0.48661 0.29039-0.66005 0.42472-0.36864 0.28526 9e-3 0.11523 0.73547-0.2889 0.7234-0.40242 1.0603-0.63056 0.62999-0.47092-0.20287 0.075195-0.45685 0.19682-0.70541 0.33509zm26.309-9.3471c-0.18452 0.03363-0.39656 0.07508-0.63322 0.12549-0.17131 0.03913-0.34075 0.08029-0.50788 0.12323-0.79955 0.20567-1.4109 0.40956-1.6441 0.49211-0.26722 0.08763-0.42906 0.14928-0.4246 0.16924 8e-3 0.03479 0.1864 0.02008 0.45704-0.02705 0.43656-0.07047 1.0812-0.25704 2.1689-0.51752 1.2005-0.26769 1.7241-0.36941 1.8233-0.46738 0.074-0.07327-0.25042-0.07893-1.2394 0.10195 0-2.3e-5 0-4.6e-5 -1e-5 -6.9e-5zm-74.64 54.517c-0.28964 0.32353-0.51625 0.80078-0.50321 1.0589 0.014 0.27549 0.24075 0.22105 0.54806-0.12536 0.28772-0.32433 0.51349-0.79738 0.50188-1.0529-0.0125-0.27256-0.23745-0.2261-0.54673 0.11936zm6.7884-7.3866c-0.32446 0.35754-0.64145 0.71069-0.93695 1.0428v1e-6c-1.2524 1.4069-2.2375 2.5654-2.2691 2.7388-0.0311 0.17085 1.1871-1.0699 2.5045-2.5264 1.6592-1.8357 3.6519-4.1985 3.7596-4.4854 0.0543-0.14466-1.3404 1.3377-3.058 3.2302zm30.49-28.928c1.7874-1.3152 2.3282-1.6201 1.944-1.1669-0.5998 0.70739-0.83752 0.88432-2.5967 1.9286-0.0404 0.02343-0.32988 0.19097-0.37025 0.2144-1.0266 0.59392-1.0304 0.54829 0.23876-0.39449v-1e-7c0.22326-0.16729 0.48402-0.36073 0.78425-0.58164zm-10.281 8.752c-0.38108 0.34926-0.76358 0.71921-1.0643 1.0329-0.63998 0.66753-0.11079 0.22305 0.99724-0.79358 1.1228-1.0301 1.6802-1.5829 1.0978-1.1271-0.27686 0.2166-0.65004 0.53901-1.0306 0.88787zm-3.2703 3.0589c-0.1869 0.17761-0.36222 0.36574-0.48278 0.52288-0.24449 0.31849 0.0274 0.12445 0.58994-0.4101 0.56264-0.53465 0.77099-0.79701 0.44057-0.56914-0.16307 0.11238-0.3607 0.27864-0.54773 0.45636zm47.441-27.59c-0.18567 0.037702-0.39683 0.09804-0.58585 0.17149-0.41705 0.16206-0.27952 0.18524 0.35555 0.057264 0.56702-0.11478 0.86392-0.23385 0.67354-0.26573-0.0951-0.01592-0.25738-6.164e-4 -0.44323 0.037019zm-8.0012 2.3373c-0.45885 0.16294-0.89995 0.33378-1.3017 0.50226-0.22586 0.094878-0.43001 0.18575-0.60718 0.26843-1.0341 0.48256-0.20688 0.15138 0.64412-0.17376v-1e-7c0.34873-0.13171 0.79363-0.29791 1.3063-0.47996 1.6489-0.5855 3.418-1.1077 1.8884-0.71461-0.55239 0.14201-1.2271 0.34806-1.9299 0.59764zm-76.521 68.78c0.11706-0.15704 0.23213-0.28167 0.31634-0.33629 0.169-0.1095 0.01396 0.19025-0.34034 0.66638-0.39056 0.52394-0.51443 0.60922-0.30673 0.20035 0.09334-0.18369 0.21347-0.37344 0.33074-0.53043l-2.4e-5 -1.8e-5zm5.3986-5.1489c-0.15103 0.20374-0.28981 0.41666-0.37991 0.58936-0.18093 0.34658 0.04785 0.11988 0.50493-0.49672 0.45705-0.61656 0.60687-0.90076 0.32822-0.62721-0.13884 0.13634-0.30228 0.33095-0.45324 0.53458zm-2.1956 3.3418c-0.24108 0.3278-0.48245 0.67897-0.66718 0.97668l-4.21e-4 -3.07e-4c-0.37714 0.6078-0.06573 0.25292 0.65529-0.72866 0.72486-0.98682 1.0407-1.4836 0.67361-1.078-0.18064 0.19986-0.42041 0.50265-0.6614 0.83023 3.2e-5 2.4e-5 6.5e-5 4.8e-5 9.7e-5 7.1e-5zm93.943-70.225c-0.20585 0.066586-0.47698 0.15606-0.67523 0.23133-0.098 0.037148-0.48791 0.27236 0.5625-0.040873 0.11589-0.034559 0.21799-0.069127 0.30742-0.10271-0.72396 0.39331-0.3411 0.092337-0.14396-0.041117 0.15932-0.10786 0.22869-0.17589-0.15819 0.018815-0.39975 0.20112-0.14261 0.11061 0.25706-0.1129-0.0479 0.014991-0.0987 0.031133-0.14959 0.047501zm-4.597 1.1685c-0.54074 0.11449-1.0012 0.2555-1.3196 0.37044-0.9031 0.32602 0.0215 0.066026 1.0856-0.17824 0.12007-0.027561 0.23809-0.053531 0.35553-0.078194 0.98666-0.21368 1.6301-0.34828 1.0162-0.29676-0.2611 0.022103-0.63456 0.078351-1.0437 0.16317-0.0316 0.00639-0.0629 0.012881-0.0941 0.01948zm-101.82 87.807c-0.10643 0.16995-0.21154 0.37176-0.29091 0.56649-0.18075 0.44345-0.05438 0.32496 0.29139-0.23018 0.06248-0.10049 0.11798-0.1934 0.16561-0.27688 0.19318-0.33811 0.25389-0.52165 0.12454-0.42234-0.07524 0.05782-0.17296 0.17995-0.27162 0.33305-0.0063 0.0098-0.01264 0.0198-0.01896 0.02988zm1.8197-2.9277c-0.13738 0.21675-0.26131 0.44169-0.33928 0.62271-0.15885 0.36856 0.05855 0.11069 0.47064-0.53947 0.41206-0.65011 0.55134-0.95517 0.2861-0.65449-0.13024 0.1477-0.2801 0.35452-0.41747 0.57124zm-6.036 11.033c-0.14074 0.27272-0.27796 0.56874-0.3773 0.82558-0.0316 0.08179-0.05343 0.14411-0.0661 0.18766-0.02754 0.09541-0.01078 0.10008 0.04409 0.02235 0.0766-0.109 0.22526-0.37456 0.43304-0.77703 0.42308-0.81952 0.59879-1.2513 0.36608-0.93337-0.11441 0.15626-0.2588 0.40241-0.39983 0.6748 8e-6 5e-6 1.7e-5 9e-6 2.7e-5 1.4e-5zm98.522-94.043c-0.24377 0.053599-0.48623 0.12203-0.6667 0.1924-0.35649 0.13879-0.0476 0.12395 0.70012-0.040457 0.74513-0.16384 1.0166-0.27875 0.64548-0.25606-0.18912 0.011499-0.43547 0.050591-0.6789 0.10411zm-15.151 5.3718c0.23556-0.10485 0.47538-0.19405 0.6661-0.2446 0.39123-0.10391 0.0996 0.074269-0.6028 0.38691-0.70303 0.31293-1.0352 0.41323-0.69375 0.19044 0.16626-0.10843 0.39491-0.2279 0.63045-0.33275zm-58.765 53.078c0.27225-0.34609 0.47638-0.498 0.57766-0.4176 0.0937 0.07441-0.34838 0.77621-0.97053 1.5655-0.92553 1.1731-1.0584 1.3093-0.59048 0.43319 0.37147-0.69546 0.71108-1.235 0.98335-1.5811zm-2.1557 3.1208c0.19723-0.26147 0.34318-0.29114 0.32388-0.06699-0.01943 0.22449-0.10266 0.49813-0.18423 0.6066-0.08169 0.10863-0.22676 0.13851-0.32272 0.06648-0.09596-0.07202-0.01406-0.34474 0.18304-0.60605 1e-5 -1.3e-5 2e-5 -2.7e-5 3.1e-5 -4.1e-5zm8.2487-9.9777c-0.44983 0.49434-0.87702 0.98682-1.1983 1.3847-0.72352 0.89613 0.0312 0.0822 1.29-1.3012 1.274-1.4 1.9597-2.184 1.1664-1.4027-0.35743 0.35203-0.81167 0.82849-1.2582 1.3192zm9.3177-10.282c-0.13209 0.14302-0.26955 0.31687-0.38058 0.48854-0.24679 0.38159-0.11675 0.3124 0.32344-0.16423 0.3995-0.4333 0.58408-0.71387 0.40526-0.6235-0.0891 0.04502-0.21596 0.15634-0.34807 0.29924zm-20.874 24.814c0.1525-0.20661 0.3121-0.364 0.47403-0.46595 0.32497-0.20455 0.18109 0.11306-0.40836 0.91241-0.76025 1.031-0.84265 1.0905-0.49615 0.31345 0.13287-0.29791 0.27798-0.5533 0.43048-0.75991zm-6.8566 10.23c0.20238-0.29256 0.41504-0.5751 0.59185-0.78081 0.36292-0.42206 0.12862-0.01275-0.47587 0.86106-0.60438 0.87365-0.90589 1.2391-0.63868 0.75018 0.13017-0.23815 0.32029-0.53784 0.5227-0.83043zm-3.1727 4.7014c0.16841-0.25443 0.33867-0.48291 0.46851-0.62474 0.26479-0.28924 0.04427 0.1192-0.46162 0.8834-0.50111 0.75697-0.72748 1.0209-0.46847 0.51864 0.12585-0.24415 0.29265-0.5229 0.46154-0.77733zm15.742-21.839c0.76568-0.96769 1.3841-1.5859 1.3614-1.3905-0.0479 0.4114-2.4377 3.3808-2.6184 3.2452-0.066-0.04952 0.49249-0.88845 1.257-1.8547zm-6.2085 8.6221c0.20984-0.28579 0.43095-0.56288 0.61254-0.76316 0.36753-0.40507 0.13349-0.01457-0.49885 0.84663-0.63218 0.86099-0.93526 1.2022-0.65849 0.72968 0.13669-0.23345 0.33492-0.52732 0.5448-0.81315zm86.627-67.716c-0.1882 0.048632-0.3895 0.11776-0.56255 0.19335-0.30396 0.13275-0.32824 0.2158 0.34528 0.046428 0.57355-0.14477 0.87967-0.28576 0.6839-0.30464-0.10529-0.010051-0.27768 0.016207-0.46661 0.064924zm-24.948 8.1221c-0.23025 0.11444-0.45054 0.24255-0.61062 0.35826-0.33509 0.24207 2e-3 0.11779 0.67976-0.21895 0.67802-0.33693 0.97964-0.53089 0.58567-0.41017-0.18846 0.057682-0.42471 0.15649-0.65481 0.27086zm21.205-7.2979c-0.30764 0.05648-0.50502 0.15042-0.48447 0.23509 0.0278 0.11468 0.41843 0.11229 0.88527 0.014114 0.023-0.00483 0.0458-0.00968 0.0683-0.014516 0.44579-0.094706 0.78314-0.18388 0.77628-0.22824-7e-3 -0.044362-0.36267-0.079128-0.83399-0.052403-0.0237 0.00131-0.0476 0.00276-0.0716 0.00435-0.12241 0.00809-0.23728 0.022708-0.33979 0.04163zm-94.547 84.65c0.24138-0.38884 0.49352-0.76619 0.70085-1.0461 0.44221-0.59718 0.1161-0.01708-0.58753 1.1164-0.70328 1.1329-1.0792 1.6849-0.73993 1.0222 0.15893-0.31036 0.38515-0.7036 0.62661-1.0926zm33.811-43.233c0.52375-0.58575 1.0276-0.99802 1.1169-0.91753 0.089 0.0803-0.16495 0.50824-0.56191 0.95142-0.39693 0.44314-0.89724 0.85719-1.1126 0.91882-0.22182 0.06353 0.0174-0.34844 0.55768-0.95271zm36.486-31.528c0.28323-0.16533 0.43209-0.14454 0.33665 0.037401-0.0972 0.18505 0.23142 0.14868 0.72465-0.064127l-2.5e-4 -4.533e-4c0.57035-0.24609-0.0472 0.12567-1.0234 0.70437-0.97486 0.57791-1.5992 0.9459-1.1136 0.5645 0.42059-0.33045 0.72714-0.67162 0.66998-0.76675-0.0572-0.095219 0.12395-0.31029 0.40595-0.47491zm-26.895 21.795c0.13989-0.13426 0.27271-0.23699 0.36414-0.27631 0.18375-0.07892-0.0177 0.19022-0.4405 0.59712-0.46452 0.44628-0.60123 0.51152-0.3318 0.14394 0.12049-0.16436 0.26812-0.33056 0.40812-0.4648zm5.2284-5.0259c0.14373-0.13014 0.27948-0.22898 0.372-0.26564 0.18592-0.07355-0.0221 0.18876-0.4567 0.5832-0.47764 0.43283-0.61574 0.49347-0.33588 0.1342 0.12524-0.16076 0.2767-0.3217 0.42054-0.45181zm1.6377-1.5166c0.14483-0.12891 0.28142-0.2266 0.37425-0.26246 0.18651-0.07196-0.0237 0.18856-0.46165 0.5793-0.48143 0.42882-0.62087 0.48899-0.338 0.13222 0.12661-0.15968 0.28041-0.32022 0.42536-0.4491zm2.4798-2.2485c0.14642-0.1271 0.2842-0.22309 0.37746-0.2578 0.18736-0.06964-0.026 0.18825-0.46879 0.57353-0.48684 0.42289-0.62581 0.48016-0.33863 0.1271 0.12859-0.15808 0.2834-0.31582 0.42992-0.44288zm-14.772 14.345c0.17382-0.184 0.35875-0.35696 0.51297-0.47518 0.31297-0.24004 0.12226 0.02927-0.39989 0.582-0.52223 0.55282-0.78024 0.75848-0.55833 0.43234 0.10935-0.16065 0.27149-0.35524 0.44525-0.53917zm27.573-23.609c0.6762-0.50463 1.2862-0.83543 1.3564-0.73814 0.14982 0.20767-0.19125 0.45669-1.5753 1.149-0.92775 0.4641-0.84485 0.38385 0.21892-0.41089zm-28.07 24.772c0.27663-0.2949 0.549-0.56431 0.75197-0.73956l3.7e-4 3.5e-4c0.40372-0.34845 0.058 0.07129-0.70091 0.88564-9e-5 1.03e-4 -0.0911 0.0976-0.0912 0.0977-0.80195 0.85736-1.1914 1.2257-0.73012 0.64217 0.20305-0.25715 0.46029-0.55356 0.72091-0.83368 0.0164-0.01759 0.0327-0.03511 0.0491-0.05254zm-2.239 2.4435c0.13185-0.14172 0.25843-0.25159 0.34737-0.2959 0.1786-0.08887-6e-3 0.19063-0.40515 0.62018-0.43879 0.47196-0.57016 0.54272-0.32285 0.16204 0.11086-0.17063 0.24864-0.34466 0.38059-0.48635zm5.7524-6.1176c0.24731-0.25297 0.50392-0.49504 0.71196-0.66695 0.42882-0.3541 0.12563 0.01195-0.61111 0.76555-0.73664 0.75348-1.0951 1.064-0.75061 0.62731 0.16714-0.21185 0.40244-0.47294 0.64976-0.72591zm3.2589-3.1743c1.5018-1.4778 3.6705-3.416 4.0528-3.5696 0.14335-0.05759-0.94553 1.0263-2.3971 2.432-1.4493 1.4035-2.8064 2.6171-3.0282 2.6669-0.15071 0.03388 0.4817-0.65263 1.3725-1.5293zm10.281-9.4557c0.24343-0.22481 0.48871-0.44465 0.72013-0.64517 0.52299-0.45347 0.98888-0.78517 1.148-0.83384 0.14468-0.04418-0.31166 0.38008-0.97862 1.0269v1e-6c-0.22622 0.21864-0.48291 0.4623-0.75948 0.72066-1.1198 1.0461-1.9383 1.7316-1.8228 1.5014 0.12351-0.24604 0.88982-1.0284 1.6927-1.7699zm-4.601 4.2083c0.23808-0.22034 0.38658-0.22278 0.32928-0.0067-0.0575 0.21633-0.18608 0.46924-0.28472 0.56077-0.0988 0.09164-0.24613 0.09472-0.32782 0.0069-0.0817-0.08786 0.0453-0.34066 0.28324-0.56086 1e-5 -6e-6 1e-5 -1.1e-5 2e-5 -1.7e-5zm10.15-8.4587c0.32686-0.23709 0.64565-0.45027 0.87757-0.58416 0.47881-0.27632 0.0129 0.1072-0.96274 0.81638-0.0334 0.02426-0.066 0.04795-0.098 0.07108-0.94102 0.68187-1.237 0.83745-0.74494 0.42002 0.19431-0.16501 0.42624-0.34823 0.66545-0.52888 0.0871-0.06575 0.17516-0.13088 0.2627-0.19435zm16.608-10.204c0.16605-0.076049 0.33747-0.14862 0.50694-0.21212 1.1208-0.42232 0.906-0.29761-0.37938 0.39106-0.96277 0.51571-1.4542 0.72227-1.2221 0.47551 0.15462-0.16431 0.59516-0.4257 1.0946-0.65444zm23.715-6.1751c-0.13541 0.023016-0.25497 0.045259-0.36045 0.066755-0.54726 0.11386-0.56987 0.19935-0.36656 0.20418 0.0936 0.00221 0.22915-0.012013 0.4034-0.025278 0.58603-0.056085 1.899-0.21195 2.867-0.39252 1.019-0.19007 1.8581-0.44777 1.591-0.45615-0.14962-0.00466-1.6133 0.25474-3.0962 0.45064-0.42216 0.05581-0.74735 0.10288-1.0382 0.15235zm-72.923 53.135c1.8916-2.0744 4.6857-4.9657 5.2967-5.5422 0.0835-0.07861 0.15186-0.14002 0.20369-0.18251 0.1319-0.10809 0.0795-0.01402-0.13009 0.24893-0.7223 0.90592-2.1031 2.4129-4.4007 4.9049-1.4001 1.5187-2.3186 2.5291-3.3022 3.6437-1.1184 1.2644-1.8333 2.0869-1.8727 2.0555-0.0505-0.04013 0.63089-0.96336 1.6724-2.2252 0.72674-0.88295 1.5666-1.8437 2.5328-2.9031zm-7.4784 9.4621c1.3547-1.7355 0.52646-0.45979-0.87304 1.6011-1.3327 1.9639-3.1532 4.5725-5.2463 7.5771-2.9179 4.1886-5.073 7.5129-5.7926 8.7018-0.56932 0.94062-0.9146 1.3913-0.84545 1.075 0.04529-0.20591 1.9906-3.4148 4.4646-7.1382 2.527-3.8032 5.4072-7.8894 7.212-10.37 0.45764-0.62815 0.82641-1.121 1.0807-1.4468zm17.651-20.362c0.30083-0.33486 0.60855-0.6566 0.85633-0.89085 0.51649-0.48831 0.12984-0.0073-0.75711 0.98001-0.89423 0.99541-1.33 1.4265-0.89731 0.86061 0.20865-0.27291 0.49791-0.61563 0.79809-0.94977zm3.3015-3.5855c0.13282-0.13631 0.26002-0.24125 0.34888-0.28236 0.17869-0.08259-9e-3 0.18788-0.40989 0.60086-0.4407 0.45281-0.57374 0.52132-0.32245 0.15058 0.11228-0.16565 0.25049-0.33283 0.38342-0.46912zm43.53-32.301c-0.19916 0.081821-0.4023 0.18525-0.55357 0.2843-0.33351 0.21824 0.024 0.10086 0.61252-0.14091 0.12456-0.051173 0.23197-0.096044 0.31805-0.13336h1e-5c0.36076-0.15614 0.47804-0.24144 0.19555-0.18674-0.0745 0.014436-0.15723 0.035379-0.24444 0.061434-0.10328 0.029351-0.21455 0.068605-0.32812 0.11526zm-10.52 4.8769c0.54494-0.31647 1.0982-0.56747 1.4393-0.64324 0.2747-0.061015 1.0827-0.34884 1.7428-0.61333 0.67422-0.27016 1.347-0.48986 1.4867-0.4949 0.13864-0.00501-1.9702 0.93747-4.4347 2.2527-1.4355 0.7662-2.4198 1.3615-3.0575 1.7365-0.58088 0.3325-0.86252 0.48096-0.70495 0.29545 0.14468-0.17025 0.35416-0.35549 0.56801-0.50728 0.17692-0.12771 0.35698-0.23446 0.50635-0.29711 0.32675-0.13704 0.82104-0.47078 1.0781-0.72844 0.3099-0.31074 0.82716-0.68154 1.376-1.0003zm-24.537 19.132c1.9611-1.8668 3.9921-3.6626 4.2022-3.7423 0.15848-0.05998-1.6917 1.6881-4.0506 3.944-2.3589 2.2559-4.1687 3.9958-4.0873 3.8059 0.0874-0.20384 1.9745-2.1409 3.9356-4.0076zm19.38-15.636c0.16822-0.10623 0.22951-0.09576 0.18166 0.03078-0.079 0.2093-0.65648 0.76285-1.3229 1.2474-0.34488 0.25078-0.60727 0.43185-0.78413 0.54361-0.2991 0.18807-0.32156 0.1556-0.0684-0.09572 0.20587-0.20039 0.61933-0.57204 1.1575-1.0486 0.39352-0.34847 0.6656-0.56971 0.83628-0.6775-1e-5 -1e-6 -2e-5 -1e-6 -3e-5 -2e-6zm-63.267 69.255c0.71146-1.0934 1.1712-1.7466 1.2039-1.7252 0.07203 0.0471-1.3069 2.296-2.9491 5.045 2.89e-4 -4.84e-4 -0.07591 0.12726-0.07562 0.12678-1.4906 2.4928-2.9437 5.2986-4.5345 8.5731-0.74128 1.5265-0.21816 0.44894-0.95944 1.9754-1.4632 3.0193-2.4375 4.9255-2.6465 5.2372-0.23716 0.35353 0.19066-0.75556 1.5701-3.6684 0.53936-1.1389 1.1069-2.3098 1.7701-3.6789 1.5075-3.1107 2.9889-5.9752 4.5613-8.5834 0.78218-1.3024 1.4969-2.4366 2.0597-3.3015 8e-6 5e-6 1.7e-5 1.1e-5 2.5e-5 1.6e-5zm75.308-73.439c0.35761-0.15557 0.70602-0.29168 0.95555-0.37001l2.1e-4 4.781e-4c0.51646-0.16211-0.0131 0.10864-1.0824 0.57528-1.0406 0.45411-1.5033 0.61749-0.88869 0.28371 0.29199-0.1588 0.65636-0.33323 1.0154-0.48935zm20.669-5.5157c-0.15784 0.026989-0.30512 0.054886-0.43911 0.083851-0.0232 0.010512-0.11691 0.051772-0.23437 0.10261-0.56479 0.24431 0.0917 0.025801 0.25937 0.018801 0.11512-0.01921 0.27776-0.04652 0.43884-0.073997 1.1406-0.19457 1.8574-0.36761 1.1432-0.29277-0.34768 0.036436-0.80294 0.099092-1.1679 0.1615z"/>
   <path d="m75.287 153.01c-0.04028-0.30805-0.08519-0.57404-0.12887-0.7714-0.06604-0.29963-0.13166-0.46112-0.17795-0.39445-0.05541 0.0798-0.58561-3.49-0.82434-9.0412-0.07065-1.4531-0.02696-2.831-0.0437-5.0277-0.0055-0.78525-0.0046-1.5852 0.0048-2.3951 0.03395-2.9447 0.16592-5.4807 0.37165-7.7456 0.02815-0.55498 0.23124-1.5379 0.41237-2.8243 0.59187-4.1216 0.90038-6.2661 1.3585-8.7002 0.59219-3.1712 1.1005-5.3912 1.3945-6.7846 0.20512-0.98285 0.31797-1.4678 0.44104-1.8831 0.13955-0.47087 0.27509-0.92314 0.40963-1.355-2.6299-0.4402-5.2598-0.88052-7.8897-1.321-2.9222-0.26633-5.8463-0.51862-8.7705-0.76937-0.3233 0.19997-0.52741 0.35943-0.66198 0.54454-0.10288 0.63246-0.20041 1.2283-0.30071 1.7862-0.0042 0.0239-0.0085 0.0479-0.0128 0.0719-0.21771 1.9026-0.38922 2.5026-1.0478 6.627-0.48005 3.0339-0.79678 5.6178-1.2593 9.3653-0.09402 0.77552-0.30167 1.9702-0.45798 3.6709-0.18096 2.4194-0.28589 4.9198-0.31492 7.5335-0.01497 1.3482-0.0074 2.7395 0.02341 4.1789 0.03672 1.5917 0.02617 3.4787 0.1254 5.5269 0.21754 4.0902 0.55838 7.3132 0.89444 9.7358 0.04909 0.35389 0.10193 0.73169 0.15831 1.1264 0.23171 1.6068 0.53838 3.4252 0.81968 5.3105 0-1e-5 1e-6 0 1e-6 0 0.31066 2.1327 0.84507 6.7216 1.6686 10.573 0 0 1e-6 0 1e-6 1e-5 0.47945 2.1705 1.0082 4.2263 1.5909 6.4361 0.38746 1.4694 0.41702 1.5714 0.80447 3.0408 0.18447 0.70572 0.36074 1.3792 0.53024 2.0431l6.8e-5 -2e-5c2.4823-0.52799 4.9544-1.0818 7.4149-1.6609 0.4637-0.0846 0.92712-0.16968 1.3896-0.25509 0.0034-6.4e-4 0.33139-0.0613 0.33484-0.0619 0.09066-0.0174 0.18291-0.0454 0.27414-0.0726 0.0023-7.5e-4 0.3542-0.11822 0.35647-0.11897-2e-3 6.5e-4 1.2349-0.41391 1.2329-0.41326 0 0 5.5e-5 -1e-5 5.5e-5 -1e-5 1.2309-0.41395 2.4604-0.83156 3.688-1.2526 1.8e-5 -1e-5 3.5e-5 -2e-5 5.3e-5 -2e-5h-1e-6c-2.4499 0.6534-4.893 1.3232-7.3288 2.0092-0.84117 0.18254-1.6801 0.37082-2.5164 0.56469-0.24179 0.056-0.48338 0.11257-0.72451 0.16952-0.09658 0.0228-0.19458 0.0454-0.28902 0.0685-0.31476 0.10449-0.63349 0.20173-0.95191 0.29984-0.94933 0.30274-1.8964 0.61342-2.8407 0.93177l-8.3e-5 3e-5c0.02766 0.094 0.06253 0.21749 0.10578 0.36797 0.20527 0.71798 0.41311 1.4617 0.61934 2.197 0.11244 0.41131 0.29488 1.2298 0.65481 2.3996 0.62528 1.9412 1.3071 3.603 1.7944 4.8611 0.45508 1.1991 0.89392 2.4326 1.486 3.8884 0.50358 1.1806 0.83782 1.791 0.8859 1.9258 0.2574 0.60012 0.4863 1.1286 0.68664 1.6192 2.2718-1.1108 4.4908-2.3505 6.6519-3.7154h1.53e-4c0.95006 0.0223 1.8457-0.0326 2.6832-0.16349 0.2208-0.0345 0.43435-0.076 0.64312-0.13047 1.5846-0.41371 2.9592-1.1418 4.1121-2.1737l9.3e-5 -8e-5c0.01049 0.0212 0.0047 8e-3 -0.01779-0.0378-2.3492 1.0599-4.6973 2.1143-7.0444 3.1631l-4.6e-5 2e-5c-0.0012 4.6e-4 -0.92347 0.35904-0.92465 0.35949-0.12541 0.0488-0.24724 0.0951-0.37265 0.14389-0.11856 0.065-0.23161 0.12617-0.35018 0.19114 0.0014-7.6e-4 -0.9649 0.53128-0.96352 0.53051l-4.3e-5 3e-5c-1.4184 0.78124-2.8337 1.5619-4.2456 2.3418 0.08517 0.18428 0.5613 1.2177 0.64648 1.402h1e-6c0.06779 0.17157 0.36023 0.89051 0.99512 2.1 1.7814 3.1588 3.4323 5.5734 4.6444 7.6377 0.11703 0.17918 0.36796 0.69185 0.80467 1.4654 0.56611 0.98902 1.1177 1.88 1.5744 2.619 0.39962 0.65204 0.81513 1.3397 1.3241 2.1261 0.91078 1.3798 1.5552 2.1475 1.8375 2.5415 0.18547 0.25313 0.45341 0.67051 0.78616 1.1682 1.0859 1.617 2.2325 3.2318 3.0575 4.3927 0.26545 0.37482 0.52621 0.73973 0.76655 1.0751-0.01329-0.0186 0.38133 0.53292 0.36804 0.51437-0.32293-0.52704-0.02315-0.028 0.75677 1.1035 1.7528 2.0553 2.224 2.262 2.4087 2.3845-0.03409-0.0422-0.02831-0.0729 0.03299-0.0329v0c-0.07935-0.0967-0.2699-0.28826-0.67418-0.72105-0.65662-0.70293-1.1949-1.3668-1.5285-1.8145-1.2905-1.9528-0.29944-0.57659 0.06986-0.0537h1e-6c0.56101 0.61439 1.378 1.5062 2.3869 2.3356-0.09642-0.0973 0.0413 0.0429 0.5207 0.47137 0.17795 0.15906 0.39991 0.35475 0.66703 0.58529h1e-6c0.87338 0.62909 1.608 1.0887 2.1688 1.4472 0.0018 3.8e-4 0.0037 7.5e-4 0.0055 1e-3 -0.0013-1e-3 -0.0025-2e-3 -0.0038-4e-3 -0.40588-0.36881-0.93317-0.80894-1.5483-1.3476-0.10967-0.096-0.24308-0.20947-0.41565-0.35588-0.67827-0.61395-1.336-1.2667-1.1039-1.088-0.33881-0.34098-1.2008-1.1893-2.1888-2.4214-0.71213-1.0491-0.93021-1.4482-0.67531-1.05-0.33454-0.52323-0.68936-1.0644-1.0699-1.6395-0.31596-0.47709-0.64182-0.96101-0.97037-1.444-0.77317-1.137-1.4095-2.0869-1.9967-2.9971-0.39399-0.61047-0.61946-0.98155-0.76918-1.2103-0.20016-0.31547-0.397-0.5878-0.34496-0.56526 0.03429 0.0149 0.24188 0.24314 0.44894 0.49596 0.20332 0.24776 0.40284 0.5368 0.84332 1.1662 0.78382 1.1105 1.8028 2.5289 2.8441 4.0119-0.01417-0.0202 0.25899 0.36897 0.24482 0.34879 0.23488 0.33558 0.89309 1.2697 1.128 1.6053-0.22451-0.36971 0.0127 0.0394 0.67906 0.99976 1.0487 1.2363 1.8969 1.9556 2.27 2.2574-0.09593-0.10741 0.39336 0.35803 1.1148 0.96203 0.67028 0.44893 1.0442 0.62308 1.1791 0.63751 0.20076 0.0215 0.71724 0.25109 1.1807 0.5011 0.08248 0.0209 0.16788 0.0477 0.25315 0.0795-0.26596-0.24858-0.1399-0.11507 0.41469 0.36583 0.06949 0.0603 0.14557 0.12578 0.22829 0.19646 1.0117 0.66723 1.2055 0.71772 0.71666 0.39332h-1e-6c-1.0164-0.92115-1.0381-0.89229 0.16881 0.15506h1e-6c1.3159 0.77449 1.7062 0.96327 0.47282 0.25475h-1e-6c0.62203 0.6468 0.4435 0.40831-0.25075-0.35943h-1e-6c0.02945 0.0263 0.03157 0.0478 0.0366 0.059 0.01073 0.0239 0.02248 0.0436 0.03221 0.0611 7e-3 0.0126 0.0097 0.0141 0.01674 0.0385 0.01915 0.0237 0.0492 0.0376 0.07413 0.0538 0.07184 0.0464 0.14524 0.0914 0.20704 0.12902 0.25844 0.15747 0.43201 0.25516 0.50108 0.28422 0.14848 0.0625-0.0094-0.0835-0.42006-0.40266-0.05206-0.0405-0.12656-0.0976-0.18851-0.14669-0.0226-0.018-0.05028-0.0341-0.06784-0.0581h-1e-6c-0.0025-0.0281-2e-3 -0.0338-0.0051-0.0484-0.0047-0.0219-0.01014-0.0438-0.0154-0.072-0.0024-0.0128-0.0015-0.0358-0.0282-0.0637h-1e-6c0.61199 0.66324 0.88969 0.99277 0.24978 0.31265 1.0606 0.59123 0.90986 0.52591-0.43504-0.28162-1.0351-0.91805-1.1818-1.1154-0.14671-0.19738h3e-6c0.43976 0.25987 0.30562 0.21803-0.66406-0.44993l-1e-6 -1e-5c-0.6078-0.53598-0.91725-0.86014-0.58597-0.58267h1e-6c-0.07255-0.054-0.14894-0.11015-0.22876-0.16815-0.49966-0.40115-1.1758-0.89657-1.9979-1.5644-0.68882-0.61004-0.99903-0.95492-0.96198-0.93781-0.51374-0.5088-1.2435-1.2288-2.0474-2.2338h-2e-6c-0.55866-0.81414-0.72518-1.1364-0.58608-0.91713-0.35455-0.54864-0.72168-1.1012-1.0816-1.6354 2e-6 0-5e-3 -7e-3 -5e-3 -7e-3 -1.1365-1.6857-2.0503-3.0517-2.9218-4.4554-0.33383-0.53601-0.57278-0.94911-0.76487-1.2595-0.72116-1.1917-1.6916-2.7278-1.4273-2.5974 0.1695 0.0836 0.46392 0.47523 0.62878 0.81704 0.17243 0.35752 0.45854 0.65348 0.65203 0.70431 0.11068 0.0289 0.43623 0.34014 0.72075 0.69336 0.20855 0.25841 0.43453 0.5947 0.71264 1.0353 0.041 0.0649 0.08262 0.12996 0.12493 0.19502 0.62431 0.95976 1.1796 1.6333 1.2788 1.5687 0.10429-0.0678 0.42111 0.26751 0.70233 0.74096 0.36245 0.61022 0.7939 1.2884 1.2298 1.9525 0.37718 0.57486 0.76888 1.1504 1.1086 1.6376-0.06755-0.12341 0.12518 0.21944 0.55318 0.81579 0.83309 0.96689 1.3622 1.346 1.4212 1.2878 0.06963-0.0686-0.29307-0.44623-1.1237-1.5167-0.37229-0.54039-0.55379-0.8877-0.50395-0.80783-0.19855-0.30742-0.42254-0.64408-0.67938-1.0217-0.14111-0.20749-0.28202-0.41655-0.42079-0.62458-0.90852-1.3613-1.6966-2.6066-1.8624-2.9917-0.17888-0.41539 0.37934 0.2943 1.2446 1.5822 0.30134 0.44853 0.60483 0.87743 0.87559 1.2428 0.50641 0.6846 0.91398 1.1622 1.0439 1.2057 0.18215 0.0609 0.28131 0.14358 0.31623 0.27744-0.01869 7e-3 -0.04676 0.0426-0.07319 0.11217-0.0327 0.0861-0.01979 0.26838 0.31656 0.82765 0.14082 0.24515 0.32002 0.49703 0.51092 0.71249 0.46983 0.53025 0.67551 0.59349 0.6321 0.29718-0.02961-0.20268 0.33083 0.24954 0.76018 1.029h1e-6c0.0015 0.0209 0.0072 0.0473 0.01808 0.0797 0.06867 0.20497 0.30911 0.5345 0.64604 0.89246 0.48967 0.60198 0.66708 0.70567 0.65434 0.46873-0.01584-0.29435 0.36981-0.14293 1.5863 0.68744 0.07302 0.0458 0.15029 0.0948 0.23201 0.1472 0.04605 0.0295 0.09215 0.0591 0.1383 0.0887-0.07641-0.0662 0.07378 0.10405 0.49322 0.4525 0.55483 0.37203 0.79317 0.45811 0.65636 0.37227-0.43712-0.40579-0.38851-0.31033 0.20683 0.20123 0.69727 0.41706 0.82415 0.45356 0.34704 0.18426h1e-6c0.29186 0.29505 0.28364 0.24976-0.04726-0.11055 0.01831 0.0188 0.0092 0.0324 0.0035 0.037-0.0063 5e-3 -0.01239 9e-3 -0.01845 0.0115 0.0066-4e-3 0.01317-8e-3 0.01999-0.0134 0.0061-5e-3 0.01578-0.0192-2e-3 -0.0386 0.33189 0.35745 0.34038 0.39909 0.05144 0.10329h-1e-6c0.47637 0.26381 0.34887 0.2219-0.33852-0.19445-0.58616-0.51084-0.62784-0.60756-0.19755-0.21519 0.1372 0.0724-0.09923-0.0261-0.63489-0.3992-0.40496-0.34666-0.5457-0.51972-0.47272-0.46786-0.11896-0.0883-0.23808-0.17667-0.35736-0.2652-0.0159-0.0123-0.03185-0.0246-0.04785-0.037-0.79608-0.61381-1.3567-1.0629-1.8448-1.5484h-1e-6c-0.65535-0.63234-0.62765-0.83929-0.60926-0.87486 0.04605-0.089 0.10398-0.0573 0.68988 0.39752 0.07486 0.0581 0.1399 0.1048 0.19033 0.13815 0.09194 0.0467 0.09966 0.0273 0.03591-0.045-0.14678-0.15378-0.47062-0.49411-0.6564-0.70504-0.01484-0.0169-0.02901-0.033-0.04151-0.0471-0.5701-0.59241-1.1226-1.2243-1.4432-1.7345-0.08564-0.13627-0.15529-0.25137-0.20822-0.33732v-1e-5c-0.05953-0.0961-0.43881-0.73572-0.08639 0.0665h1e-6c0.03722 0.11484 0.09115 0.26643 0.16362 0.45355 0.29001 0.74886 0.35818 0.94283-0.15722 0.34672-0.1377-0.15927-0.26571-0.34255-0.36797-0.52213-0.25173-0.42247-0.28237-0.61246-0.26171-0.7049 0.01285-0.0575 0.01453-0.13695 0.0294-0.17523-0.05858-0.20826-0.17618-0.47717-0.31854-0.71273-0.21522-0.35618-0.4227-0.70081-0.62686-1.0433-1.2122-2.0344-2.0717-3.5382-2.5981-4.6375-0.27031-0.56071-0.38935-0.90853-0.35532-0.98393 0.06553-0.14507 0.27904 0.0598 0.75725 0.72802 0.2588 0.36119 0.60203 0.86885 1.032 1.519 1.5535 2.349 1.5907 2.3586 0.85614 0.94403-0.25115-0.48362-0.83501-1.422-1.6044-2.6437-0.25479-0.40448-0.55135-0.88904-0.83878-1.3142-0.45805-0.67802-1.0086-1.3559-1.5082-2.0686-0.07472-0.10659-0.14663-0.212-0.21601-0.31706-0.46216-0.70056-0.95034-1.5057-1.2404-1.9827-1.0126-1.6644-1.3572-2.3828-1.2409-2.4483 0.12588-0.0709 0.65932 0.67969 1.622 2.2207 0.15554 0.24896 0.31042 0.50247 0.48612 0.79145 0.2553 0.41995 0.49522 0.8086 0.74036 1.188 0.7587 1.1745 1.4773 2.0354 1.595 2.1811 0.02451 0.0304 0.07568 0.0955 0.14152 0.1825 0.32006 0.42281 0.39089 0.54108 0.91648 1.276h1e-6c0.32264 0.45131 0.64863 0.90323 1.0262 1.4244 0.72093 0.99497 1.6802 2.2995 2.0955 2.8636h1e-6c0.50152 0.68098 0.92322 1.243 1.2047 1.6064 0.25059 0.33822 0.28923 0.44614 0.39078 0.50365 0.25584 0.23924 0.3576 0.25317 0.35954 0.16194 6.66e-4 -0.0314-0.06481-0.13366-0.17234-0.30594-0.02707-0.0435-0.05861-0.18714-0.2758-0.55215-0.27129-0.47255-0.60844-1.0339-1.0302-1.722-0.88137-1.4375-1.7391-2.761-2.8224-4.4739-0.27731-0.43871-0.54609-0.88049-0.85417-1.3406-0.45674-0.6802-0.91654-1.2652-1.298-1.794-0.18511-0.25659-0.28249-0.39498-0.40086-0.56164-0.38524-0.54293-0.492-0.56928-0.15128 0.0951 0.17038 0.33836 0.41296 0.72409 0.83834 1.3282 0.24978 0.35472 0.5066 0.71944 0.75479 1.1037 0.20781 0.32255 0.40188 0.64345 0.59185 0.95705-0.21152-0.30008-0.42718-0.60751-0.65536-0.91472-0.37237-0.50084-0.75941-0.96283-1.1264-1.4186-0.11577-0.14377-0.3905-0.5003-0.65092-0.89989-0.38311-0.58635-0.67131-1.0701-1.2179-1.9695-0.3988-0.65664-0.96779-1.5842-1.4435-2.4268-0.2662-0.47089-0.52524-1.0047-0.84956-1.5649-1.3177-2.2704-3.0195-4.7935-4.5621-7.5598-0.2499-0.44224-0.44245-0.96886-0.69718-1.5221h-2e-6c0.17598 0.38352-0.8284-1.803-0.65242-1.4195 0.03324 9e-3 -0.50742-0.14026-0.47418-0.13106 0.0092 3e-3 -0.11705-0.0322-0.10784-0.0297-0.01295-3e-3 -0.0256-6e-3 -0.03859-9e-3 -0.0056 0.0123-0.01081 0.0255-0.01641 0.0378-0.0015 3e-3 -0.04019 0.0884-0.04171 0.0917-0.1522 0.14563-0.30427 0.29163-0.45609 0.43794 0.03039 0.0633 0.06234 0.12904 0.09673 0.19687l5e-6 -1e-5c0.10938-0.0419 0.23278-0.0575 0.38305-0.0558 0.01981 2.2e-4 0.03894-7e-3 0.05495-0.0151 0 0 9e-6 -1e-5 9e-6 -1e-5 0.06077-0.0314 0.12248-0.0558 0.18913-0.0744 0 0 3e-6 -1e-5 3e-6 -1e-5 0.12705-0.2213 0.25306-0.43081 0.38377-0.63051-0.24221-0.5915-0.49376-1.174-0.74311-1.7545-0.27876-0.64723-0.6-1.2265-0.8303-1.7942h-1e-6c-0.49298-1.2059-0.95895-2.5102-1.42-3.7175-0.61404-1.6103-1.1755-2.9444-1.6419-4.4197-0.22029-0.69248-0.37499-1.422-0.57858-2.146-0.22616-0.80514-0.42279-1.5073-0.63415-2.2464-0.04368-0.15281-0.08688-0.30391-0.13279-0.45797-0.09844-7e-3 -0.1971-0.0145-0.29644-0.0226-0.01626 2.1e-4 -0.08107 9.2e-4 -0.09733 1e-3 -0.01424-3e-3 -0.02095 4e-3 -0.02911 9e-3 -0.01488 0.0106-0.04576 0.0327-0.06065 0.0433-0.06987 0.0498-0.13926 0.0988-0.2088 0.14726-0.20283 0.15953-0.40447 0.31622-0.60584 0.47054h4e-6c0.14143 0.0558 0.28173 0.11102 0.42312 0.16616 0.04773 0.0186 0.09527 0.0371 0.14338 0.0555 0.01396 5e-3 0.02792 0.0107 0.04213 0.0159 0.0098 1e-3 0.0186 3e-3 0.02992 3e-3 0.0079-0.019 0.01637-0.0293 0.02488-0.0395 0.03529-0.0426 0.07021-0.0853 0.10483-0.12742h2e-6c0.19552-0.2119 0.38836-0.41766 0.58135-0.61925-0.19411-0.76355-0.37582-1.4636-0.53706-2.0917-0.31047-1.2096-0.50529-1.96-0.67197-2.644-0.5364-2.2011-0.95646-4.1581-1.1152-5.1814-0.04333-0.2793-0.1351-0.74411-0.25466-1.3492-0.29358-1.4784-0.50207-2.7152-0.80172-4.666-0.45785-2.9814-0.52583-4.3229-0.38042-4.022 0.15468 0.3204 0.36043 0.44882 0.4581 0.28489 0.3558-0.59708 0.73831 3.0672 1.374 7.1428 0.02921 0.18635-0.06538 0.24529-0.2122 0.12621-0.1368-0.11102-0.14196 0.28362 0.01914 1.0313 0.02333 0.10912 0.04996 0.22551 0.07997 0.34868 0.36872 1.5136 0.38616 1.398 0.3207 0.50976-0.07423-1.0065 6.3e-5 -0.73442 0.3762 0.71717 0.28708 1.108 0.38249 1.7399 0.2073 1.6105-0.15347-0.11347-0.20234 0.0899-0.1057 0.45449 0.09657 0.36431 0.27176 0.63667 0.38758 0.6055 0.11584-0.0312 0.39421 0.62239 0.62399 1.4562 0.22978 0.8338 0.30144 1.4328 0.15631 1.3272-0.1452-0.10568-0.26984 0.0443-0.277 0.33213-0.0071 0.28783 0.1592 0.64875 0.36979 0.80279 0.11846 0.0867 0.28232 0.40328 0.45608 0.83762 0.22859 0.56965 0.47635 1.3426 0.66307 2.0645-0.58916 0.31618-1.1606 0.63065-1.7123 0.94167h-1e-6c-0.03235 0.0186-0.28282 0.16265-0.31517 0.18121h-1e-6c-0.0255 0.0147-0.05081 0.0293-0.07642 0.0439h-1e-6c-0.02455 0.0123-0.04766 0.014-0.07148 0.0166-0.03287-4.6e-4 -0.06553-1e-3 -0.09792-2e-3 -0.0434-7.1e-4 -0.29185-5e-3 -0.33525-6e-3 0.20037 3e-3 -1.1864-0.0211-0.98604-0.0176 0.60899-0.28463 1.1784-0.55684 1.7048-0.8133 0.19854-0.0819 0.39061-0.16304 0.57611-0.24292 0.05553-0.0239 0.11063-0.0478 0.1652-0.0715h1e-6c0.02226-0.01 0.04262-0.0195 0.06675-0.0289l1e-6 -1e-5c0.08431-5e-3 0.16276-0.0182 0.24018-0.0314 0.24788-0.0319 0.48135-0.0635 0.70167-0.0946 0.02958 0.20122 0.03072 0.34588 0.0044 0.42225-0.01196 0.0346-0.02176 0.0664-0.02939 0.0954-0.0469 0.18183-0.0079 0.261 0.11475 0.22851 0.05242-0.0139 0.29026 0.64171 0.70753 1.9694 0.20085 0.64381 0.37453 1.3902 0.61735 2.0958 0.49567 1.476 0.84627 2.2134 1.6725 4.3372 0.44913 1.1494 0.89785 2.3966 1.4301 3.684 0.18595 0.46111 0.50129 1.0233 0.82691 1.7722 0.21457 0.49667 0.45089 1.042 0.67844 1.5907 0.02527 0.0609 0.05049 0.12201 0.07564 0.18324-0.49408 0.39798-0.97537 0.82699-1.4496 1.289-0.22069 0.018-0.4275 0.0545-0.62444 0.11049-0.0519 0.0147-0.10631 0.0292-0.16076 0.0372-0.41309 0.0608-0.76362 0.18908-1.0644 0.39381l-1.7e-5 1e-5c-0.04126-0.0813-0.07728-0.15503-0.10894-0.22086 0.5306-0.32901 1.0617-0.65698 1.5932-0.98387h7e-6c0.06274-0.0534 0.12549-0.10673 0.18825-0.16011 0.02554-0.0217 0.04989-0.0437 0.07543-0.0654 0.03305-6e-3 0.06452-0.0122 0.09756-0.0181-0.01498 3e-3 0.28534-0.0488 0.27036-0.0463-0.01786 3e-3 1.2084-0.20753 1.1905-0.20447h8e-6c0.09396 0.20297 0.56237 1.2178 0.65633 1.4208h1e-6c0.28441 0.61068 0.46286 1.1064 0.65628 1.4317 1.4569 2.5968 3.1417 5.0628 4.5911 7.5239 0.35158 0.60216 0.6166 1.1382 0.86831 1.5742 0.45391 0.79119 0.96994 1.6193 1.441 2.385 0.44267 0.71814 0.81094 1.3288 1.2097 1.9383 0.4742 0.73124 1.1103 1.4822 1.6992 2.3273 0.34623 0.4988 0.63413 0.94782 0.89655 1.3359 1.404 2.0799 2.6942 3.8347 3.0821 4.2984 0.10632 0.12678 0.18218 0.20575 0.22527 0.23348 0.03383 0.0218-0.01431-0.0833-0.13144-0.29412-0.49569-0.89068-1.327-2.1755-2.7752-4.4929-0.19217-0.30805-0.433-0.70434-0.67884-1.0877-0.06023-0.0939-0.12137-0.18809-0.18381-0.28273-0.71333-1.0746-1.2949-1.7853-1.6475-2.3434-0.51501-0.80282-0.92942-1.4913-1.2125-1.9213-0.30467-0.46355-0.43193-0.61411-0.34393-0.39547 0.26377 0.65557 0.09053 0.54617-0.99862-1.3021-0.11164-0.18945-0.21599-0.37243-0.31317-0.54916-0.21372-0.38769-0.69531-1.4001-0.79782-1.6195-0.09325-0.20444-0.13547-0.32697-0.11125-0.34145 0.06447-0.0385-1.9725-3.2567-4.2021-7.3321-0.15259-0.25721-0.31524-0.73005-0.61853-1.3883-0.17971-0.39585-0.36442-0.80155-0.55165-1.2103 0.0016 3e-3 -0.10011-0.21847-0.09853-0.21503-0.01396 3e-3 -1.5895 0.39442-1.6034 0.39789-0.0078 2e-3 -0.35651 0.0883-0.36427 0.0902h-5e-6c-0.0437 0.0111-0.08795 0.0229-0.13165 0.034-0.03653 0.0267-0.07303 0.0546-0.10956 0.0814 0.0035-3e-3 -0.27653 0.20225-0.27307 0.19972h-1e-6 -1e-5c-0.75244 0.43262-1.5032 0.86608-2.2523 1.3003 0.03221 0.0676 0.07031 0.14613 0.11522 0.23517 0.41228-0.29953 0.89474-0.49296 1.4597-0.58986 0.07458-0.0128 0.14947-0.0315 0.22219-0.05 0.27617-0.0703 0.56728-0.11372 0.87728-0.1314h1.5e-5c0.67853-0.60397 1.3667-1.1604 2.0702-1.6721-0.25269-0.6211-0.51432-1.2321-0.75134-1.7892-0.34258-0.7957-0.65184-1.3553-0.80941-1.7656-0.44107-1.0928-1.0629-2.8339-1.3802-3.6855-0.61149-1.6513-0.98904-2.6497-1.0532-2.8834-0.17913-0.65284-0.30524-0.89373-0.39214-0.66819-0.0806 0.20904-0.22428-7e-3 -0.37088-0.69168-0.0011-6e-3 -0.0023-0.0111-0.0034-0.0168-0.12453-0.614-0.21859-0.9189-0.33588-0.68254-0.09324 0.18794-0.10674-0.026-0.05225-0.46925 0.02492-0.20267 0.01133-0.51073-0.07127-0.95088-0.09181-0.53065-0.27651-1.2845-0.56825-2.2783-0.04167-0.14214-0.09-0.30462-0.14421-0.47792-0.34441 0.0669-0.69232 0.13166-1.0446 0.1943h-4e-6c-0.11559 0.0238-0.23154 0.0474-0.34822 0.0709-0.03919 4e-3 -0.07075 0.0172-0.10392 0.0299h-4e-6c-0.0825 0.0315-0.16496 0.0628-0.24758 0.094-0.28354 0.10699-0.56905 0.21254-0.85695 0.31664-0.8131 0.35246-1.6419 0.70554-2.4863 1.0584 0.16815-0.0116 0.33741-0.023 0.50786-0.0344 0.30026-0.02 0.59779-0.0392 0.89237-0.0578 0.03343-2e-3 0.43571-0.0271 0.46914-0.0292h2e-6c-0.16902 0.0104 0.30537-0.0188 0.13635-8e-3h1e-6c0.03377-5e-3 0.06633-9e-3 0.10154-0.0155 0.01493-0.0162 0.0942-0.054 0.11006-0.0615l1e-6 -1e-5c-0.06509 0.031 0.52246-0.2487 0.45737-0.21768 0.84492-0.40718 1.6641-0.79136 2.4598-1.155h1e-6 -1e-6c-0.25339-0.9516-0.42401-1.6551-0.50401-2.1126-0.05758-0.32801-0.06563-0.51083-0.01769-0.52399 0.1186-0.0325 0.13545-0.35038 0.03752-0.70531-0.09791-0.35488-0.27278-0.61843-0.38838-0.58641-0.11562 0.032-0.26672-0.1459-0.33565-0.3948-0.06887-0.24866 0.0023-0.35936 0.15811-0.24635 0.15586 0.11319 0.2301 0.0138 0.16516-0.2209-0.06492-0.23459-0.24509-0.5182-0.40048-0.63066-0.15557-0.11268-0.34373-0.43316-0.4176-0.71134-0.08407-0.31556 0.0015-0.29266 0.22505 0.055 0.29122 0.45296-0.37913-1.8722-1.1031-5.1106-0.71494-3.1458-0.90183-5.2362-1.6074-9.7132-0.26954-1.7245-0.5744-3.4341-0.80934-5.0909-0.49927-3.5059-0.78636-6.9107-1.0012-9.9506-0.0031-0.0417-0.0061-0.0833-9e-3 -0.12484-0.09759-1.3865-0.06625-2.4853-0.08989-5.0822-0.0063-0.70079-0.0056-1.3876 0.0024-2.0495 0.03736-3.0236 0.06434-4.6051-0.08449-4.4401-0.12723 0.14109-0.22181 0.0614-0.20894-0.17831 0.01288-0.23982 0.13504-0.55595 0.27162-0.70477 0.13564-0.14772 0.2575-0.6907 0.27444-1.2027 0.01752-0.54224 0.08364-1.3884 0.15802-2.0073 0.0049-0.041 0.0098-0.0802 0.01459-0.11757 0.09112-0.71936 0.16247-0.65107 0.26189-0.24838 0.03199 0.12965 0.06046 0.22343 0.08403 0.28156 0.03764 0.11446 0.06375 0.11807 0.08825 8e-3 0.01623-0.0678 0.03046-0.18387 0.05214-0.35965 0.04519-0.36058-0.04649-0.70422-0.22523-0.73136-0.20117-0.0305-0.18293-0.36565 0.04497-2.0944 0.10877-0.82423 0.32022-2.2744 0.59314-3.9766 1.0724-6.6883 0.74567-3.6876 0.64779-2.8913-0.12433 1.0114-0.23828 2.0279-0.34736 3.0492 0.17056-1.0119 0.34588-2.0183 0.53129-3.0179 0.17892-0.96523 0.32454-1.6268 0.42982-2.0055 0.13175-0.47446 0.20311-0.52437 0.23208-0.23123 0.0079 0.0798 0.01246 0.17384 0.01409 0.27741 0.0063 0.42329-0.03716 1.0235-0.11231 1.4632-0.07831 0.46312-0.5282 3.5806-1.0319 7.4743-0.10517 0.81285-0.23137 1.5729-0.31735 2.2592-0.03707 0.29588-0.0657 0.56907-0.08274 0.8258-0.35903 4.567-0.37675 7.8739-0.49285 8.1723-0.12964 0.33327-0.12513 0.54001 0.0086 0.54184 0.08687 1e-3 0.14894 0.74982 0.1889 1.9033 0.01764 0.53117 0.02341 1.1067 0.0199 1.741-0.0065 1.1162-0.0019 2.3319 0.06194 3.436 0.05423 0.98676 0.11817 1.8457 0.17719 2.4558 0.19387 2.0038 0.45725 4.6258 0.86779 7.4033 0.22637 1.5393 0.53372 3.2271 0.82879 5.0663 0.52407 3.2312 0.94152 6.6588 1.6593 9.6135l1e-6 1e-5c0.68347 2.8827 1.6335 6.0405 2.4329 8.9264 0.19657 0.708 0.3879 1.3997 0.577 2.1022-1.333 0.51602-2.6573 1.045-3.9743 1.5869-0.02051 8e-3 -0.71977 0.28207-0.74028 0.29008-0.10996 0.0432-0.06925 0.0272-0.17921 0.0704-0.05339 0.0197-0.10523 0.0289-0.15799 0.0389-0.05221 7e-3 -0.15954 0.021-0.21174 0.0279 0.02458-3e-3 -0.75391 0.10002-0.72933 0.0968-0.72831 0.0973-1.4533 0.19627-2.1756 0.29704h-2.4e-5 2e-6c1.3339-0.50063 2.6621-1.0095 3.985-1.5267 0.45824-0.14714 0.91503-0.2974 1.3709-0.45088 0.13187-0.0444 0.26364-0.0891 0.39555-0.13405 0.05285-0.018 0.10422-0.0364 0.15911-0.0543 0.18666-0.0334 0.36879-0.0754 0.55069-0.11781 0 0 4.7e-5 -1e-5 4.7e-5 -1e-5 0.54768-0.11778 1.0926-0.23957 1.6355-0.36557 0 0 4.7e-5 -1e-5 4.7e-5 -1e-5 0.05593 0.18095 0.10525 0.34673 0.14918 0.49492 0.23062 0.7767 0.45321 1.5483 0.65823 2.2623 0.267 0.92834 0.40904 1.6009 0.55277 2.0348 0.45839 1.4632 1.0724 2.9243 1.5498 4.24 0.86278 2.3549 1.2508 3.5776 1.1993 3.7241-0.0067 0.01-0.01578 0.0135-0.02755 0.0114-4.8e-4 -2.1e-4 -9.66e-4 -4.5e-4 -0.0015-6.9e-4 -0.06957-0.0345-0.10126-0.0166-0.09609 0.041-0.0042 0.0382 0.02266 0.0994 0.09216 0.18904 0.16549 0.21367 0.50524 0.71328 0.88451 1.4816 0.31426 0.61327 0.61172 1.2469 0.82869 1.7838-1.2441 0.82019-2.3486 1.6524-3.3095 2.4364-2e-6 0-3e-6 0-4e-6 1e-5l-1e-6 -1e-5c-0.50238 0.0174-0.95975 0.0771-1.3803 0.1727h-4e-6c-0.11579 0.0263-0.2299 0.0531-0.34411 0.0753-0.93547 0.18174-1.6608 0.53047-2.2394 0.97648-0.06191-0.1384-0.09173-0.22369-0.10335-0.27526 0.75793-0.41206 1.164-0.63198 1.173-0.63635 0.02171-0.0105 0.90783-0.49181 2.3588-1.2788h1e-6c-0.0095 6e-3 0.42652-0.27309 0.41702-0.26703 0.0532-0.0341 0.11273-0.0736 0.16594-0.10773h1e-6c0.06627-0.021 0.12092-0.039 0.18718-0.06h1e-6c-0.0029 8.9e-4 0.51652-0.16099 0.51366-0.1601h1e-6c0.67145-0.20886 1.3882-0.43027 2.2149-0.68459 0.0197 0.0774 0.04266 0.158 0.06866 0.24006 0.14988 0.47263 0.36112 0.81593 0.47155 0.76494 0.08527-0.0394 0.20333 0.1039 0.29441 0.33802 0.03818 0.0921 0.07177 0.18905 0.09846 0.28696 0.11737 0.43061 0.2143 0.6355 0.29322 0.60078 0.02185-0.01 0.14661 0.25826 0.25497 0.36618 0.67186 1.0751 2.2136 3.3797 4.0569 6.4144 0.20943 0.3448 0.41466 0.68713 0.61666 1.03 0.41321 0.71287 0.67907 1.2496 0.88365 1.5991 0.43844 0.76197 1.006 1.6674 1.4152 2.3276 0.61013 0.9803 0.87751 1.4154 1.1997 1.884 0.14473 0.21179 0.26737 0.357 0.28968 0.36657 0.02675 0.0115-0.08113-0.15889-0.2183-0.41146-0.22936-0.39374-0.59006-1.0309-1.1171-1.9311-0.37643-0.6465-0.95365-1.6162-1.3608-2.3522-0.18546-0.33262-0.43276-0.84484-0.81991-1.5301-0.01537-0.0272-0.03096-0.0547-0.04678-0.0824-1.4333-2.4828-3.1243-5.0096-4.5102-7.532-0.07151-0.0906-0.21459-0.52557-0.5545-1.2581l-1e-6 -1e-5c0.19264 0.42465-0.84239-1.8547-0.64975-1.4301h-1.7e-5c-0.0048 2e-3 -2.6517 0.88951-2.6564 0.89112-0.0034 1e-3 -0.60001 0.20083-0.6034 0.20196-0.07318 0.0247-0.14525 0.0498-0.21843 0.0745-0.06583 0.0405-0.13059 0.0815-0.19642 0.12194 0.0018-1e-3 -0.4906 0.30154-0.48882 0.30045-1.3098 0.69885-2.619 1.4004-3.9273 2.1045 0.03376 0.0714 0.07763 0.16182 0.1325 0.27088 0.69392-0.5392 1.5109-0.89888 2.4638-1.0879 0.12564-0.0249 0.2525-0.0545 0.37814-0.0825 0.47674-0.10648 0.98175-0.16768 1.519-0.18454h1.4e-5c1.1885-0.95699 2.4008-1.8374 3.6427-2.6433l2.2e-5 -2e-5c-0.2589-0.6389-0.51692-1.2443-0.76137-1.8206h-1e-6c-0.38301-0.8863-0.69213-1.4454-0.79544-1.7368-0.45335-1.1238-0.88382-2.3575-1.3691-3.6458-0.62893-1.6873-1.1588-2.955-1.5435-4.222-0.14274-0.44557-0.28418-1.1472-0.52926-2.0302-0.21989-0.80135-0.41596-1.5177-0.62736-2.2738-0.04241-0.15228-0.08921-0.31866-0.14291-0.50154-0.59502 0.14144-1.1904 0.27781-1.7868 0.40938-0.1991 0.0473-0.39826 0.094-0.59774 0.14021-0.06401 0.0111-0.12047 0.0309-0.1784 0.0503-0.14476 0.0485-0.28925 0.0966-0.43376 0.1444-0.50148 0.16583-1.0027 0.32764-1.5041 0.48563l-2.5e-5 1e-5c-1.4659 0.56376-2.9255 1.1135-4.3792 1.6497 0.7961-0.11961 1.5885-0.23632 2.3775-0.35031 0.02065-3e-3 0.77737-0.11161 0.79802-0.1146 0.09085-0.013 0.14087-0.0201 0.23172-0.0331 0.05794-0.0114 0.11473-0.0218 0.17414-0.0342 0.05777-0.031 0.13777-0.0614 0.19646-0.0837 0.27299-0.10382 0.54467-0.20687 0.81597-0.30942h1.3e-5c1.476-0.59156 2.9387-1.1594 4.3894-1.7051-0.1209-0.48774-0.40875-1.63-0.52965-2.1177-0.08766-0.35117-0.20013-0.79991-0.28779-1.1511-0.44199-1.7698-1.3777-5.246-1.9328-7.801-0.38968-1.7464-0.66391-3.6035-0.89662-5.2267-0.19029-1.3274-0.47423-3.5249-0.5833-4.3548-0.25415-1.9654-0.36544-2.9839-0.24496-2.7236 0.19138 0.41343 0.47928 1.5729 0.68638 2.6616 0.21658 1.1248 0.33058 2.0771 0.19404 1.9448-0.11995-0.11611-0.11961 0.0906 0.0014 0.45717 0.29083 0.88158 0.57554 0.8005 0.57129-0.16377-0.0019-0.43105 0.13243 0.1609 0.296 1.2755 0.22833 1.556 0.23075 1.9487-0.03185 1.8082-0.43792-0.23434-0.5179 0.34749-0.13765 1.3278 0.16997 0.43808 0.27515 0.54357 0.23796 0.27308-0.03831-0.27855 0.02971-0.52512 0.14815-0.54412 0.10094-0.0162 0.32766 1.1901 0.78349 3.0342 0.15073 0.63229 0.31626 1.3084 0.51836 2.1072 1.1151 4.4075 1.4219 5.4627 1.1255 5.3388-0.35885-0.14996-0.32499 0.58057 0.01436 1.6107 0.08109 0.2447 0.1805 0.50713 0.29721 0.77998 0.39759 0.92955 0.43396 0.86293 0.16456-0.46983-0.02466-0.12201-0.03787-0.27857-0.03857-0.42553-0.0012-0.12173 0.0058-0.23712 0.02162-0.32248 0.01187-0.0642 0.06378 0.0406 0.14408 0.2773 0.12984 0.38002 0.34893 1.1527 0.58554 2.1095-1.7915 0.63705-3.6222 1.3092-5.4908 2.0191-0.0058 2e-3 -0.71053 0.25157-0.71637 0.25364-2.4e-5 0-0.30498 0.10833-0.30501 0.10834h-3e-6c-0.04896 0.0174-0.19796 0.0704-0.24692 0.0878h-3e-6c-0.0719 0.0245-0.14266 0.0385-0.21483 0.0536-0.27851 0.0459-0.0079 1e-3 -0.28646 0.0472 0.03175-5e-3 -1.0186 0.1689-0.98684 0.16366-0.92227 0.15383-1.905 0.32026-2.9408 0.49917h-3e-6 -1e-6c1.7419-0.62038 3.5663-1.283 5.4676-1.9898h4e-6c0.61897-0.18746 1.2447-0.38172 1.8776-0.58321 0.17984-0.0573 0.36019-0.11508 0.54138-0.17356h9e-6c0.07218-0.0233 0.14298-0.047 0.21741-0.0703 0.2506-0.051 0.4979-0.11109 0.74606-0.1721 0.73139-0.1699 1.4702-0.34768 2.2167-0.53396h1e-6c0.05453 0.18592 0.10171 0.35309 0.14654 0.51388 0.09478 0.33835 0.53948 1.9408 0.63426 2.2792 0.25268 0.89959 0.39998 1.6133 0.52712 1.9926 0.36805 1.1957 0.92698 2.5173 1.5468 4.1513 0.06793 0.17678 0.1343 0.35097 0.19912 0.52193 0.45273 1.1941 0.82894 2.2371 1.1729 3.0945 0.07006 0.22593 0.40974 0.85911 0.77784 1.7221 0.30792 0.74514 0.53344 1.301 0.7416 1.8513-1.7252 1.0812-3.2648 2.1866-4.6185 3.2441-0.69242 0.0166-1.327 0.0912-1.9129 0.21685h-8e-6c-0.15906 0.0341-0.31775 0.0703-0.47362 0.10238-1.2559 0.2587-2.2597 0.74499-3.0753 1.3911-0.06611-0.13901-0.10792-0.23449-0.13359-0.29727h4e-6c2.2704-1.1956 4.0781-2.1406 4.9408-2.5912h1e-6c0.03379-0.0197 0.2569-0.15006 0.29069-0.16979 0.0065-4e-3 0.31648-0.18525 0.32299-0.18906 0.10924-0.0641 0.18878-0.11201 0.24096-0.14287h1e-6 1e-6c0.02245-8e-3 0.20069-0.0718-0.01498 7e-3h-1e-6c-0.05689 0.033-0.13965 0.0825-0.24712 0.14543-0.15189 0.089-0.35042 0.20566-0.59294 0.34877-1.1339 0.59489-2.6198 1.3779-4.3822 2.3149-0.0011 6e-4 -0.14408 0.0766-0.1452 0.0772h-1e-6c0.09838 0.0732 0.13631 0.0723 0.11792-0.0571 0.90407-0.48041 2.5021-1.3292 4.4091-2.336h4e-6c-0.0087 5e-3 0.55378-0.33197 0.54504-0.32673 0.07199-0.0432 0.14658-0.0891 0.21858-0.1323 0.08082-0.0283 0.15951-0.0565 0.24033-0.0848h1e-6c0.20565-0.0713 0.45703-0.15842 0.66268-0.2297-0.77894 0.27001 3.6834-1.2774 2.9045-1.0074 0.13494 0.34125 0.33838 0.81771 0.61674 1.4464 0.28787 0.62986 0.47265 1.1701 0.53486 1.2321 0.34794 0.63274 0.75724 1.3328 1.2984 2.2186 1.3229 2.1652 2.617 4.1815 3.2887 5.2628 0.41382 0.68667 0.57277 0.97207 0.56946 0.89872-0.0027-0.0607-0.12531-0.38004-0.43757-0.97485-0.37872-0.72983-0.9127-1.6648-1.5607-2.7209-1.0486-1.7089-1.7794-3.0325-1.7068-3.0763 0.09197-0.0556 1.206 1.3434 3.7591 5.5135 0.41624 0.7004 0.7156 1.2769 0.91782 1.6023h1e-6c0.42144 0.70675 0.8249 1.332 1.4164 2.2776 0.39422 0.62694 0.8178 1.3167 1.177 1.8568 0.25523 0.39572 0.80427 1.0349 1.5678 2.1286 0.02605 0.0373 0.05225 0.075 0.07859 0.11314 0.39836 0.58221 0.69812 1.0514 0.93645 1.4044 1.5798 2.3513 2.9053 4.1849 3.0455 4.2911 0.0092 7e-3 0.01338 6e-3 0.0124-2e-3 -1.5e-4 -1e-3 -5.73e-4 -3e-3 -0.0013-5e-3 -0.04473-0.13159-1.1897-1.8931-2.8008-4.4468-0.20154-0.32055-0.52849-0.85621-0.90774-1.4311-0.70719-1.0587-1.3305-1.8255-1.5888-2.2672-0.34439-0.54714-0.67919-1.124-1.1301-1.874-0.47265-0.79161-0.96086-1.5924-1.3562-2.2967-0.30276-0.52855-0.58266-1.1002-0.88541-1.6288-0.15911-0.27331-0.31916-0.54421-0.4801-0.8133-1.7534-2.9318-3.1295-4.9974-4.0627-6.6739 0.0055 0.075-0.14489-0.3757-0.50161-1.1341-0.17402-0.37881-0.48291-1.0521-0.65693-1.4309h-1e-6 -1.2e-5c-0.03326 0.0124-3.5933 1.3331-3.6265 1.3455-0.0038 1e-3 -0.81965 0.30343-0.82346 0.30484-0.1006 0.0375-0.19767 0.0743-0.29827 0.11184-0.09293 0.0532-0.18339 0.10608-0.27632 0.15926 2.08e-4 -1.2e-4 -0.68745 0.39321-0.68724 0.39309-1.8428 0.95433-3.6651 1.9023-5.4668 2.8436 0.03599 0.0759 0.08549 0.17739 0.149 0.30338 0.95965-0.76492 2.0866-1.2738 3.3863-1.5455 0.1727-0.0361 0.3473-0.0756 0.52136-0.1124 0.66343-0.14027 1.3652-0.21732 2.1084-0.23338 1.6927-1.3092 3.3877-2.4826 5.0862-3.5349-0.30662-0.75595-0.56159-1.3556-0.76681-1.851-0.5534-1.2932-0.73068-1.5982-0.74596-1.7254-0.20546-0.59186-0.26451-0.89927-0.23318-0.98825 0.11644-0.32963 0.03538-0.54783-0.38771-1.0906-0.2955-0.37954-0.53696-0.83824-0.52503-0.99575 0.0023-0.0302-0.05499-0.22047-0.16852-0.551-0.28973-0.85569-0.98642-2.5365-1.4672-4.1406-0.09912-0.30169-0.22458-0.93669-0.51691-1.9727-0.18576-0.6648-0.3879-1.3843-0.59841-2.1136 3.38e-4 1e-3 -0.04846-0.16761-0.04812-0.16645-0.04281-0.14838-0.09342-0.32227-0.15323-0.51989l-4.9e-5 2e-5c-0.82094 0.20907-1.645 0.41175-2.4729 0.60824l-4.9e-5 2e-5c-0.27552 0.0687-0.55139 0.13677-0.82791 0.20419-0.08685 0.0174-0.16619 0.0434-0.24701 0.0691-0.20175 0.0641-0.40342 0.12767-0.60526 0.19088-0.69775 0.2185-1.3973 0.43217-2.099 0.64109-2.0271 0.74257-4.0628 1.4726-6.1077 2.19h-1e-6c1e-6 0 2.6e-5 -1e-5 2.6e-5 -1e-5 1.0872-0.19837 2.1785-0.39413 3.2744-0.58741 0.01433-3e-3 1.0833-0.18997 1.0977-0.1925 0.04762-8e-3 0.27084-0.0472 0.31845-0.0555 0.07982-0.017 0.15868-0.0332 0.24007-0.0512-1.0619 0.35793 1.3359-0.47048 0.27489-0.10391 0.38014-0.13126 0.76019-0.26207 1.1407-0.39255 2.0273-0.75278 4.0671-1.4858 6.1207-2.1989-0.18614-0.71497-0.37192-1.4116-0.56093-2.1201-0.81119-3.0492-1.6743-6.0482-2.2871-8.8558-0.62767-2.7705-1.0196-6.5198-1.4306-9.4495-0.32568-2.3693-0.49739-3.367-0.69088-5.0283-0.30342-2.5582-0.40249-4.2102-0.42024-4.2806-0.02059-0.0815-0.22127-2.2378-0.35601-5.3495-0.05405-1.1391-0.04457-2.2906-0.04565-3.869-2.66e-4 -0.38476-0.0015-0.79452-0.0057-1.2171-0.03488-3.6037 0.05568-7.0164 0.33368-10.328 0.04146-0.74211 0.25346-1.8238 0.40183-2.9273 0.0035-0.0257 0.07615-0.56462 0.07963-0.5903 0.41141-3.0589 0.814-5.732 1.3119-8.1811 0.76995-3.8059 1.4685-6.2262 1.4935-5.8532 0.02743 0.41044-0.29413 2.2635-0.88247 5.9678-0.41555 2.5941-0.633 4.3542-1.2069 8.7746-0.1619 1.2472-0.35332 2.2486-0.37797 2.8881-0.13292 1.7145-0.22518 3.5912-0.26355 5.6819-0.02774 1.5114-0.02235 3.0361 0.0084 4.567 0.04005 2.1084 0.01751 3.5835 0.11032 5.0566 0.19289 3.4369 0.45754 5.8507 0.64083 7.1479 0.08098 0.57309 0.18974 1.3937 0.33483 2.374 0.18827 1.2859 0.48615 2.9726 0.79714 4.9886 0.36334 2.3052 0.65817 4.6122 0.9851 6.5772 0.17866 1.0738 0.35729 1.9603 0.54849 2.7423 0.71933 3.0929 1.2941 4.8113 1.0292 3.6936-0.35422-1.4943-0.46212-2.4588-0.31274-2.3536 0.14244 0.10024 0.21408 4e-3 0.16174-0.211-0.05232-0.21522-0.23149-0.48793-0.39826-0.6063-0.05233-0.0372-0.13611-0.24492-0.23702-0.57745-0.60909-1.8843-0.97636-5.3462-1.3761-9.3211-0.15272-1.5731-0.21716-2.5806-0.12847-2.6589 0.12301-0.10839 0.12457-0.86059 0.02567-1.617l2.9e-4 -1.7e-4zm0.93264 6.6402c-0.04818-0.36236-0.18297-0.65153-0.29831-0.63618-0.11519 0.0153-0.11312 0.322 0.0036 0.67525 0.11674 0.35334 0.24959 0.6324 0.29647 0.62614 0.04671-6e-3 0.04645-0.30289-0.0017-0.66521zm2.6015 14.628c-0.11415-0.5197-0.1747-0.51698-0.25311-0.15004-0.06002 0.28105 0.01068 0.84188 0.15994 1.3472 0.02589 0.0871 0.05434 0.17252 0.08504 0.25422 0.41751 1.1112 0.46507 1.1274 0.21564-0.33619-0.02176-0.12617-0.04567-0.26241-0.07177-0.40942-0.05301-0.29858-0.09766-0.53244-0.13577-0.70577zm4.3947 13.896c-0.23241-0.62414-0.5955-1.4917-0.96332-2.2463-0.30588-0.63842-0.57874-1.0989-0.74127-1.2452-0.50577-0.45533-0.45398-0.2936 0.17319 1.3328-0.0033-9e-3 0.04784 0.12394 0.04455 0.1154 0.52179 1.3292 0.66456 1.587 0.64604 1.0353-0.01813-0.53926 0.08048-0.38459 0.41127 0.68468 0.2313 0.74768 0.50541 1.3266 0.64068 1.3892 0.16693 0.0768 0.04631-0.37445-0.21116-1.066zm-2.9581-7.654c-0.04339-0.15598-0.09157-0.3249-0.14511-0.50629h-1e-6c-0.23028-0.77359-0.46901-1.5525-0.70258-2.2729-0.05092-0.1569-0.10668-0.3288-0.17394-0.53026-1.0091 0.26489-2.0103 0.51875-3.0039 0.76222-0.33601 0.0857-0.6711 0.17021-1.0054 0.25357-0.1046 0.0222-0.20156 0.0531-0.29989 0.0836h-6e-6c-0.24654 0.0763-0.49222 0.15189-0.73735 0.22671-0.85941 0.26235-1.7112 0.5157-2.5557 0.76052h-1e-6c-2.5633 0.91799-5.039 1.7842-7.4219 2.6011 1.3841-0.27321 2.7067-0.52961 3.9621-0.76937h3e-6c0.02498-5e-3 1.2999-0.24688 1.3249-0.25165h3e-6c0.0374-7e-3 0.34654-0.0654 0.38395-0.0725h3e-6c0.09689-0.0214 0.19232-0.0418 0.28976-0.0641h3e-6c-0.11708 0.0297 0.45006-0.15748 0.33391-0.11914h3e-6c0.47484-0.15661 0.9354-0.308 1.3839-0.45491 2.9404-1.0538 5.4409-1.9086 7.3262-2.5407 4.65e-4 -1.6e-4 0.05212-0.0175 0.05259-0.0176-0.02493-0.0641-0.03162-0.0593-0.02212 6e-3 -1.1069 0.37016-3.8549 1.2939-7.357 2.551h-3e-6c-0.43708 0.14348-0.89198 0.29333-1.3671 0.45046-0.03423 0.0113-0.29609 0.098-0.33032 0.1093h-2e-6c-0.09501 0.0305-0.18914 0.0505-0.28491 0.0716 0.114-0.0214-0.4926 0.0924-0.3786 0.071 0.03437-6e-3 -1.3393 0.25277-1.3049 0.24632-1.2091 0.22942-2.5095 0.47959-3.89 0.75001h-3e-6c2.3148-0.79462 4.7515-1.6481 7.3009-2.5627h2e-6c0.82556-0.23985 1.6612-0.48886 2.5069-0.74762 0.24003-0.0734 0.48081-0.14763 0.72268-0.22269h8e-6c0.09632-0.0299 0.1913-0.0602 0.28995-0.0902 0.33123-0.0732 0.65958-0.15578 0.98923-0.23968 0.9693-0.23677 1.9496-0.48447 2.941-0.74389 0.05839 0.1991 0.10773 0.37344 0.15277 0.53467 0.1264 0.44964 0.31006 1.1018 0.46664 1.6537 0.06133 0.21618 0.12185 0.42751 0.18155 0.63377 0.3358 1.1599 0.46116 1.7235 0.55399 1.9192 0.22401 0.62575 0.46151 1.112 0.5253 1.1432 0.06544 0.0319-0.12882-0.53203-0.32878-1.2069-0.05706-0.1669-0.15376-0.6069-0.37848-1.4149zm6.0286 15.713c-0.13647-0.23538-0.26745-0.46358-0.39564-0.69009h-1e-6c0.07638 0.22693-0.0958-0.25127-0.47382-1.0192 5.3e-5 1.1e-4 -0.03484-0.0705-0.03479-0.0704-0.4403-0.88881-0.40903-0.76424-0.02644 0.0986 0.29361 0.63528 0.53162 1.2927 0.44252 1.0427 0.09562 0.17332 0.19956 0.35783 0.31334 0.55555 0.99905 1.7362 2.3891 3.8965 1.39 2.1603-0.33418-0.58153-0.78798-1.3408-1.2151-2.0776zm17.802 27.085c0.0128 0.0138 0.026 0.0279 0.0397 0.0421 0.0109 0.011 0.0197 0.0264 0.0373 0.0328l7.4e-4 -2e-3c0.0515 0.0199 0.10638 0.0626 0.15993 0.0967 0.0798 0.0508 0.16223 0.10472 0.24488 0.15385 0.041 0.0244 0.0857 0.04 0.10305 0.0505-1.166-1.2888-1.3552-1.4619-0.69391-0.71058-0.27763-0.15701-0.5089-0.28588-0.69542-0.38797-1.9529-1.0689 0.49378 0.40068 0.34428 0.33754-0.1495-0.0631-2.6926-1.5631 0.27849 0.15943-1.1117-1.2324-0.0559-0.082 0.66417 0.72057-0.0175-8e-3 -0.062-0.0218-0.10438-0.0451-0.0121-7e-3 -0.0243-0.0134-0.0365-0.0204-0.0712-0.0404-0.14284-0.0847-0.20864-0.12499-0.0548-0.0336-0.10748-0.0741-0.15841-0.0932l-7.5e-4 2e-3c-0.0171-6e-3 -0.0255-0.021-0.0356-0.0315-0.0262-0.0279-0.0501-0.0571-0.071-0.0835-0.20111-0.2536-0.23504-0.39246-0.14194-0.34986 0.0531 0.0244 0.13151 0.10031 0.23598 0.21237 0.0124 0.0132 0.025 0.027 0.0381 0.0411zm-2.6601-2.2494c-0.15941-0.11555-0.3102-0.1725-0.4768-0.18938-0.3391-0.0342-0.3099 0.0716 0.45835 0.62811 0.3405 0.24668 0.61033 0.43994 0.74808 0.52367 0.22746 0.15827 0.23829 0.12611 0.0639-0.0851-0.0574-0.0805-0.14476-0.19034-0.2567-0.32902-0.20909-0.25874-0.3774-0.43285-0.53679-0.54824zm-20.477-26.46c0.06668-0.0251-1.0765 0.40491-1.0099 0.37982h-1e-6c0.02541-0.01-0.89951 0.33805-0.87409 0.3285h-1e-6c-0.10739 0.0406-0.20916 0.0798-0.31655 0.12037l-1e-6 1e-5c-0.09878 0.0559-0.19573 0.11186-0.29451 0.16774h-1e-6c-0.02487 0.0141-0.70679 0.39974-0.73166 0.41381h-1e-6 -1e-6c-1.9682 1.0146-3.8973 2.0139-5.7803 2.994h-1e-6 -1e-6c-0.0037-5e-3 0.0165 0.0241 0.01278 0.0187 0.07684 0.11225 0.14535 0.21399 0.19062 0.26525 0.64016-0.50817 0.64242-0.50659 0.03304-0.0169-0.0183-0.0664-0.07282-0.19648-0.12403-0.32147h1e-6c1.5898-0.82821 3.5021-1.8216 5.6676-2.9401-0.0046 3e-3 0.57926-0.32919 0.57467-0.32658 5.67e-4 -3.2e-4 0.1368-0.0778 0.13737-0.0781 0.09484-0.0539 0.19143-0.10999 0.28627-0.16391h2e-6c0.10167-0.0382 0.20654-0.0783 0.30821-0.11649-2.18e-4 9e-5 0.85124-0.3178 0.85102-0.31771l1e-6 -1e-5c1.5382-0.57453 2.7858-1.0421 3.7648-1.4102 0.08477 0.13532 0.14053 0.17157 0.14221 0.0735 6.09e-4 -0.0357-0.0061-0.0801-0.01906-0.13063-0.45724 0.17182-2.3614 0.88855-2.8186 1.0604zm10.233 12.035c-0.07362-0.12921-0.17066-0.26497-0.27374-0.37726-0.22388-0.24391-0.22539-0.14092 0.01541 0.28409 0.22173 0.39031 0.40013 0.58676 0.38771 0.42561-0.0064-0.0812-0.05599-0.20332-0.12944-0.33241zm-1.122-1.9672c-0.09211-0.1756-0.21574-0.3768-0.33799-0.53786-0.2538-0.33475-0.10626 0.0259 0.20018 0.61008 0.28017 0.53413 0.35788 0.5683 0.31298 0.35768-0.02222-0.10456-0.08214-0.25254-0.17517-0.4299zm10.035 15.646c-0.14288-0.14357-0.28781-0.27904-0.42728-0.40113-0.36294-0.31734-0.51025-0.42027-0.57114-0.45404 0.26881 0.46057 0.27873 0.48671 0.26312 0.49578-0.02113 0.0123-0.07291 5e-3 -0.35861-0.42232 0.01861 0.14542 0.43625 0.51314 1.1891 1.175 0.54486 0.48605 0.45463 0.39932 0.46216 0.346 5e-3 -0.038 0.29413 0.10917-0.31824-0.48969-0.075-0.0817-0.15544-0.16565-0.23914-0.24956l5e-5 -5e-5zm-26.671-58.507c-0.04345-0.3181-0.23981-0.67493-0.43652-0.78806-0.20994-0.12059-0.32586 0.0377-0.27933 0.38344 0.04357 0.32369 0.24057 0.67437 0.43771 0.78384 0.21042 0.11671 0.32453-0.0396 0.27814-0.37922zm1.335 7.2462c-0.15993-0.66558-0.33449-1.3733-0.46789-1.8986-0.23852-0.90591-0.41189-1.5695-0.50323-1.6415-0.08365-0.0659 5.14e-4 0.70083 0.21627 1.7061 0.40757 1.9537 1.2941 4.9457 1.4989 5.1737 0.08337 0.0928-0.28826-1.4423-0.74406-3.3396zm9.0998 27.277c0.0883 0.20533 0.11727 0.27087 0.12661 0.26937h1e-6c0.44953 0.82507 0.56493 1.1087 0.26452 0.84954-0.25997-0.22423-0.42297-0.38921-0.58543-0.66986-0.03305-0.0154 0.04063-0.0787-0.4028-1.2712-2e-3 -6e-3 -0.06142-0.19251-0.06341-0.19873-0.28034-0.88023-0.26318-0.9428 0.24801 0.11358 0.17529 0.36062 0.29702 0.63874 0.41251 0.90728zm-3.634-7.9449c-0.14128-0.37472-0.30255-0.76672-0.45312-1.0885-0.29928-0.63952-0.15749-0.16071 0.2726 0.98107 0.42462 1.1272 0.64504 1.5768 0.50932 1.0825-0.06793-0.24755-0.18871-0.6034-0.32888-0.97509zm-1.292-3.3221c-0.07101-0.17965-0.15422-0.34985-0.2341-0.47124-0.15718-0.23906-0.12555-0.0152 0.08927 0.52831 0.21946 0.55529 0.35701 0.76492 0.30214 0.46359-0.0276-0.15191-0.08633-0.34106-0.15731-0.52066zm18.86 35.018c-0.08312-0.13599-0.19253-0.28128-0.30766-0.4024-0.25658-0.26996-0.23646-0.14489 0.0379 0.30353 0.04955 0.0808 0.09671 0.15366 0.1403 0.21723 0.4111 0.62828 0.39274 0.5914 0.42124 0.48615 0.01362-0.0503-0.02551-0.17688-0.27624-0.57852-0.0051-9e-3 -0.01028-0.0173-0.01559-0.026zm-3.5558-5.0897c-0.2005-0.31057-0.40717-0.62098-0.58905-0.88319-0.06363-0.0911-0.12606-0.17984-0.18776-0.26555-0.312-0.43346-0.28219-0.32368 0.10623 0.31745 0.14424 0.23671 0.33262 0.53661 0.56632 0.8986 0.88115 1.3649 1.2073 1.7777 0.84825 1.145-0.19469-0.34293-0.46668-0.78279-0.74399-1.2123zm-23.827-70.523c0.0032 0.14928-0.01146 0.27844-0.04449 0.35132-0.06587 0.14512-0.12861-0.10452-0.13772-0.55911-0.0096-0.50594 0.03975-0.60244 0.12152-0.26592 0.03738 0.15393 0.05769 0.32448 0.06067 0.47371zm-0.94947 5.6904c-0.01734-0.19382-0.04928-0.38716-0.09182-0.53184-0.08319-0.28328-0.11648-0.0507-0.06312 0.54572 0.05334 0.59615 0.12745 0.81824 0.15898 0.52532 0.01607-0.14965 0.01329-0.34548-4e-3 -0.5392zm-0.44472-3.0498c-0.01831-0.31222-0.04952-0.64251-0.08989-0.9094l5.19e-4 -3e-5c-0.076-0.50243-0.11323-0.22805-0.05641 0.75796 0.05601 0.97192 0.1317 1.3669 0.15681 0.97108 0.01296-0.20744 0.0074-0.50702-0.01091-0.81962-4e-5 0-7.9e-5 0-1.19e-4 1e-5zm32.409 78.848c-0.22597-0.0339-0.0114 0.0679 0.66736 0.25448-0.0359 0.018-0.067 0.0412-0.0945 0.0667-0.0104 0.01-0.0194 0.0187-0.0268 0.0266-0.0118 0.0125-0.0233 0.0258-0.0284 0.032-5e-3 7e-3 -8e-3 0.0117-0.011 0.0151-3e-3 5e-3 -2e-3 7e-3 3e-3 6e-3 0.01-1e-3 0.0365-0.0125 0.0964-0.0243-0.32238-0.0838-0.55371-0.15457-0.65596-0.19742-0.23604-0.0989 0.23397-8e-3 0.87154 0.16836 0.9738 0.3975 0.92921 0.41986 0.84244 0.27911-0.0258-0.042-0.20835-0.15857-0.79634-0.41083-0.4293-0.12356-0.72749-0.19485-0.86762-0.21602zm-1.6185-1.2606c-0.27123-0.2022-0.55214-0.39152-0.78221-0.52836-0.47397-0.2819-0.20709-0.0341 0.56337 0.53676 0.12606 0.0934 0.25096 0.18525 0.35837 0.26373 0.28446 0.21624 0.50321 0.37573 0.64086 0.46815 0.13852 0.12195 0.50814 0.42833 0.0435-0.0502-6e-3 -6e-3 -0.0122-0.0117-0.0187-0.0178-0.14894-0.14071-0.35533-0.31747-0.587-0.50511-0.07093-0.056-0.14401-0.11201-0.21815-0.1673zm-30.945-94.931c0.01305-0.1492 0.01103-0.32052-0.0092-0.47795-0.04382-0.34192-0.10392-0.25687-0.14987 0.25078-0.0407 0.45522-0.0041 0.71078 0.07677 0.5732 0.04068-0.0693 0.06904-0.19675 0.0822-0.34604zm-0.14492 2.6252c0.0082-0.19576 0.0019-0.39288-0.02136-0.54269-0.04551-0.29391-0.10874-0.0654-0.13407 0.53612-0.02534 0.60178 0.01842 0.83434 0.08852 0.54485 0.0357-0.14754 0.05867-0.34253 0.06691-0.53828zm0.76744-9.4924c0.03625-0.23829 0.06193-0.4944 0.06623-0.71131 0.0084-0.43252-0.07655-0.20104-0.18765 0.52249s-0.11811 1.0795-0.01513 0.79121c0.05158-0.14436 0.09993-0.36411 0.13658-0.60239h-3e-5zm26.492 98.396c-3e-3 -5e-3 -6e-3 -9e-3 -9e-3 -0.0142-0.10906-0.17049-0.23019-0.33154-0.33782-0.44384-0.21985-0.2297-0.1204 0.0134 0.20662 0.52742 1e-5 2e-5 0.0087 0.0137 0.0087 0.0137 0.31825 0.50037 0.29541 0.53164 0.2767 0.43193-0.01048-0.0559 0.02846-0.038 0.07871-0.0213 0.04571 0.0152 0.02898-0.0962-0.2239-0.49376zm-6.9805-10.235c0.09967 0.16391 0.1863 0.33335 0.23618 0.46985 0.0091 0.0249 0.01605 0.0461 0.02088 0.0637 0.01539 0.0692-0.0032 0.0791-0.05151 0.0324-0.06649-0.0675-0.18478-0.23233-0.33845-0.48505-0.31243-0.51379-0.38021-0.73369-0.18287-0.51704 0.10234 0.11241 0.21608 0.2722 0.31577 0.43616zm-20.11-54.821c0.0499 0.34175 0.01387 0.54288-0.11434 0.5616-0.11869 0.0173-0.30359-0.61331-0.40727-1.3936-0.15962-1.2068-0.12598-1.2564 0.12354-0.57229 0.21256 0.58284 0.34794 1.061 0.39806 1.4043zm-0.59488-2.8904c0.03079 0.24966-0.05466 0.34977-0.1926 0.21771-0.13771-0.13195-0.26015-0.32648-0.27269-0.43152-0.0012-0.0103-0.0015-0.0206-8.47e-4 -0.0307 0.0058-0.0929 0.08738-0.17323 0.1948-0.18583 0.0655-8e-3 0.13172 0.0477 0.18316 0.14081 0.04205 0.0757 0.07427 0.17675 0.08817 0.28948 1e-6 1e-5 3e-6 2e-5 5e-6 4e-5zm1.3661 10.052c-0.07376-0.50789-0.15682-1.0218-0.23348-1.4072-0.12794-0.64326-0.13402-0.25931 0.11067 1.4251 0.25254 1.7385 0.35714 1.9632 0.30062 1.3862-0.03705-0.37826-0.10498-0.90263-0.1778-1.4041zm2.3521 10.57c-0.03798-0.14892-0.09732-0.31389-0.16991-0.45925-0.15964-0.3197-0.18327-0.20846-0.05628 0.29231 0.11518 0.45215 0.234 0.69023 0.2646 0.52937 0.01531-0.0805-6e-4 -0.21347-0.03848-0.36241zm-4.2135-24.979c0.0154 0.20016-0.0055 0.3754-0.06345 0.52009-0.11441 0.28542-0.214 0.0361-0.2724-0.74617-0.0765-1.0248-0.03775-1.0579 0.1818-0.44276 0.08704 0.24394 0.13865 0.46867 0.15405 0.66884zm-0.72221-9.6076c-0.0029 0.28168-0.01924 0.56202-0.04854 0.77392-0.05872 0.42396-0.10121 0.0786-0.09253-0.77536 0.0087-0.85182 0.05492-1.2158 0.10731-0.77939 0.0259 0.21595 0.03662 0.49848 0.03375 0.78083zm0.03835-4.4779c-0.0059 0.23864-0.02597 0.46194-0.05822 0.61009-0.06313 0.29002-0.10614-0.0474-0.08597-0.7798 0.02037-0.73965 0.07898-0.95319 0.12158-0.53862 0.02203 0.21396 0.029 0.46994 0.02266 0.70833zm1.0605 21.08c0.13251 0.96056 0.14221 1.6591 0.01897 1.5426-0.26982-0.25515-0.62486-3.2292-0.40012-3.2607 0.0817-0.0114 0.2486 0.7575 0.38111 1.7181zm-1.0847-8.2607c0.01814 0.27778 0.0236 0.55824 0.0115 0.7707-0.02338 0.40727-0.09573 0.10301-0.1522-0.7615-0.05646-0.86431-0.02454-1.1767 0.05176-0.77517 0.03982 0.20931 0.0708 0.48813 0.08894 0.76597zm30.979 77.859c-0.121-0.0927-0.26753-0.18424-0.41087-0.2523-0.30314-0.14397-0.28015-0.0559 0.13168 0.26224 0.36788 0.2835 0.60843 0.39389 0.53337 0.25034-0.03828-0.073-0.1332-0.16738-0.25423-0.26022zm-11.776-16.5c-0.10131-0.171-0.21477-0.33394-0.31633-0.44809-0.19812-0.22282-0.12928 1e-3 0.18247 0.52737 0.31187 0.52643 0.47858 0.70382 0.3766 0.41741-0.05189-0.14592-0.14136-0.32559-0.24274-0.49669zm9.5398 14.605c-0.15176-0.17209-0.29169-0.25644-0.35494-0.19667-0.08522 0.0805 0.04222 0.35082 0.29881 0.60764 0.25525 0.25549 0.49815 0.44258 0.53153 0.40919 0.03337-0.0334-0.11633-0.31669-0.32102-0.61934-0.05112-0.0756-0.1036-0.14335-0.1544-0.2008zm-29.226-92.712c-0.01941 0.35787-0.05039 0.71931-0.0885 0.98962-0.06979 0.49572-0.10652 0.14278-0.0447-0.99685 0.06188-1.1406 0.13665-1.4848 0.15238-0.98587 0.0085 0.27254 2.23e-4 0.63539-0.01918 0.9931zm4.1121 43.132c0.16567 0.60163 0.20801 1.1209 0.09237 1.153-0.11564 0.032-0.31396-0.31591-0.44001-0.77266-0.12617-0.45716-0.16635-0.97493-0.09001-1.1521 0.07866-0.18275 0.26695 0.15192 0.43766 0.77184zm13.354 32.719c0.13054 0.23177 0.09131 0.3571-0.07035 0.28881-0.16365-0.0692-0.16841 0.20463-0.01891 0.60778l4.6e-4 -2.4e-4c0.1834 0.49455-0.11439-0.0498-0.5008-0.71238-0.01877-0.0322-0.03796-0.0653-0.05754-0.0991-0.47035-0.81157-0.7049-1.2707-0.41884-0.90729 0.2653 0.33685 0.55876 0.57012 0.65458 0.51415 0.07885-0.0461 0.21811 0.0381 0.33717 0.19474 0.02616 0.0346 0.05117 0.0726 0.0742 0.11351zm-11.099-23.71c0.03611 0.14952 0.05044 0.28262 0.03459 0.36266-0.03222 0.16233-0.14967-0.08-0.25957-0.53411-0.1182-0.49068-0.10605-0.63053 0.05875-0.2934 0.07196 0.14723 0.13023 0.31509 0.16628 0.46483zm1.9306 5.4057c0.02943 0.0799 0.05149 0.15552 0.06418 0.22113 0.01037 0.0536 0.01448 0.10039 0.01126 0.13723-0.0087 0.0984-0.06312 0.0561-0.13992-0.0873-0.05147-0.0961-0.1134-0.23826-0.17873-0.41425-0.17807-0.48126-0.17328-0.60562 0.02418-0.298 0.08832 0.1376 0.16569 0.296 0.21909 0.44121zm0.63488 1.6606c0.05179 0.14518 0.07994 0.27629 0.07228 0.358-0.0154 0.16351-0.15641-0.063-0.31368-0.50374-0.17288-0.48611-0.16349-0.60593 0.02789-0.29839 0.08624 0.1386 0.16187 0.2989 0.21356 0.44411zm0.97128 2.4664c0.05809 0.13934 0.09549 0.26616 0.09405 0.34769-0.0027 0.14493-0.16296-0.0286-0.33792-0.47525 1e-6 1e-5 -0.0021-5e-3 -0.0021-5e-3 -0.19269-0.49469-0.16904-0.58612 0.02056-0.29739 0.04935 0.0752 0.09578 0.15663 0.13692 0.23844 0.03255 0.0646 0.06265 0.12961 0.08851 0.19176zm-4.7869-13.956c0.0526 0.19443 0.09028 0.39274 0.10056 0.54815 0.02082 0.31315-0.09206 0.079-0.25073-0.50753-0.15886-0.58723-0.1785-0.84503-0.03915-0.56461 0.06921 0.13935 0.13677 0.3297 0.18932 0.52399zm9.4702 24.264c0.36083 0.56654 0.57372 1.0805 0.47176 1.1437-0.21764 0.13501-0.39857-0.1534-0.81968-1.3206-0.27726-0.7684-0.22796-0.72601 0.34792 0.17687zm-10.137-25.062c0.08395 0.31088 0.15069 0.60902 0.17981 0.8211l-4.93e-4 1.4e-4c0.05826 0.42508-0.10077-3e-3 -0.35511-0.94325-0.01455-0.0538-0.02842-0.10566-0.04162-0.15555-0.21502-0.8126-0.25518-1.1127-0.06613-0.61429 0.06558 0.17252 0.1324 0.3729 0.19437 0.57933 0.03111 0.10366 0.06106 0.20877 0.08906 0.31255zm-0.70149-2.546c0.03827 0.14943 0.05422 0.28264 0.03901 0.36338-0.03049 0.16137-0.15012-0.0782-0.26634-0.53174-0.12808-0.50209-0.10573-0.61576 0.05551-0.29362 0.07305 0.14596 0.1337 0.31254 0.17187 0.46196zm1.3588 4.9314c0.07957 0.26988 0.14566 0.54354 0.17911 0.75624 0.06806 0.43409-0.07571 0.0932-0.3144-0.71635-0.02583-0.0876-0.04958-0.1698-0.07118-0.2462-0.05159-0.18245-0.09373-0.34303-0.11915-0.44968 0.04192-0.0562 0.07189-0.0964 0.10254-0.13832 0.01341-0.0134 0.02475-0.0247 0.03587-0.036-1e-3 -6e-3 0.0058-4e-3 0.01052-2e-3 0.01226 5e-3 0.02805 0.012 0.03816 0.0164 0.11919 0.0511 0.10078 0.0474 0.01456-5e-3h-1e-6c-9e-3 -5e-3 -0.01968-0.0121-0.03006-0.0188-0.0036-2e-3 -0.0092-5e-3 -0.01099-8e-3l4e-3 8e-3c-0.0065 9e-3 -0.01532 0.0213-0.02297 0.0322-0.0092 0.0194-0.0193 0.0412-0.0298 0.0645-0.0088 0.0195-0.01756 0.0395-0.02625 0.0599 0.05555 0.12663 0.11027 0.27522 0.16373 0.43752 0.02634 0.08 0.05194 0.16216 0.07633 0.24487zm0.91768 3.5038c0.05919 0.21396 0.12394 0.44327 0.19572 0.67592 0.47175 1.5255 1.0747 3.1892 1.051 3.4876-0.01009 0.12744-0.52947-0.98121-1.0797-2.5266-0.10417-0.29256-0.19853-0.57982-0.28252-0.86002-0.29576-0.99047-0.4378-2.0415-0.43554-2.2298 2.08e-4 -0.0414 0.0039-0.0718 0.01141-0.0899 0.01337-0.0325 0.03994-8e-3 0.07689 0.0644 0.12365 0.23845 0.25262 0.71888 0.46274 1.4785zm3.979 10.449c0.04205 0.0844 0.08226 0.16851 0.12022 0.25247 0.31723 0.70186 0.56372 1.3415 0.55202 1.5249-0.0088 0.13633-0.35346-0.47855-0.80872-1.4136-0.04718-0.0964-0.09676-0.19451-0.15019-0.29857-0.3579-0.69707-0.56291-1.086-0.70244-1.5097-0.07115-0.22114-0.07974-0.32293-0.0151-0.26475 0.04009 0.0361 0.09294 0.10774 0.15559 0.2067 0.1348 0.21579 0.6243 1.0526 0.84857 1.5026zm-1.9503-4.5988c0.09182 0.24125 0.0307 0.35888-0.13469 0.26092-0.16549-0.0981-0.33261-0.26097-0.37071-0.36055-0.0382-0.0998 0.02206-0.2164 0.13404-0.25948 0.11202-0.0431 0.27953 0.11783 0.37136 0.35909 2e-6 1e-5 5e-6 1e-5 7e-6 2e-5zm3.6105 8.6084c0.11681 0.27174 0.2439 0.60748 0.30765 0.79931 0.16879 0.50822-0.14028-0.0732-0.49796-0.89163-0.03304-0.0756-0.06257-0.14268-0.09181-0.20819-0.32318-0.7204-0.39098-0.96581-0.13508-0.52598 0.08195 0.14063 0.1685 0.30251 0.25316 0.47151 0.05734 0.11437 0.11194 0.234 0.16394 0.35502 3.1e-5 -1e-5 6.2e-5 -2e-5 9.3e-5 -4e-5zm7.6896 13.693c0.07534 0.12566 0.1484 0.25676 0.21345 0.38739 0.37291 0.74453 0.38309 0.82702-0.38134-0.2481-0.24164-0.33994-0.41179-0.60593-0.49673-0.76896-0.09693-0.18573-0.09135-0.25233 0.03007-0.17381 0.03255 0.0211 0.0693 0.0518 0.10909 0.0907 0.15175 0.14811 0.34575 0.4131 0.52544 0.71279zm11.459 16.547c-0.02323-0.0178-0.0458-0.035-0.06771-0.0515-0.49306-0.38196-0.68684-0.46645-0.53005-0.25226 0.06557 0.0895 0.21454 0.23587 0.40806 0.41491 0.10306 0.0959 0.22275 0.20179 0.35135 0.31159-0.0458-0.0179 0.06549 0.1407 0.44276 0.46979 0.4829 0.34783 0.71469 0.44997 0.61975 0.4082-0.32888-0.29997-0.35243-0.26052 0.20118 0.22102 0.62949 0.38304 0.71558 0.39988 0.32617 0.18453h2e-6c0.27926 0.28296 0.23556 0.20418-0.02664-0.0783h-1e-6 1e-6c0.01696 0.0184 6e-3 0.0313-8.81e-4 0.0352-0.01441 8e-3 -0.02835 0.0109-0.04153 0.0143h-1e-6c-0.0094 2e-3 -0.02149-6e-3 -0.02986 9e-3l-7.48e-4 2e-3c0.01006 0.0159 0.02954 0.0232 0.04546 0.0336 0.04487 0.0294 0.09112 0.0574 0.13287 0.0826 0.45124 0.27208 0.6703 0.36889 0.56336 0.25388-0.04071-0.0438-0.20681-0.16411-0.48725-0.36514-0.03784-0.0271-0.08147-0.0581-0.12266-0.0894-0.01459-0.0112-0.03279-0.0192-0.04155-0.0358 0.01117-0.0177 0.02514-0.0102 0.03667-0.0136 0.01603-5e-3 0.03331-9e-3 0.05084-0.0179 0.0084-4e-3 0.02094-0.0177 0.0055-0.0366 0.19052 0.19956 0.32314 0.36362 0.02 0.051h1e-6c0.37012 0.19609 0.24329 0.14968-0.30731-0.1925h-1e-6c-0.67851-0.60103-0.29903-0.32977-0.1955-0.23675 0.06621 0.0136-0.14385-0.0803-0.60608-0.41787-0.09884-0.0865-0.17976-0.16237-0.24403-0.22642-0.15978-0.1592-0.2066-0.2328-0.18836-0.23004-0.11473-0.0926-0.21969-0.17522-0.31382-0.24734zm-33.2-64.619c0.33416 2.3694 0.5433 3.6128 0.8583 5.3654 0.10834 0.59454 0.17992 1.019 0.19001 1.2116 0.01247 0.23843-0.13944-0.18942-0.38836-1.1669-0.27585-1.1062-0.5737-2.5736-0.85591-4.4694-0.36397-2.4446-0.63027-5.1534-0.67909-5.8346-0.02282-0.31063-0.02609-0.48569-0.0038-0.489 0.02784-4e-3 0.07707 0.16768 0.13966 0.46991 0.20796 1.0128 0.41904 2.6414 0.73918 4.913zm-1.579-9.83c0.11922 1.145 0.05612 1.2306-0.22697-0.28561-0.35001-1.8761-0.77369-4.9775-1.0147-8.817-0.03681-0.58646-0.07019-1.1666-0.10068-1.741-0.11426-2.2766-0.10243-4.1982-0.14296-5.4234-0.02292-0.73261-0.03678-1.2526-0.04856-1.519-0.04122-0.93253 0.0166-1.3946 0.1253-1.1454 0.04068 0.0936 0.08285 1.1276 0.15573 2.6644 0.06842 1.3552 0.08409 3.2493 0.21776 5.414 0.34316 5.2588 0.67408 7.6345 1.0012 10.544 0.01303 0.11468 0.02436 0.21739 0.03386 0.30861zm4.0323 21.91c0.09699 0.35066 0.18132 0.70262 0.2294 0.97363 0.09611 0.54172-0.0638 0.1256-0.358-0.93806-0.29752-1.0757-0.36982-1.5083-0.17597-0.99477 0.09835 0.26053 0.2078 0.60934 0.30456 0.9592zm1.0411 3.7958c0.0369 0.14781 0.0514 0.27915 0.0353 0.3586-0.03234 0.15921-0.14839-0.0764-0.26071-0.52468-0.12384-0.4965-0.10195-0.61179 0.05751-0.29094 0.07212 0.14512 0.13116 0.3092 0.16796 0.45701zm18.632 38.712c-0.11376-0.18035-0.23054-0.33972-0.33315-0.44581-0.2005-0.20744-0.1296 3e-3 0.20194 0.52848 0.04963 0.0787 0.09704 0.15156 0.14176 0.21807 0.24823 0.36816 0.36297 0.46437 0.26332 0.21348-0.035-0.0881-0.08394-0.18797-0.14119-0.29124-0.04204-0.075-0.08698-0.1505-0.13269-0.22298zm-5.2748-8.2415c0.026 0.0437 0.05227 0.0883 0.07868 0.13329 0.27667 0.46524 0.49887 0.90117 0.57216 1.1784 0.0696 0.26325 0.35693 0.92065 0.62888 1.4547 0.01158 0.0227 0.02305 0.0454 0.03442 0.0681 0.24496 0.49237 0.47346 1.0228 0.48486 1.135 0.0064 0.0627-0.27584-0.3649-0.68312-1.0166-0.34009-0.54181-0.95086-1.5262-1.5236-2.5474-0.03176-0.057-0.06271-0.11308-0.09291-0.16828-0.36651-0.66985-0.56566-1.0909-0.70854-1.3463-0.73916-1.3332-1.1454-2.0707-0.88471-1.8466 0.26664 0.22935 0.56579 0.64985 0.66795 0.93797 0.08299 0.23408 0.27927 0.54657 0.46965 0.76265 0.03326 0.0312 0.06818 0.0618 0.10316 0.0889 0.23477 0.1818 0.49988 0.5719 0.853 1.1661zm-11.056-22.352c0.34667 0.90937 0.6828 1.7595 0.93275 2.4438 0.3449 0.95424 0.59111 1.7187 0.58171 1.8295-0.0077 0.0902-0.32441-0.66226-0.77026-1.7564-0.2323-0.56386-0.64279-1.5526-0.98732-2.4506-0.29983-0.7815-0.5565-1.5089-0.77923-2.2208-0.37429-1.2292-0.55604-2.2584-0.56444-2.3153-0.02422-0.13376-0.02608-0.19389-0.0024-0.16796 0.01621 0.0178 0.04108 0.0683 0.07344 0.1474 0.11004 0.24563 0.27278 0.92573 0.70993 2.2657 0.25412 0.75146 0.51591 1.4641 0.80586 2.2248zm8.2662 17.97c0.0745 0.14493 0.05594 0.19894-0.05625 0.15922-0.18771-0.0663-0.61619-0.56065-0.95755-1.1134-0.80102-1.297-0.51806-1.0501 0.51049 0.24443 0.26114 0.32867 0.42841 0.56403 0.5033 0.70972 2e-6 0 4e-6 -1e-5 7e-6 -2e-5zm-16.871-73.222c-0.05353 1.1032-0.09066 1.7746-0.12976 1.7736-0.08608-2e-3 -0.13684-2.2296 0.02053-4.9697 0.05007-0.87169 0.11546-1.8916 0.20788-3.0299 0.1253-1.3681 0.33751-2.5732 0.45556-3.4939 0.12482-0.97182 0.3454-2.7223 0.47022-3.6941 0.35103-2.7485 0.67435-4.4434 0.79645-4.7936 0.13291-0.38125 0.0075 0.72415-0.31528 3.3142-0.14097 1.1311-0.46893 3.7678-0.65624 5.2172-0.12014 0.93017-0.33233 2.1081-0.46086 3.478-0.21355 2.5265-0.31336 4.6516-0.38846 6.1982zm20.678 83.854c0.25851 0.39442 0.46781 0.71828 0.59187 0.94144l-4.23e-4 3.1e-4c0.09492 0.17073 0.07862 0.35344-0.8402-1.0715-0.01158-0.018-0.02307-0.0358-0.03448-0.0537-0.63741-1.0213-0.63684-1.1494-0.3544-0.7629 0.14219 0.19432 0.30576 0.43708 0.46951 0.69052-0.01702-0.0259 0.18504 0.28171 0.16803 0.25584zm12.23 16.098c-0.0161-6e-3 -0.03262-0.0121-0.0493-0.0173-0.18276-0.13098-0.39084-0.2677-0.57082-0.37491-0.4749-0.283-0.12694 9e-3 0.49241 0.47946 0.01404 6e-3 0.02896 0.0112 0.04477 0.0169 0.0237 9e-3 0.04616 0.0161 0.06722 0.0226-0.14466-0.12872-0.47276-0.3767 0.73252 0.66878 2.3075 1.5256 2.0343 1.2727 0.65166 0.33286-0.15371-0.10448-0.35596-0.2421-0.59605-0.40688-0.68807-0.61482-1.4068-1.3035-0.70481-0.69082-0.02112-0.0111-0.04391-0.0215-0.06759-0.0307z"/>
  </g>
 </g>
</svg>
