<?xml version="1.0" encoding="UTF-8"?>
<!-- Created with Inkscape (http://www.inkscape.org/) -->
<svg width="325mm" height="116.41mm" version="1.1" viewBox="0 0 325 116.41" xmlns="http://www.w3.org/2000/svg">
 <g transform="translate(212.41 -17.212)">
  <path class="UnoptimicedTransforms" transform="translate(-218.92 -35.915)" d="m214.61 90.839c2.2971-0.39412 3.7107-0.7236 3.3943-0.76016-0.0584-0.0068 0.56626-0.13669 1.7023-0.34498 0.0969-0.01772 1.05-0.18784 2.1115-0.35143 3.825-0.57046 12.188-1.434 21.845-2.4105 2.5443-0.2325 5.0699-0.60665 7.6142-0.83915 4.1336-0.30553 8.1058-0.54936 11.812-0.77517 1.7e-4 -1e-5 0.083-0.0049 0.0832-0.0049 4.8172-0.28396 8.5829-0.54804 12.631-0.66036 0.66965-0.0192 1.3373-0.0332 2.0007-0.04299 2.101-0.03411 4.2141-0.03521 6.27-0.02456 1.7028-0.0196 3.6432 0.06935 5.476 0.13582 2.2369 0.09485 4.1341 0.08476 5.7731 0.1776 1.1708 0.08328 2.3203 0.18351 3.3729 0.28264 2.0511 0.1941 4.5311 0.47141 6.0749 0.63857 3.348 0.33502 6.3631 0.83265 8.862 1.319 1.6773 0.33563 3.9951 0.76518 5.9873 1.2796 0.88845 0.2272 1.6372 0.44426 2.2897 0.6528 1.1822 0.37858 2.1772 0.72667 2.7286 0.9373 1.1818 0.44298 2.3935 0.94836 3.6824 1.4848 1.3916 0.5854 2.703 1.2483 3.9136 1.8915 0.12718 0.06707 0.25059 0.13277 0.3698 0.19674 1.3008 0.72368 3.6006 2.2973 3.6592 2.336 0.51699 0.34565 0.88363 0.59443 1.4613 0.98819 0.28394 0.19354 0.56598 0.38369 0.84685 0.57025 0.14393 0.09976 0.28016 0.19277 0.41123 0.27604 0.0254 0.0161 0.0504 0.03195 0.076 0.04656 8e-3 0.0044 0.0147 0.01286 0.0246 0.01165 4e-4 -0.0096-7e-3 -0.01651-0.0118-0.02371-5e-3 -0.0076-0.0101-0.01479-0.0139-0.02311v-1e-6c7e-3 0.0028 0.0117 0.0067 0.0177 0.01084 0.0174 0.01182 0.0346 0.02365 0.0515 0.0353 0.1146 0.08643 0.22618 0.17032 0.33516 0.25136 0.53413 0.37747 1.0659 0.7506 1.5944 1.1193-0.0165-0.8883-0.0322-1.7761-0.0463-2.6632-0.0309-0.18168-0.0685-0.37016-0.11409-0.56605v-1e-6c2e-3 -0.02891 4e-3 -0.05807 5e-3 -0.08732 4.5e-4 -0.01016 2e-3 -0.02013 2e-3 -0.02933l-2.1e-4 2.77e-4c0.011 0.0016 0.0236 0.0019 0.0354 0.0028 0.0108 0.0012 0.025 2e-3 0.0315 0.0049-3e-3 -0.0057-2e-3 -0.0217-2e-3 -0.03365-1e-3 -0.03834-2e-3 -0.07813-3e-3 -0.11839-6e-3 -0.20858-0.025-0.43312-0.0616-0.67386-0.0232-1.2466-0.0435-2.5056-0.094-3.7917v-1e-6c0.0206-0.74753-7e-3 -1.546-0.12771-2.4135-0.27421-1.0947-0.71852-2.3147-1.4289-3.6926-0.71511-2.108-1.652-4.2572-2.9214-6.4413-0.36815-1.0777-0.77256-2.1779-1.2349-3.3062-0.66338-0.57249-1.192-0.97292-1.7301-1.2902-1.0741-0.39717-1.4941-0.55384-2.5682-0.95101-1.0223-0.39099-1.9932-0.7349-2.9118-1.0402-0.25093-0.07762-0.51221-0.15711-0.78382-0.238-1.4344-0.41385-3.8348-1.1392-6.8635-1.6303-0.70222-0.14561-1.4701-0.29701-2.2982-0.44858-2.5161-0.4551-4.5705-0.68577-5.8697-0.85077-0.79749-0.10341-1.5869-0.19893-2.3664-0.28672-3.0196-0.24187-6.1292-0.59331-10.004-0.92274-2.4743-0.26345-4.613-0.31236-6.7384-0.29632-0.86549-0.0053-1.7587-0.02398-2.8079-0.04554-1.012-0.02089-2.1345-0.04489-3.293-0.05454-2.8891 0.03555-5.9756 0.09751-9.1285 0.22582-2.6794 0.11131-5.2764 0.27928-7.8596 0.45478-1.9502 0.13492-3.8414 0.28084-5.815 0.43134 713.74-53.286-718.48 53.64-4.7341 0.35393-2.4794 0.18662-4.9628 0.37796-7.4658 0.58332-2.9301 0.21997-5.6677 0.62249-8.197 0.91775-8.9851 1.0071-14.862 1.4689-22.574 2.5772-3.0719 0.43968-6.291 1.0631-8.6886 1.5185-4e-3 8.6e-4 -0.28074 0.05315-0.28478 0.05395-0.79444 0.15024-1.7047 0.31933-2.641 0.4834-3.5433 0.61921-8.0352 1.301-12.802 2.1639-1.501 0.27173-2.9588 0.5415-4.4996 0.82573-4.2255 0.78521-7.5711 1.3928-11.727 2.0842-3.3214 0.55304-7.2493 1.2608-11.964 2.2622v1e-6c-3.124 0.66265-6.3329 1.3991-9.6359 2.1874-1.4141 0.33724-2.847 0.674-4.1724 0.9842-3.0148 0.70634-5.7212 1.3373-8.5374 2.0185-0.87703 0.2126-1.7489 0.42723-2.6168 0.64536-5.1908 1.3036-10.452 2.8325-15.43 4.2582-5.6728 1.6254-11.486 3.2071-17.159 4.8325-4.7193 1.3532-9.0357 2.6101-13.315 4.0216-1.3992 0.46943-3.0262 0.97299-4.7851 1.5447-1.6462 0.53375-3.3615 1.1158-5.173 1.7836-3.7659 1.3752-7.4957 2.8691-11.123 4.352-0.23094 0.0942-0.45944 0.18771-0.6852 0.28041-3.6803 1.513-5.9299 2.5272-8.4453 3.7214-0.22766 0.10807-0.44897 0.21303-0.66708 0.31601-2.6645 1.2875-5.918 2.8557-8.8654 4.1616h-1e-6c-1.5066 0.66843-2.998 1.3519-4.4765 2.1149-1.9027 0.98128-3.8264 2.074-5.5471 3.0383-1.3241 0.74542-2.581 1.4752-3.7801 2.1991-1.9879 1.1861-3.5072 2.213-4.4493 2.8158-0.47863 0.30718-0.94881 0.61023-1.4122 0.91024-2.0049 1.2797-3.9963 2.4695-5.7604 3.4978-1.0374 0.60337-2.0371 1.179-3.1469 1.833-0.61136 0.36618-1.2049 0.72922-1.7793 1.0886-1.2305 0.76986-2.3353 1.4959-3.3445 2.1871-1.8153 1.2339-2.9876 2.161-3.2822 2.3835h1e-6c-0.38263 0.32441-0.95624 0.72833-0.94543 0.75168 0.0061 0.017 0.51815-0.27709 0.92899-0.55117 0.10277-0.0663 0.2213-0.14498 0.36508-0.24233 1.0137-0.68622 1.9887-1.3613 2.8968-1.9339 1.3108-0.81976 0.94117-0.52797-0.01361 0.15652-1.0897 0.77103-2.118 1.5581-3.281 2.4339-0.33359 0.27628-0.874 0.63951-2.0439 1.4973-0.20337 0.1491-0.42019 0.30957-0.6495 0.48164-0.10369 0.0772-0.21006 0.15674-0.31906 0.23874-2.8557 2.0579-4.2954 3.4507-4.4853 3.6541-0.11186 0.0908-0.22672 0.18366-0.34466 0.27869 0.10398-0.0706 0.24026-0.16299 0.34424-0.23359 0.16666-0.0592 1.291-1.0163 3.3544-2.4696 0.27949-0.19686 0.65761-0.46209 1.0944-0.76077 0.21654-0.15111 0.44046-0.30431 0.66653-0.45695 0.91369-0.62258 1.8491-1.2182 2.333-1.5554l2e-5 -1e-5c0.64231-0.43146 1.6701-1.1972 3.2607-2.2535 1.9741-1.3107 4.0175-2.5587 6.1343-3.7825 1.0169-0.57977 1.0586-0.60187 2.0755-1.1816 0.40514-0.23166 0.80971-0.46508 1.2129-0.70002 2.1253-1.2384 3.9497-2.346 5.621-3.4079 0.19179-0.12304 0.38052-0.24382 0.56594-0.36221 1.7034-1.0802 3.1522-2.0278 4.4626-2.789 0.58163-0.33887 0.86392-0.48876 0.80379-0.43577-0.04978 0.0438-0.32394 0.22227-0.79962 0.52892-0.21943 0.13905-3.7907 2.5121-4.4567 2.959 0.0063-4e-3 -0.41739 0.27951-0.41109 0.27529-2.0426 1.3586-4.3373 2.7853-7.0497 4.3816-0.20953 0.12311-1.0669 0.6253-1.2765 0.7484 0.01194-7e-3 -0.47727 0.28014-0.46533 0.27315-2.1855 1.3007-4.3525 2.6702-6.466 4.148-1.5485 1.0773-2.6901 1.9813-3.2668 2.4197-0.39427 0.31944-1.0041 0.76532-1.6445 1.2451-0.45425 0.33789-0.92618 0.69288-1.381 1.0519-1.9461 1.454-2.7449 2.2832-2.8987 2.4748-0.31414 0.39133-1.1475 1.2527-1.4767 1.6175-0.61211 0.55126-1.3573 1.1748-2.205 1.8606-0.30134 0.24374-0.60189 0.49075-0.89782 0.73743-1.2207 1.1654-2.1191 2.0648-2.6931 2.5901-0.51676 0.50368-0.89181 0.89096-1.0406 1.0788-0.027748 0.035 0.42173-0.30966 1.2322-0.95325h3e-7c0.70773-0.51067 1.3933-1.1111 2.8961-2.4317 0.80348-0.60422 1.7369-1.3058 2.7119-2.0349 0.49791-0.36341 1.8034-1.5804 4.2686-3.3175 1.05-0.76755 1.9295-1.35 2.5748-1.7936 0.16627-0.11507 0.31799-0.22135 0.45497-0.3202 0.81264-0.5732 1.8937-1.3943 3.248-2.3243 2.0687-1.4211 4.0472-2.661 5.9077-3.7865 0.62297-0.37683 1.233-0.73863 1.8246-1.0849 0.02182-0.0127 0.35688-0.20709 0.37869-0.21976 2.9326-1.701 5.3972-3.167 7.774-4.6624 0.22136-0.1383 0.44762-0.28185 0.67747-0.42935 1.2304-0.79118 2.4821-1.5994 3.7937-2.37 3.5742-2.1026 5.3508-2.8695 5.0636-2.5799-0.26003 0.26223-1.0716 0.75395-1.792 1.092-0.72833 0.34171-1.5874 0.91051-1.93 1.2723-0.13777 0.14566-0.60843 0.48316-1.2942 0.95113-0.85665 0.57661-2.1791 1.4761-3.2899 2.2236-0.21894 0.14745-0.43042 0.28767-0.62916 0.41677-0.19182 0.12461-0.37375 0.24238-0.54992 0.3558-2.0688 1.3354-3.6482 2.3854-3.6518 2.5336-0.0038 0.15893-0.88153 0.79086-1.9482 1.3891-0.54272 0.30437-1.118 0.62927-1.6951 0.95693-0.22402 0.12775-0.45256 0.25886-0.68494 0.39299-2.8997 1.6753-5.619 3.4148-8.0283 5.1961h1e-6c-1.2244 0.90097-2.0505 1.5813-2.4514 1.9475-0.22407 0.20407-0.33336 0.32564-0.33375 0.3645-7.01e-4 0.0705 0.15414-1e-3 0.50224-0.22856 0.43163-0.28312 1.1589-0.80629 2.2653-1.5726 1.1592-0.80197 2.5304-1.733 4.2711-2.8553 1.2919-0.8329 2.5581-1.6042 3.7233-2.2921 0.36504-0.21541 0.7172-0.4218 1.0599-0.62103h1e-6c1.7668-1.0241 3.2477-1.8751 3.7136-2.1057 0.74116-0.36698-0.68964 0.62666-3.5131 2.3112 0.04777-0.0286-0.47834 0.28605-0.43057 0.2575-0.29103 0.17415-0.57862 0.34802-0.86131 0.52056-2.7739 1.6925-5.0819 3.3256-5.4417 3.746-0.47054 0.54989-0.80202 0.77546-1.2453 0.83849-0.20575 0.0293-0.70026 0.26869-1.2887 0.62433-0.39506 0.24152-0.8039 0.51663-1.1855 0.79831-0.31699 0.23397-0.57124 0.43284-0.76383 0.59508-0.52368 0.43977-0.60017 0.6138-0.30753 0.56928 0.20128-0.0305-0.19272 0.27745-0.97981 0.70304-0.37459 0.19888-0.74389 0.37318-1.3419 0.66091-0.65077 0.31306-1.2062 0.61272-1.7154 0.92002-1.56 0.93111-1.8216 1.2459-1.5114 1.2314 0.22287-0.0104 0.12617 0.16808-0.35812 0.6492-0.25469 0.25303-1.56 1.4864-2.2352 2.0581-0.20356 0.16878-0.41843 0.34491-0.65304 0.53563-0.03125 0.0283-0.39776 0.36063-0.429 0.38891-0.79858 0.72466-1.6136 1.4732-2.2827 2.0276-0.68839 0.60348-1.3917 1.2303-2.1141 1.8964 0.74263-0.65716 1.4633-1.2714 2.168-1.8611 0.79184-0.62317 1.8159-1.5318 2.7779-2.3654 0.0988-0.0763 0.19707-0.15234 0.29483-0.22818 0.32541-0.25251-0.08273 0.0642 0.24268-0.18832 1.1718-0.90994 2.6947-2.2227 4.0594-3.1192 1.1167-0.76518 1.7293-1.0599 1.8277-1.0362 0.11862 0.0286-0.25295 0.38282-1.2933 1.2429-1.0249 0.84736-0.15272 0.25603 1.2021-0.69038 0.41873-0.2925 0.92322-0.63531 1.3419-0.92782 0.86449-0.60092 1.6555-1.1635 2.3494-1.6257 0.16357-0.1093 0.3116-0.20587 0.43926-0.28602 0.14385-0.0903 0.28933-0.18108 0.43347-0.27073 0.83907-0.51872 0.98318-0.62894 0.0027-0.20193-0.1562 0.0698-0.33237 0.1505-0.53592 0.24519-0.24928 0.11596-0.45506 0.21074-0.62272 0.28496-0.63354 0.27876-0.69416 0.24716-0.18863-0.1522 0.13542-0.10728 0.31214-0.24117 0.52756-0.40003 0.26964-0.19886 0.55348-0.39153 0.8298-0.56444 0.53077-0.32958 0.9934-0.55971 1.1815-0.58706 0.27409-0.0399 1.2117-0.54098 2.0539-1.0796 1.6161-1.0334 3.1969-1.9766 4.6385-2.8089 0.83999-0.48456 1.641-0.9409 2.4155-1.3755 3.7956-2.1351 3.0939-1.7493 5.9353-3.3579 1.3543-0.76302 2.1839-1.2435 2.317-1.2243 0.18012 0.026-0.43753 0.58856-2.2841 1.8204-0.91763 0.61209-2.0911 1.3632-3.6095 2.2988-0.57328 0.35321-1.2054 0.73841-1.7598 1.0767-5.5161 3.3518-2.7259 1.7838-0.82916 0.74978 0.26476-0.14434 0.60003-0.33317 1.0082-0.56634 1.1389-0.65435 3.1143-1.8278 5.2128-3.1584 1.1531-0.73088 2.2064-1.4404 3.3994-2.2454 0.37694-0.25114 0.77409-0.51158 1.195-0.7808 1.3999-0.89582 2.8161-1.7625 4.2574-2.6199 1.3339-0.79338 2.5894-1.5124 3.6796-2.1251h2e-6c2.53-1.4394 3.8585-2.1742 5.2416-2.8504 1.7859-0.86647 2.645-1.1796 2.6541-1.0787 0.0093 0.10286-0.86796 0.56753-2.4255 1.3984-1.2082 0.64703-2.889 1.5988-5.1803 2.8984 8.57e-4 -4.8e-4 -0.13151 0.0736-0.13066 0.0731-3.8275 2.1432-6.4217 3.7472-8.0427 4.8075-0.3048 0.1994-0.52641 0.34967-0.61516 0.41193-0.0596 0.0418-0.16663 0.11772-0.30517 0.21625-0.68769 0.49456-1.9369 1.3831-3.6897 2.5567-1.1067 0.74101-2.2599 1.4966-3.5157 2.3078-0.4016 0.25944-0.7974 0.51421-1.1784 0.75899-1.4348 0.91594-2.7672 1.7888-3.8848 2.5294-3.1867 2.112-5.6979 4.0038-6.7394 4.8205-0.43552 0.34144-0.77072 0.61502-1.0121 0.82588-0.50083 0.43911-0.61235 0.59913-0.48014 0.57593 0.03804-7e-3 0.20479-0.1127 0.48352-0.29807 0.1808-0.12062 0.64356-0.43782 1.2897-0.87704 1.8897-1.2845 3.7874-2.5311 6.4274-4.1733 1.4329-0.89163 2.9563-1.8334 4.523-2.7812 1.3252-0.80959 2.7344-1.6805 4.1528-2.5843 1.4977-0.95531 2.9862-1.9647 4.3541-2.881 0.11026-0.0725 0.21938-0.14373 0.32729-0.21367 1.1721-0.75856 2.325-1.4742 3.4296-2.1434 3.0447-1.8447 3.4346-2.0803 2.6009-1.6796-0.92023 0.44217-2.7679 1.4474-4.4812 2.4914-0.5335 0.32506-1.0637 0.65378-1.5903 0.98679-0.16835 0.10652-0.33698 0.21448-0.50592 0.32374-0.97256 0.64078-1.943 1.2867-2.9457 1.9362 0.97832-0.67298 1.9271-1.3429 2.8776-2.009 0.18641-0.12874 0.37265-0.25601 0.55878-0.38165 0.85155-0.57373 1.7129-1.136 2.5831-1.6896 0.83154-0.52898 2.9006-1.7222 5.9133-3.398 1.4298-0.8075 3.4858-1.9899 5.1744-2.8541 1.1865-0.60318 2.4063-1.1687 3.9069-1.8646 2.0482-0.97071 3.8645-1.8797 6.001-2.9358 1.1228-0.55579 2.1932-1.0874 3.205-1.5755 1.9404-0.93721 3.9885-1.8349 6.5506-2.8869 0.25606-0.10511 1.1185-0.45811 1.3746-0.56323 3.1891-1.2951 6.445-2.6048 9.6482-3.8073 2.2101-0.829 4.4607-1.6089 6.7069-2.3481 1.0805-0.36001 2.9797-0.98039 4.0602-1.3404 4.4095-1.4634 9.1065-2.8185 13.354-4.0429 5.4849-1.5738 11.551-3.2288 17.036-4.8026 5.8632-1.6766 10.307-2.9668 15.041-4.1494 1.2525-0.31432 2.4977-0.6157 3.7078-0.90256 2.791-0.66181 6.3824-1.4805 7.6616-1.7692-15.012 3.3877 18.773-4.2372 3.7606-0.84948 4.3321-0.98643 7.7738-1.7005 9.8978-2.0876 0.28905-0.05269 0.65882-0.123 1.1053-0.20886 2.0187-0.38803 5.5191-1.0724 10.107-1.8426 1.6656-0.27729 3.314-0.56292 4.7213-0.81362 4.6787-0.83341 6.9622-1.2475 9.0684-1.579 1.3998-0.22056 1.9156-0.26502 1.4959-0.13307-0.82076 0.25788-1.1465 0.50723-0.72219 0.55267 0.25786 0.02762 0.065 0.12535-0.50957 0.28067-1.725 0.46511-7.2162 1.5372-13.934 2.6063h-1e-5c-1.4715 0.23582-3.0237 0.49182-4.6768 0.77445-0.49621 0.08497-0.62902 0.0038-0.28524-0.18402 0.35943-0.19629-1.0356-0.03136-3.6167 0.50974-0.57229 0.11996-1.0664 0.22629-1.4723 0.31566-2.4574 0.54099-1.8516 0.46023 0.0637 0.17671 6e-5 -1.2e-5 0.0212-3e-3 0.0212-3e-3 2.0975-0.30987 1.9196-0.23763 0.0423 0.17916-1.8616 0.41335-0.12159 0.02693-1.9832 0.44028-2.9149 0.65172-4.581 0.97925-4.19 0.74418 0.33365-0.20042-0.17207-0.18586-1.1343 0.04042-0.96063 0.22589-1.71 0.5069-1.6643 0.61967 0.0323 0.07957-0.83234 0.36222-2.119 0.7124-0.55892 0.15075-1.1898 0.31121-1.8605 0.47167-2.2725 0.54366-3.8377 0.81858-3.5166 0.62734 0.32201-0.19158-0.0257-0.2741-0.76545-0.18479-0.74067 0.08941-1.718 0.38802-2.1809 0.66555-0.31023 0.18601-1.4605 0.54487-2.9419 0.96042v1e-6c-1.1407 0.32007-2.5498 0.69366-3.8248 1.0253-2.496 0.64626-4.9255 1.2593-5.5271 1.2605-0.5786 0.0011-0.86679 0.07926-0.82657 0.22072 0.0191 0.06705-2.7198 0.9393-8.6253 2.6801-4.2257 1.2477-9.9521 2.8212-17.004 4.8495-3.8567 1.115-8.8408 2.5477-13.354 4.0502-1.0519 0.34914-1.9568 0.64658-3.0087 0.99573-0.31707 0.10529-0.63227 0.21031-0.94608 0.31544h-1e-6c-2.3437 0.77431-4.6796 1.5905-6.9234 2.4366-3.0766 1.1631-6.211 2.4283-9.3277 3.6988-2.0908 0.86083 0.41116-0.16919-1.6797 0.69164-2.2524 0.93073-4.2773 1.8172-6.1573 2.7309-1.1372 0.55162-2.3144 1.1447-3.579 1.7784-1.7902 0.89313-3.6522 1.8193-5.5797 2.7321-1.3894 0.64128-2.6488 1.2172-3.8287 1.8116-1.6243 0.82538-3.3865 1.8455-5.1096 2.8357-3.5646 2.0131-6.434 3.734-8.9619 5.4018-4e-3 3e-3 -0.1938 0.13062-0.19779 0.13331-1.5736 1.0637-3.16 2.1633-4.7273 3.1917-1.2092 0.79294-2.4252 1.5763-3.4571 2.2399-2.1402 1.3605-4.0402 2.631-5.3253 3.5096-1.6361 1.1193-2.6099 1.8516-2.8324 2.0706-0.14546 0.14321 0.8889-0.52397 2.8279-1.7438 1.3569-0.85448 3.4966-2.2054 5.6433-3.5152 0.97627-0.60401 2.0662-1.2836 3.1814-1.9934l1.5e-5 -1e-5c1.0476-0.66849 2.0289-1.317 3.038-1.9884 0.61719-0.4107 1.1652-0.7768 1.712-1.1381 0.17687-0.11654 0.35284-0.23277 0.528-0.34878 3.5823-2.3132 7.0106-4.2503 8.9419-5.3491h1e-6c1.7027-0.98658 2.4931-1.4649 1.6733-1.0724-2.2225 1.0638-0.38863-0.13514 3.2487-1.9775 0.08175-0.041 0.16506-0.0825 0.25006-0.12453 1.2006-0.5934 2.5512-1.1951 3.5776-1.6461 1.681-0.76314 2.7337-1.2336 2.7426-1.1784 4e-3 0.0266 1.0259-0.44383 2.7721-1.2822 1.2012-0.58041 2.8736-1.3905 3.7663-1.8138 1.4073-0.66783 3.0117-1.3871 5.987-2.5931 0.57605-0.23339 1.2667-0.51194 1.8428-0.74533 2.8559-1.1444 6.0604-2.4254 9.1679-3.5935 1.104-0.41347 2.2433-0.82565 3.4103-1.2351 1.2237-0.42928 2.4409-0.84185 3.6405-1.2368 1.2568-0.42005 2.5819-0.85354 3.896-1.2868h2e-5c4.579-1.5152 9.6401-2.959 13.363-4.0221 5.2405-1.4882 10.16-2.8054 10.497-2.8885 1.8871-0.46575 2.6026-0.72105 2.0595-0.72564-0.55893-5e-3 0.20317-0.26148 2.2031-0.75914 1.133-0.28193 1.8633-0.4885 2.1933-0.61713 0.26095-0.10194 0.26719-0.15463 0.0219-0.15775-0.0249-3.1e-4 -0.0468-9.9e-4 -0.0657-2e-3h-1e-5c-0.12454-6e-3 -0.12331-0.0276-0.0164-0.06 0.17878-0.0541 0.65988-0.13862 1.3411-0.23042 1.7641-0.23772 4.4434-1.0391 10.855-2.7958 1.0354-0.28369 1.9809-0.5325 2.8488-0.75167 1.5865-0.40267 2.9748-0.72541 3.9629-0.93904 1.2767-0.27643 1.9978-0.39825 2.0196-0.33979 0.0443 0.11619 0.84441 0.02819 1.7889-0.19619 0.94438-0.22435 1.6874-0.50143 1.6433-0.6146-0.044-0.11321 0.46725-0.33549 1.1387-0.49484 0.6716-0.15935 0.9383-0.12171 0.59018 0.08475-0.34793 0.20624-0.11403 0.252 0.52339 0.1005 0.63767-0.15157 1.4464-0.44552 1.7963-0.65328 0.28442-0.16872 0.94143-0.41108 1.59-0.59476 0.14276-0.04088 0.28488-0.07852 0.42198-0.11138 0.8409-0.20181 0.74698-0.09958-0.21005 0.26014-1.0238 0.38483 3.7955-0.82505 11.116-2.3556 2.18-0.45555 5.664-1.1429 9.6803-1.8358 4.2575-0.72621 10.627-1.8966 14.192-2.5468 0.60942-0.11146 1.2168-0.22194 1.8224-0.331 3.9518-0.72577 8.1237-1.3448 12.473-2.0694 2.4241-0.3947 4.7142-0.83215 6.944-1.2404 1.5065-0.27548 2.9279-0.52439 4.3137-0.73345 6.2314-0.92339 13.321-1.6096 19.051-2.236 0.67461-0.07374 2.3777-0.25633 3.0523-0.33008 2.3434-0.24148 5.1241-0.65067 7.824-0.87584 2.6884-0.2043 5.2855-0.37868 7.8797-0.54456-1.509 0.09627 5.5796-0.3581 4.0706-0.26183 5.3925-0.34927 8.0453-0.57702 7.6196-0.6724-0.44492-0.09968-0.29712-0.20953 0.33758-0.24164 0.63561-0.03216 1.5304 0.03255 2.0072 0.14428 0.29396 0.06891 0.98311 0.10609 1.7851 0.11274 0.41576 3e-3 0.86417-0.0023 1.3012-0.01655 0.0811-0.0027 0.16189-0.0056 0.24227-0.0089 1.0194-0.04219 4.1375-0.09176 5.3841-0.08467 2.3631 0.01381 2.5305 0.0755 1.276 0.24536-1.4234 0.19262-1.3046 0.22018 0.39893 0.22362 0.46596 0.0012 0.88285-0.02367 1.2036-0.06685 0.44045-0.06149 0.6998-0.15496 0.64729-0.26469-0.0893-0.18663 0.90283-0.24139 5.1419-0.15602 0.99185 0.01976 3.3637 0.04224 5.1137 0.14663v1e-6c0.32971 0.01972 0.66615 0.04336 1.0081 0.07203 1.2917 0.10472 2.6663 0.23837 4.2946 0.41425 2.0155 0.21771 3.8003 0.4266 5.3287 0.59519v1e-6c7.4354 0.8666 9.253 1.2826 2.4178 0.47701-0.82746-0.09753-1.654-0.18524-2.4794-0.26281-2.1639-0.18944-3.2414-0.29576-5.4053-0.4852 1.4892 0.16548 3.8783 0.45138 5.3675 0.61686 0.86618 0.10247 1.7332 0.21618 2.601 0.34076 4.4238 0.6349 6.5774 1.1816 6.7292 1.3061 0.0136 0.01141 0.0102 0.02005-0.0102 0.02601-0.0483 0.01297-0.18824 0.01001-0.41806-0.0065-0.88541-0.0635-3.1738-0.35664-4.5388-0.56646-0.40221-0.06154-2.2117-0.33989-4.512-0.58162v0c-1.9564-0.19671-6.344-0.6738-9.6219-0.90472-0.0948-0.0067-0.18989-0.01315-0.28518-0.01924v-1e-6c-1.9492-0.12445-3.6378-0.11014-5.7886-0.16001-1.651-0.03684-3.4729-0.10189-5.1572-0.1018-0.17175 9e-6 -0.34235 6.54e-4 -0.5119 2e-3 -3.1058 0.01226-5.8557 0.04443-8.5302 0.12659-0.2583 0.0078-0.51528 0.01615-0.77067 0.02482-5.3606 0.17894-9.6459 0.50383-12.228 0.62546-1.4421 0.06933-2.331 0.09697-2.5767 0.07958-0.95528-0.06759-1.5054-0.02594-1.4465 0.10738 0.0493 0.11146-3.2529 0.40082-7.9116 0.7595-0.45002 0.03877-0.91421 0.08352-1.4049 0.13408-1.346 0.13852-3.6677 0.45046-6.3829 0.71964-4.0742 0.429-8.3723 0.8689-9.5794 1.0053-3.5424 0.40024-8.1282 0.92029-12.478 1.5779-1.2345 0.19061-2.5103 0.41487-3.9032 0.67136-2.1045 0.38811-4.7332 0.89634-7.318 1.3186-4.1394 0.69356-8.3673 1.3234-12.438 2.0788-0.51742 0.09394-1.0372 0.18912-1.5608 0.28548-5.055 0.92685-9.3128 1.7359-14.429 2.6174-3.119 0.54447-6.2597 1.1485-9.4363 1.8307v2e-6c-3.9175 0.84166-7.7451 1.7571-11.414 2.6615-3.1956 0.78178-7.6724 1.8356-10.868 2.6174-1.4214 0.34568-2.7968 0.68716-4.1427 1.0337-4.8974 1.2539-10.397 2.8762-14.861 4.1595-5.1609 1.4872-14.657 4.1067-16.993 4.7564-5.092 1.4256-7.7927 2.1485-7.5026 1.9524 0.28658-0.19366-0.095-0.12465-0.85789 0.16323-1.1702 0.44145-3.3333 1.2016-5.0313 1.8068-1.3688 0.48131-2.8452 0.98623-3.7644 1.2919-1.1003 0.35976-1.82 0.57618-1.8297 0.52522-0.0194-0.10185-1.0087 0.0921-2.1683 0.43645-1.161 0.34488-2.0698 0.73279-2.0476 0.85451 0.02025 0.11116-0.54477 0.3677-1.2812 0.59788-0.07459 0.0237-0.15088 0.0471-0.22885 0.0702-0.87762 0.26043-1.5881 0.55241-1.5715 0.63896 0.0084 0.0472-2.6385 1.1293-6.9645 2.9318-0.58495 0.24667-1.601 0.67244-2.186 0.91911-1.3682 0.57771-3.5867 1.5385-5.4934 2.4693-1.3963 0.67978-2.7361 1.3691-4.2169 2.1186 0.08419-0.0422-0.92828 0.46508-0.84409 0.42285-1.3516 0.67583-2.655 1.3249-4.0095 1.9797-1.4341 0.67338-2.5739 1.2011-3.668 1.7562-1.5949 0.81805-3.4784 1.9297-4.9897 2.811-4.1318 2.3578-6.6147 3.8688-6.7386 3.9825-0.13967 0.12821 2.435-1.3758 6.8508-3.8402 1.5213-0.86947 3.4144-1.9668 5.0097-2.7684 1.0982-0.54477 2.2299-1.0579 3.6695-1.7229 0.26931-0.12848 0.5385-0.25765 0.80805-0.38764 1.3452-0.6487 2.6316-1.2868 3.97-1.9527 1.599-0.80335 2.9821-1.5027 4.307-2.1392 1.6464-0.7924 3.4397-1.572 5.4166-2.3836 0.516-0.21152 1.7601-0.71764 2.2761-0.92916 2.9048-1.1722 5.8432-2.3491 8.7088-3.4326 2.2883-0.85963 4.8311-1.7533 7.3637-2.5882 1.2084-0.40537 2.4364-0.80852 3.745-1.2389l2e-5 -1e-5c4.3546-1.4403 9.058-2.7863 13.363-4.0206 5.3295-1.5182 11.66-3.2325 16.989-4.7507 5.7776-1.6364 10.214-2.9149 14.865-4.0638 1.414-0.35154 2.83-0.68865 4.2102-1.0099v-2e-6c1.3064-0.30455 2.5984-0.60022 3.7227-0.85592 2.5757-0.5858 4.6603-1.0604 7.0956-1.6352 2.9775-0.70733 7.0623-1.6678 11.531-2.5928 3.1084-0.64275 6.2152-1.221 9.3027-1.7413 2.7015-0.44992 5.431-0.92782 7.751-1.3436 2.6306-0.47139 4.6984-0.84371 6.8726-1.2235 0.4666-0.08186 0.91937-0.16052 1.3616-0.23648v-1e-6c6.7791-1.1911 11.417-1.7633 10.428-1.4966-1.5235 0.41102-8.0441 1.5869-10.374 1.9861-0.51074 0.08549-0.93965 0.15142-1.2522 0.18899-0.3157 0.03787-0.45293 0.03643-0.35095-0.01649 0.30761-0.15964-0.2391-0.09139-1.2164 0.15418-2.3954 0.60176-2.141 0.85138 0.43422 0.52276 1.1531-0.14712-0.39779 0.18238-3.4634 0.74104-4.329 0.78892-5.4713 0.92166-5.0485 0.60662 0.73348-0.54638-0.93416-0.39222-3.7943 0.311-0.78793 0.19376-1.2378 0.3249-1.2742 0.36744-3e-3 0.0041-3e-3 0.0074 1e-3 0.0099 0.0239 0.01301 0.16493 4.99e-4 0.43274-0.0418 0.82351-0.13005 1.5267-0.14275 1.5625-0.02685 0.0135 0.04386-0.67059 0.19744-1.9464 0.44118-1.9318 0.37694-4.9258 0.93486-9.0655 1.8133 7.3661-1.5642 2.8498-0.62489-1.6743 0.36001-4.5242 0.9849-9.0568 2.0131-1.676 0.36908-3.3293 0.74095-6.4537 1.4834-8.3309 1.9282-5.1591 1.2141-6.346 1.4054-6.0406 1.1457 0.54602-0.46432-1.7353-0.10698-4.8169 0.74186-0.4494 0.12385-0.9147 0.25831-1.389 0.40251-2.6713 0.81201-2.009 0.69035 1.1216 0.01803 0.1201-0.02578 0.2526-0.0515 0.39141-0.07627 0.52849-0.09486 1.1452-0.17616 1.5192-0.19681 0.21208-0.01171-0.35202 0.14925-1.4369 0.42559-1.0498 0.26721-2.5711 0.63785-4.3393 1.079-0.50991 0.12634-1.0377 0.25834-1.5949 0.39897-3.8685 0.97652-7.4378 2.0085-13.215 3.6551-5.1648 1.476-10.578 2.9557-15.743 4.4317 0.0161-5e-3 -1.2358 0.35414-1.2197 0.34954-5.9944 1.7345-9.4646 2.7426-13.364 4.0127-1.5159 0.49156-2.69 0.87807-3.6562 1.1949-1.5124 0.48639-2.3739 0.75582-2.4859 0.77149-0.37388 0.0524-0.17495-0.22285 0.45562-0.61099 0.4393-0.27034-0.47884-0.18034-5.672 1.7525-2.3067 0.86507-4.6956 1.8082-8.6088 3.3948-0.52049 0.21374-1.2412 0.50853-1.7617 0.72227 0.0057-2e-3 -0.61378 0.25247-0.60785 0.25003-1.9328 0.79864-3.6893 1.5613-5.2894 2.3408-1.4812 0.71968-3.0291 1.526-4.4227 2.2386-1.9018 0.96278-3.5067 1.7734-4.6004 2.3162-0.94612 0.45726-1.3897 0.67583-1.2932 0.65482 0.10929-0.0238 0.5831-0.21183 1.3588-0.54764 1.2365-0.55945 2.6734-1.2465 4.5846-2.1834 1.2508-0.62037 2.4791-1.2395 3.7064-1.8404 0.28416-0.13912 0.55276-0.26892 0.80784-0.39059h1e-6c1.9735-0.94255 3.9444-1.7459 5.2221-2.2348 1.0481-0.40237 1.7057-0.63367 1.7123-0.5994 0.0067 0.0385-0.55821 0.30628-1.669 0.80508-0.33431 0.15139-2.692 1.1803-5.069 2.3734h-1e-6c-1.5346 0.76621-2.9012 1.4915-4.6089 2.3769-1.3943 0.71507-2.8422 1.4547-4.3718 2.2065-1.2464 0.59437-2.5035 1.1788-3.5656 1.7147-1.4502 0.74142-2.9967 1.6483-4.924 2.7782-2.5897 1.4811-5.6547 3.2714-8.6612 5.2365-0.8203 0.55602-1.6451 1.1084-2.4994 1.6774-0.25195 0.1695-0.51792 0.34966-0.79774 0.53963-1.3323 0.90452-2.407 1.6413-4.0181 2.7106-0.05298 0.0351-0.9024 0.59662-0.95539 0.63172-3.3075 2.1374-6.37 4.2886-8.1297 5.5473-0.86042 0.61617-1.5251 1.1106-1.8767 1.3812-0.27252 0.2109-0.39146 0.31216-0.3421 0.29352 0.02393-9e-3 0.15488-0.0941 0.39103-0.25404 0.36247-0.24374 0.97458-0.6648 1.8337-1.2457 1.5684-1.0623 4.9608-3.3666 8.3419-5.4987h1e-6c-0.03078 0.0199 0.80081-0.51796 0.77004-0.49809 1.9779-1.2881 3.2584-2.1618 4.8255-3.1921 0.83499-0.54518 1.7728-1.1589 2.7332-1.7974 2.5584-1.6332 5.3264-3.2575 8.6867-5.149 1.7336-1.0027 3.4258-1.9846 4.9278-2.7338 1.0598-0.52001 2.2087-1.0378 3.5535-1.6632 0.88438-0.42623 1.7501-0.85208 2.6021-1.2758 0.54538-0.27119 1.0811-0.53934 1.6026-0.80085 1.7432-0.88534 3.2545-1.6662 4.8087-2.4144 1.7087-0.82445 3.6706-1.6638 4.9066-2.1764 0.62943-0.26029 2.038-0.83661 2.6674-1.0969 2.9859-1.2122 5.7036-2.3048 8.2864-3.2921 3.0312-1.1488 5.567-2.0215 7.6428-2.7069 1.0974-0.36958 2.374-0.79183 3.6086-1.1951 5.9299-1.9493 8.3409-2.4956 8.7298-2.4921 0.77215 7e-3 1.4166-0.17641 3.0684-0.87129 0.5364-0.2255 1.0941-0.43874 1.5771-0.60706 0.54598-0.18965 0.99141-0.31857 1.186-0.3371 0.27465-0.0262 6.6105-1.7178 15.798-4.3314 2.7622-0.78335 6.2601-1.79 9.2543-2.6173 1.8226-0.50362 3.6712-0.99952 5.5155-1.4646 1.4324-0.36367 2.9011-0.72153 4.4247-1.0844 3.7914-0.90462 6.7506-1.5834 10.542-2.488 4.0235-0.97015 7.9291-1.8752 11.772-2.6722 3.1964-0.66208 6.1539-1.2046 8.9521-1.6723 5.0709-0.83676 9.7273-1.6866 15.009-2.6-0.0193 0.0033 0.96528-0.16709 0.94602-0.16374 3.743-0.66136 8.798-1.3815 12.368-1.9387 2.7887-0.42215 6.8809-1.16 8.2963-1.4 1.0768-0.18182 1.9928-0.32669 2.8395-0.44804 3.3432-0.46771 5.3983-0.67778 5.5238-0.70038 0.23059-0.04154 6.7818-0.69328 16.408-1.6745 2.7321-0.25564 5.324-0.63741 7.6817-0.84842 0.41095-0.03093 0.82432-0.06159 1.2404-0.09201 3.4609-0.25304 6.9531-0.48174 10.617-0.71376 4.2496-0.26174 8.6235-0.57359 12.827-0.6975 0.31296-0.0094 0.62681-0.01785 0.94156-0.02529 2.5416-0.06283 5.0792-0.07414 7.4311-0.07109 1.7736-0.01837 3.8998 0.0694 5.5519 0.11908 1.4206 0.04864 3.0273 0.05648 4.4479 0.10512 0.48833 0.01597 0.96923 0.03694 1.4445 0.06638 0.65198 0.04567 1.3058 0.09711 1.9604 0.15283 2.4936 0.21297 5.0304 0.50286 7.5515 0.77655 3.1348 0.33044 6.1562 0.81599 9.0419 1.3997 1.6316 0.32912 3.0701 0.61382 4.5761 0.97554 1.6584 0.39274 2.9151 0.75345 3.9469 1.1042 0.50432 0.17004 0.94575 0.32791 1.3133 0.46888 2.1829 0.8237 4.2004 1.739 5.0935 2.156 1.2359 0.58867 1.5133 0.82182 1.4073 0.78489-0.26065-0.0908-0.78672-0.31482-1.522-0.6014-0.98397-0.36908-3.0778-1.1847-4.8766-1.794-0.42124-0.14381-1.0016-0.32915-1.6821-0.53642-0.8903-0.27344-2.0061-0.57874-3.4784-0.91403-1.6881-0.38362-3.4818-0.70244-5.0321-0.99304-2.5556-0.47526-5.6255-0.95972-9.0081-1.2831-1.7386-0.17525-4.6343-0.48196-6.9754-0.67865-0.79954-0.06704-1.6527-0.13326-2.5269-0.19114-1.6855-0.09324-3.6115-0.07605-5.8485-0.15298-1.8094-0.05313-3.7838-0.13232-5.5236-0.10728-2.2585 8.27e-4 -4.6 0.01546-6.9287 0.07181-0.46583 0.01075-0.93407 0.02366-1.4039 0.03908-2.2984 0.07362-4.6374 0.20218-7.1791 0.36174-1.5731 0.09875-4.0283 0.26372-5.6014 0.36247l-1e-5 1e-6c-4.0584 0.26604-7.9476 0.53356-11.839 0.84312-2.5336 0.24404-5.1155 0.6377-7.6491 0.88173-10.038 1.0645-17.762 1.8863-20.952 2.3752-0.2874 0.04405-0.60011 0.09231-0.9308 0.14411-0.70087 0.11351-1.4725 0.24591-2.4128 0.41578-1.5374 0.27857-5.6304 1.0654-8.676 1.5464-3.5704 0.5834-8.6356 1.3385-12.32 2.0132-8e-3 0.0015-0.62501 0.11152-0.63331 0.11299v1e-6c-4.5268 0.80419-9.0972 1.653-13.554 2.4184-0.60519 0.10392-1.1784 0.20157-1.7323 0.29513-3.2796 0.56274-6.1266 1.1172-8.6552 1.6551-1.2019 0.2559-16.325 3.747-7.7685 1.8338 4.0185-0.89858 6.6139-1.3228 6.2866-1.1273-0.30768 0.18397-0.0738 0.22782 0.51144 0.10294 0.35292-0.07531 0.77615-0.20614 1.1341-0.344 0.23131-0.08982 0.4372-0.1835 0.57916-0.26785 0.27608-0.16389 3.3065-0.85176 7.6022-1.5979 5.6e-4 -9.6e-5 0.33543-0.05795 0.33598-0.05805 5.214-0.8818 9.7286-1.6949 15.371-2.6074-3e-3 4.79e-4 0.5623-0.09105 0.55936-0.09057 5.7493-0.95209 10.963-1.5421 11.266-1.4546 0.12046 0.03485 0.51234 0.02423 1.0854-0.02438 1.0085-0.08366 2.4062-0.26643 3.8508-0.5143 1.7e-4 7.5e-5 3.5e-4 1.51e-4 5.1e-4 2.29e-4 -8e-5 -5e-5 -1.5e-4 -9.9e-5 -2.3e-4 -1.48e-4zm-18.177 2.9068c0.70535-0.12317 1.3022-0.27587 1.5702-0.39349 0.10516-0.04688 0.15881-0.08831 0.14724-0.12021-0.0116-0.03188-0.0853-0.04653-0.20716-0.04559-0.30998 0.0028-0.92295 0.10327-1.611 0.27389-0.96269 0.23872-1.742 0.4733-1.7264 0.51868 0.0158 0.04519 0.83901-0.06073 1.8271-0.23328zm-41.236 7.8476c1.3992-0.30185 1.4052-0.36499 0.4793-0.32354-0.83563 0.0374-2.7429 0.40082-4.2103 0.80882l-1e-3 3.6e-4c-2.9391 0.81794-2.736 0.81818 0.0916 0.25586 0.16432-0.0329 1.6091-0.32365 1.7735-0.35653 0.78753-0.15862 1.3976-0.28361 1.8673-0.38498-3e-5 0-7e-5 0-1e-4 1e-5zm-43.448 11.848c1.0689-0.31018 2.3448-0.69446 3.5797-1.0786 2.6226-0.81094 5.2301-1.6538 5.9829-2.0236 1.4138-0.69436 1.1042-0.65939-3.3084 0.60077-1.2928 0.36934-2.234 0.6486-2.8433 0.84167-1.166 0.37143-1.1845 0.4397-0.28031 0.29877 0.13566-0.0212 0.25336-0.0385 0.35206-0.0516 0.46125-0.0594 0.49767-0.0284 0.0342 0.11769-0.41253 0.13072-1.1755 0.34102-2.3768 0.66253-2.0598 0.55123-3.9021 1.1436-4.1902 1.3365-0.35545 0.23861 1.0338-0.11897 3.0501-0.70406-2e-5 1e-5 0 2e-5 0 3e-5zm23.362-6.8735c4.9717-1.4467 9.7887-2.8126 11.608-3.3658 1.5844-0.48197-3.7591 0.87645-9.0166 2.3725-1.9251 0.54779-3.9036 1.1258-5.5564 1.6122-3.5448 1.0457-5.9991 1.7825-6.1811 1.8968-0.18413 0.11577 2.5599-0.61944 6.2415-1.6765h1e-5c0.93585-0.26788 1.9075-0.54897 2.905-0.8392 0-1e-5 0-3e-5 -1e-5 -4e-5zm-50.586 15.791c2.3751-0.95732 3.9906-1.6067 5.9662-2.388 0.02803-0.011 0.45206-0.17695 0.48009-0.18795 0.74291-0.29036 3.4791-1.3717-0.49469 0.11504-0.85547 0.3239-4.6462 1.8169-5.5354 2.1739-0.87306 0.35127-1.7251 0.69672-2.4247 0.98105-1.303 0.53774-2.0216 0.83085-2.9692 1.2275-3.0497 1.2825-2.358 1.0481-1.0033 0.49496 0.20681-0.0844 0.80732-0.32831 1.0211-0.41433 0.77833-0.31355 1.9639-0.78964 2.9977-1.2118 0.2304-0.0927 1.7318-0.69763 1.9622-0.79028-8e-6 -3e-5 -1.6e-5 -6e-5 -2.5e-5 -1e-4zm-75.448 46.886c0.16935-0.15688 0.37916-0.37479 0.57825-0.60741 0.41252-0.48199 0.34355-0.51094-0.35724 0.12945-0.55332 0.50641-0.76921 0.81321-0.61166 0.76531 0.081277-0.0248 0.21946-0.12901 0.39063-0.28734 7.3e-6 0 1.47e-5 -1e-5 2.2e-5 -1e-5zm7.4558-6.7136c0.38318-0.36118 0.60486-0.6407 0.74539-0.90209 0.30752-0.57229 0.2318-0.54745-1.2436 0.81787 0.0012-1e-3 -0.10669 0.0995-0.10546 0.0983-0.64369 0.59931-1.2814 1.1516-1.806 1.6058-0.90582 0.80346-0.92679 0.88758 0.01882 0.2583 0.15585-0.11203 0.32421-0.23374 0.49923-0.36105 0.81301-0.59163 1.346-1.0179 1.7391-1.3767 0.05415-0.0488 0.10487-0.0955 0.15244-0.14039 3.7e-5 -5e-5 7.5e-5 -9e-5 1.13e-4 -1.3e-4zm78.229-45.268c0.37152-0.12789 0.7992-0.29232 1.1861-0.45956 0.80504-0.34792 0.64341-0.35436-0.68196 0.0971-1.1432 0.38993-1.7358 0.66163-1.3795 0.60995 0.18184-0.0264 0.50243-0.11929 0.87533-0.24756zm-37.035 16.627c0.36814-0.20895 0.7788-0.462 1.1409-0.70566 0.73631-0.4954 0.60893-0.49445-0.63913 0.20913-0.54046 0.30498-0.98745 0.5767-1.241 0.74763-0.23579 0.15699-0.29501 0.22662-0.12272 0.17316 0.05407-0.0168 0.12116-0.0429 0.19874-0.0768 0.18022-0.083 0.41145-0.20479 0.66315-0.34757v7e-5zm5.645-3.0054c0.41839-0.19442 0.85372-0.41142 1.1931-0.60173 0.64145-0.35944 0.13109-0.18759-1.2245 0.44188-1.3011 0.60415-1.6196 0.832-1.0873 0.6365 0.29509-0.10832 0.70258-0.28328 1.1187-0.47665zm-43.505 28.317c0.25049-0.20473 0.5669-0.46132 0.8835-0.70363 0.08311-0.0649 0.16566-0.1284 0.24773-0.19049 0.16632-0.13557 0.33172-0.27147 0.49593-0.40741 1.1984-0.9924 2.1642-1.836 2.5134-2.1464 0.41183-0.35665 0.66415-0.58414 0.66288-0.61188-0.0025-0.0482-0.26673 0.11899-0.67344 0.41456-0.62689 0.44819-1.6399 1.2886-3.228 2.5862-0.01697 0.013-0.03403 0.026-0.05117 0.0393-1.0304 0.77756-2.1946 1.8723-2.371 2.0476-0.12942 0.12729-0.21127 0.21913-0.2523 0.28391-0.06461 0.10213 0.04396 0.0604 0.38948-0.19407 0.37376-0.28088 0.66898-0.53376 1.3829-1.1178-8e-6 4e-5 -5e-6 7e-5 4e-6 1e-4zm170.71-67.533c0.88834-0.15753 1.8696-0.48145 2.1846-0.7214 0.336-0.2561-0.0927-0.31748-1.0353-0.14989-0.8819 0.1568-1.8669 0.48209-2.1849 0.72148-0.33924 0.25558 0.0865 0.31811 1.0356 0.1498zm-20.328 3.7459c0.97829-0.21209 1.8831-0.40671 2.7824-0.59841v-1e-6c3.7324-0.79513 6.7227-1.3878 6.9903-1.5315 0.2635-0.14161-3.1968 0.41369-7.0976 1.2293-4.9471 1.0352-10.855 2.5323-11.561 2.8319-6e-3 0.0025-0.0114 0.0048-0.0164 7e-3 -0.0226 0.01011-0.0155 0.01302 0.0196 0.0092 0.38108-0.04021 4.2126-0.93505 8.8832-1.9475zm-81.987 23.092c-3.9837 1.5721-5.5279 2.1795-4.2886 1.4991 1.5368-0.84377 2.3671-1.2262 6.047-2.4286 0.0863-0.0277 0.70362-0.22381 0.78957-0.25094 2.6557-0.83622 1.6569-0.45558-0.74578 0.47419-0.51316 0.19984-1.1092 0.4328-1.8023 0.70627zm24.971-8.4911c0.43406-0.1262 0.87567-0.25682 1.3052-0.3863 0.57418-0.1721 1.1311-0.34274 1.6201-0.49785 1.4086-0.44686 0.90257-0.34861-1.6543 0.38002-0.27697 0.0795-0.57416 0.16522-0.8869 0.25604-3.1412 0.91218-4.3936 1.33-3.0694 0.99203 0.68256-0.17413 1.6697-0.44875 2.6852-0.74404zm8.9098-2.5458c0.5185-0.14614 1.0324-0.30674 1.4186-0.4471 0.77178-0.28036 0.11256-0.14613-1.4636 0.29815-1.5735 0.4435-2.1954 0.6711-1.397 0.50835 0.4004-0.0816 0.92323-0.2132 1.4419-0.3594zm-96.672 45.085c0.28299-0.20578 0.61296-0.46801 0.91218-0.72966 0.62131-0.54328 0.50828-0.542-0.50722 0.18884-0.87402 0.62971-1.3328 1.0528-1.0672 0.95233 0.13533-0.0512 0.37815-0.20515 0.66224-0.41158-1e-6 2e-5 -3e-6 5e-5 -5e-6 7e-5zm12.717-8.9062c-0.01662 0.0105 0.46126-0.29081 0.44464-0.28033 0.6234-0.40043 1.2329-0.79765 1.8052-1.1778 0.40091-0.26656 0.76624-0.514 1.0879-0.73575 1.743-1.2015 0.53942-0.43255-1.0976 0.61433-0.12048 0.0767-1.7686 1.1267-1.889 1.2034-0.1185 0.0741-0.2392 0.14982-0.36219 0.22723-2.7387 1.7237-5.572 3.6256-3.1304 2.1205 0.81436-0.50205 2.0433-1.2789 3.1415-1.9715zm198.69-59.91c-0.40675 0.03444-0.76327 0.04677-0.9714 0.02914-0.41764-0.03549 0.24938-0.14889 1.4837-0.25344 1.3671-0.11523 1.671-0.0907 0.7641 0.06405-0.40976 0.06989-0.86955 0.12598-1.2764 0.16022 0 9e-6 3e-5 1.9e-5 3e-5 2.9e-5zm-15.406 0.32688c0.0369-0.0052 0.0737-0.0105 0.11042-0.01584 0.45982-0.06563 0.91214-0.14143 1.2523-0.21432 0.65604-0.14051 0.19631-0.14001-1.2592 0.05669-0.0538 0.0074-0.10889 0.01507-0.16532 0.02309-1.5885 0.2257-1.9055 0.34996-1.2795 0.30362 0.37608-0.02788 0.86948-0.08646 1.3413-0.15325zm7.9202-1.1626c0.82232-0.08442 1.6987-0.18469 2.3982-0.27959 7e-5 1.71e-4 1.4e-4 3.41e-4 2.1e-4 5.11e-4 1.2214-0.1657 0.67638-0.17334-2.0317 0.10221-2.6484 0.26948-3.4981 0.42406-2.5345 0.36608 0.54653-0.03309 1.3462-0.10478 2.1678-0.18909-1e-5 -4e-5 -3e-5 -7.9e-5 -5e-5 -1.17e-4v-4e-6zm-222.3 82.568c0.2865-0.3081 0.69877-0.75367 0.98464-1.074 0.14548-0.16295 0.71707-0.94573-0.80203 0.64579-0.1674 0.17538-0.31493 0.33646-0.44348 0.48177 1.1079-1.4433 0.44999-0.44333 0.19579-0.0785-0.24319 0.34904-0.33208 0.50809 0.22373-0.1918 0.6331-0.79714 0.17016-0.27066-0.37296 0.44589 0.068458-0.0729 0.14111-0.15059 0.21427-0.22914zm6.7806-6.3464c0.42315-0.37034 0.81647-0.73232 1.1625-1.0616 0.28869-0.27193 0.55759-0.54107 0.77329-0.76277 1.2509-1.2856 0.22993-0.30753-0.88959 0.68661-0.21592 0.19412-0.44664 0.4012-0.67943 0.60882-0.1758 0.15678-0.34816 0.309-0.51951 0.45868-0.48039 0.42281-0.91615 0.80617-1.2319 1.0878-0.59447 0.51919-0.85546 0.76015-0.25548 0.32722 0.10533-0.0761 0.22409-0.16497 0.35241-0.26421 0.32862-0.26045 0.7246-0.59005 1.1505-0.96103 0.04603-0.0399 0.09171-0.0797 0.13716-0.1194 6e-6 -6e-5 1.2e-5 -1.1e-4 1.8e-5 -1.7e-4zm261.59-80.034c0.31265-0.0074 0.65495-0.02545 0.97899-0.0527 0.0959-0.0081 0.19059-0.01701 0.28277-0.02676 0.75175-0.07946 0.68137-0.12729-0.26597-0.12211-0.14617 7.57e-4 -0.31213 3e-3 -0.49668 0.0069-0.23967 0.0052-0.45816 0.01252-0.6511 0.02137-0.78984 0.03596-1.1346 0.09717-0.80715 0.14429 0.19473 0.02796 0.51781 0.03704 0.88737 0.03048 0.0237-4.37e-4 0.0477-9.32e-4 0.0718-0.0015 0 2.2e-5 1e-5 4.4e-5 1e-5 6.6e-5zm-6.993 0.32595c0.52228-0.03037 1.0403-0.07528 1.421-0.12727 0.74082-0.10108 0.11463-0.12216-1.4939-0.02834-1.6098 0.09389-2.1954 0.18347-1.3917 0.19566 0.41184 0.0062 0.94173-0.0096 1.4646-0.04005zm25.37-0.44105c0.59474 0.01867 1.3092 0.03317 1.8265 0.03421 0.17441 3.12e-4 0.30286-8.39e-4 0.39053-0.0042 0.18701-0.0074 0.17859-0.0261-0.0253-0.05361-0.28401-0.03804-0.9067-0.08747-1.8333-0.12028-2.0613-0.07297-2.6058-9e-3 -1.9711 0.05457 0.40682 0.04076 0.98601 0.06925 1.6126 0.08934 0-1e-5 -1e-5 -2e-5 -2e-5 -3.3e-5v-3e-6zm-268.5 70.645c0.37851-0.27466 0.76567-0.57312 1.0566-0.8212 0.01724-0.0147 0.03355-0.0287 0.04894-0.042 0.29258-0.25329 0.25576-0.27003-0.07617-0.0615-0.22128 0.13937-0.57404 0.3801-1.0313 0.71131-1.2067 0.87408-1.5561 1.2218-1.0413 0.91566 0.2837-0.16866 0.66464-0.42758 1.0432-0.70228zm25.934-17.012c-0.42733 0.24625-0.85593 0.47733-1.1795 0.63056-0.60132 0.28498-0.18203-0.0341 1.1633-0.80841 1.3563-0.78054 1.8013-0.96144 1.2004-0.55366-0.32405 0.21984-0.75706 0.4854-1.1842 0.73151zm153.84-47.215c-0.90138 0.13867-1.4254 0.15391-1.4762 0.02962-0.0468-0.11489 1.5898-0.45962 3.6778-0.77405 3.1138-0.46819 3.5453-0.51439 1.5511-0.03382-1.5608 0.37608-2.86 0.64092-3.7527 0.77825zm7.8487-1.4433c-0.68867 0.11789-0.96645 0.06241-0.62207-0.11816 0.34602-0.18131 0.86358-0.3713 1.144-0.41986 0.28223-0.04888 0.55649 0.0041 0.61186 0.11776 0.0552 0.11349-0.44941 0.30311-1.1336 0.42024-4e-5 7e-6 -8e-5 1.4e-5 -1.2e-4 2.2e-5zm-26.493 4.4179c1.3817-0.24194 2.7458-0.49654 3.7761-0.70495 2.2986-0.4649 0.11221-0.10224-3.8145 0.58533-3.8847 0.6802-6.2392 1.1009-3.7961 0.74383 1.0777-0.1575 2.4411-0.38024 3.8344-0.62421zm-28.171 5.8064c0.40354-0.09327 0.85656-0.21553 1.264-0.34593 0.91333-0.29232 0.59147-0.26651-0.75163 0.04426-1.2211 0.28306-1.8873 0.49277-1.474 0.46958 0.20516-0.01149 0.55826-0.07485 0.96162-0.16798l3e-5 6.3e-5zm65.867-12.058c-0.51689 0.06358-0.97584 0.08642-1.3621 0.06548-0.73484-0.03988-0.16511-0.20664 1.8772-0.45268 2.7405-0.33015 2.6583-0.26079 1.1927 0.07724-0.61642 0.14215-1.191 0.2464-1.7077 0.30996zm25.211-2.9818c-0.70623 0.07439-1.4253 0.14282-1.9888 0.17909-0.86957 0.05589-0.49634-0.06072 1.9275-0.31697 1.1142-0.1178 1.8615-0.16693 2.2104-0.17329 0.26596-0.0044 0.28044 0.01308-2e-3 0.0543-0.064 0.01-0.14385 0.02141-0.24118 0.03466-0.48196 0.0656-1.2298 0.15099-1.9059 0.22221zm11.574-0.82624c-0.62865 0.03818-1.224 0.05914-1.6281 0.05416-0.80061-0.0099 0.0829-0.11354 1.9993-0.22868 1.9198-0.11534 2.5608-0.10303 1.473 0.02008-0.54944 0.06222-1.2152 0.11672-1.8442 0.1545l-4e-5 -5.4e-5zm-55.184 6.301c-2.5428 0.38429-4.3162 0.57241-4.021 0.41854 0.59255-0.30884 7.0226-1.286 8.41-1.3026 0.12787-0.0016 0.20194 0.0062 0.21138 0.02536 7e-3 0.01491-0.064 0.04171-0.2033 0.07785-0.59758 0.15848-2.3209 0.4671-4.3971 0.78087 1e-5 7e-6 2e-5 1.5e-5 3e-5 2.3e-5zm21.537-3.4864c-0.7162 0.07869-1.4524 0.14837-2.0026 0.1854-0.95426 0.06404-0.39759-0.06511 1.9451-0.32292 2.3227-0.25561 2.9865-0.26351 2.0368-0.11572-0.53614 0.08349-1.2607 0.17428-1.9793 0.25323zm-211.96 74.03c0.17271-0.15785 0.35961-0.3351 0.54411-0.51399 0.12505-0.11645 0.24808-0.23478 0.36396-0.35032 0.45682-0.45544 0.56564-0.66043-0.49603 0.22831-1e-5 1e-5 -0.01731 0.0145-0.01732 0.0145-0.97477 0.86264-1.348 1.3383-1.1097 1.2014 0.15364-0.0884 0.41228-0.30357 0.71495-0.58007v1.1e-4zm42.535-27.789c0.28081-0.14681 0.56509-0.30063 0.8077-0.43797 0.11326-0.064 0.2207-0.12642 0.31853-0.1856 0.42814-0.25895 0.31993-0.25763-0.39545 0.078-0.20923 0.0993-0.46065 0.22409-0.75155 0.37564-1.4278 0.74393-1.6711 0.97019-1.157 0.7459 0.32674-0.14246 0.76048-0.35787 1.1777-0.57601zm-36.738 23.187c0.47531-0.34636 0.79911-0.65853 0.79445-0.77693-0.0062-0.16011-0.59155 0.16374-1.3176 0.71232-0.0357 0.0269-0.07113 0.0538-0.10615 0.0805-0.69293 0.52559-1.2196 0.95668-1.2221 1.0222-0.0022 0.0652 0.51564-0.18238 1.225-0.62063 0.03571-0.0221 0.07172-0.0444 0.10783-0.0669 0.18455-0.11547 0.36015-0.23488 0.51853-0.35043zm249.74-73.509c-0.93198 0.04924-1.8837 0.09033-2.6032 0.10646-1.1664 0.02623-0.58335-0.07458 2.5389-0.24037 3.2172-0.17084 3.6443-0.11229 2.6273-0.02974-0.68131 0.05524-1.6428 0.11503-2.5629 0.16365zm-112.52 15.796c-1.6248 0.38878-2.9775 0.60824-3.0222 0.49498-0.0447-0.11298 0.91662-0.44221 2.1435-0.73497 1.0803-0.25778 2.2821-0.46749 2.8487-0.50122 0.0731-4e-3 0.13548-5e-3 0.18549-0.0027 0.19489 9e-3 0.12667 0.07608-0.15042 0.18228-0.36261 0.13695-1.0682 0.33747-2.0051 0.56165zm-93.815 30.407c-0.61765 0.29767-0.85167 0.30547-0.5357 0.0297 0.32204-0.28092-0.26314-0.15003-1.2835 0.26776l2.4e-5 5.7e-4c-1.1463 0.46936 0.16057-0.17533 2.3243-1.2241 2.1493-1.0418 3.3677-1.6053 2.3095-1.0166-0.95908 0.53358-1.7537 1.0746-1.7375 1.1922 0.01619 0.11756-0.46355 0.45476-1.0772 0.75048l5e-6 5e-5zm66.458-23.515c-0.34066 0.09588-0.64489 0.16769-0.85008 0.19818-0.0319 0.0048-0.0614 0.0086-0.0883 0.01138-0.18514 0.01895-0.14722-0.0217 0.063-0.10386 0.24754-0.09692 0.73851-0.25242 1.3839-0.43426 1.3114-0.36888 1.5956-0.3975 0.72277-0.07209-0.39477 0.14716-0.83816 0.29016-1.2313 0.40071zm-14.719 4.1822c-0.38932 0.10766-0.72867 0.18348-0.92403 0.20165-0.3894 0.0361 0.25152-0.2012 1.4346-0.52781 1.3164-0.36287 1.5801-0.38282 0.71342-0.0654-0.39532 0.14477-0.83489 0.28414-1.224 0.39164zm-4.4637 1.2842c-0.3886 0.10987-0.72681 0.18734-0.92125 0.20633-0.38849 0.0378 0.25203-0.2028 1.4325-0.53625 0.30947-0.0873 0.56328-0.15582 0.75706-0.20487 0.59471-0.14957 0.61789-0.11475 0.0311 0.10705-0.0235 9e-3 -0.0479 0.0181-0.0734 0.0276-0.39575 0.14764-0.8376 0.29052-1.226 0.40023zm-6.6054 1.957c-0.37746 0.11202-0.70611 0.192-0.89501 0.21243-0.37277 0.0402 0.23868-0.20545 1.3915-0.54546 1.303-0.38371 1.5152-0.38934 0.69283-0.0716-0.38446 0.14856-0.81254 0.29293-1.1893 0.40465zm41.137-11.68c-0.39867 0.10015-0.80221 0.19241-1.1433 0.25966-0.0841 0.01645-0.16468 0.03144-0.24082 0.04471-0.52475 0.09157-0.42206 0.0267 0.21614-0.15565 0.27845-0.07975 0.65493-0.18046 1.1148-0.29601 1.5557-0.39092 2.1191-0.47094 1.4179-0.23909-0.36937 0.12208-0.86733 0.26144-1.3647 0.38637zm-71.121 22.177c-1.5348 0.6697-2.7416 1.1292-2.7733 1.011-0.06514-0.24234 0.6425-0.60881 3.4954-1.5409 2.1389-0.69883 1.5416-0.45855-0.72202 0.52989zm73.327-23.171c-0.80104 0.19448-1.5779 0.37237-2.1081 0.47727-5e-5 -1.61e-4 -1.1e-4 -3.23e-4 -1.6e-4 -4.84e-4 -0.92651 0.18319-0.15285-0.06689 2.2043-0.642 2.8e-4 -7.2e-5 0.26691-0.06488 0.26719-0.06494 2.5675-0.62146 3.2442-0.72822 1.9769-0.37472-0.6456 0.18029-1.437 0.38418-2.1966 0.56981 14.767-3.5996-14.91 3.6345-0.14352 0.03494 2e-5 4.3e-5 3e-5 8.7e-5 5e-5 1.3e-4zm6.7027-1.6053c-0.39733 0.09132-0.74477 0.15303-0.94692 0.16376-0.40514 0.0214 0.24901-0.18693 1.4548-0.46402 1.3321-0.30594 1.6326-0.32491 0.7403-0.04023-0.40129 0.12802-0.85087 0.24933-1.2482 0.34055-1e-5 -1.5e-5 -2e-5 -3.1e-5 -3e-5 -4.6e-5zm-16.701 4.2309c-0.69617 0.19581-1.405 0.38325-1.9451 0.50905-1.0008 0.2329-0.30846-0.02176 1.8966-0.64205 2.2087-0.6213 2.8924-0.7503 1.9528-0.43976-0.51389 0.16983-1.2098 0.3774-1.9043 0.57276zm-9.14 2.5586c-4.263 1.2294-10.304 2.8158-11.044 2.8833-0.30591 0.0279 2.7714-0.88434 6.8906-2.0526 1.6754-0.47516 3.3327-0.93181 4.6875-1.2943 1.9435-0.5187 3.3239-0.85088 3.575-0.84874 0.26592 0.0022-1.2748 0.48715-3.4966 1.1348-0.19919 0.05815-0.40343 0.1174-0.61209 0.17758zm-27.956 8.0437c-0.60952 0.2035-1.2806 0.4265-1.8385 0.6104-1.3082 0.43142-2.3934 0.75359-2.6924 0.78835-0.26543 0.0308 0.86572-0.40181 2.6215-1.0355 0.59519-0.21423 1.2594-0.44565 1.9857-0.68961 2.9827-1.002 4.9998-1.5374 4.6026-1.3304-0.46364 0.24171-2.6105 0.96612-4.6787 1.6566 0 2e-5 0 3e-5 -1e-5 5e-5zm12.26-3.7155c-0.64579 0.18577-0.89661 0.1561-0.55145-0.0687 0.34499-0.22449 0.84902-0.47124 1.1191-0.54866 0.26969-0.0773 0.51715-0.046 0.55031 0.0692 0.0331 0.11533-0.47065 0.36181-1.1178 0.54799-2e-5 0-4e-5 1e-5 -6e-5 1e-5l-1e-4 1e-4zm-25.405 8.1463c-0.75766 0.2859-1.4947 0.55428-2.0012 0.72154-0.81454 0.26894-0.15572-0.0609 2.3636-1.006 0.07787-0.0292 0.15392-0.0577 0.22833-0.0854 2.6713-0.99574 2.3305-0.77855 1.6155-0.48903-0.46705 0.18927-1.0337 0.41044-1.5906 0.62442-0.2049 0.0787-0.41192 0.15749-0.61565 0.23435 0 4e-5 -1e-6 7e-5 -1e-6 1e-4zm-35.533 15.963c-0.13045 0.0734-0.26235 0.14663-0.3946 0.2189-0.18977 0.10234-0.37972 0.20261-0.56592 0.29812-1.5957 0.82053-2.0223 1.0166 0.43708-0.46151-0.0173 0.0105 0.45278-0.27415 0.43548-0.26366 1.9268-1.1649 2.8199-1.6163 2.2901-1.1783-0.34226 0.28286-1.2378 0.8439-2.2022 1.3865zm-39.997 25.272c0.21753-0.18842 0.42625-0.37099 0.6066-0.52998 2e-6 0 0.01101-9e-3 0.01102-9e-3 0.83268-0.66779 0.90728-0.83675 0.59827-0.65879-0.13828 0.0797-0.3433 0.22351-0.60497 0.40069-0.05872 0.0409-0.1223 0.0853-0.19027 0.1331-0.7586 0.60488-1.9016 1.5826-2.8408 2.301-0.45349 0.36884-0.90227 0.74076-1.3091 1.0877-0.42827 0.36522-0.83639 0.72555-1.1891 1.0454h-2e-7c-0.80017 0.67959-1.3675 1.2371-1.1 1.0778 0.084504-0.0503 0.61507-0.46271 1.2746-0.96434 0.68094-0.55862 1.6281-1.3379 2.5632-2.0898 0.18586-0.14072 0.37767-0.29082 0.57651-0.44934 0.56194-0.44806 1.1646-0.96395 1.6041-1.3447l6e-6 -3e-5zm172.81-70.399c-1.4332 0.2502-3.0481 0.52507-4.6669 0.78974-4.8625 0.79791-9.8735 1.757-11.18 1.9837-0.23674 0.04097-0.42637 0.07185-0.56528 0.09151-0.34758 0.04902-0.15298-0.01851 0.53074-0.18574 1.8361-0.44898 5.8033-1.2986 11.173-2.2069 0.75783-0.12768 1.5314-0.25918 2.3607-0.40096 3.0164-0.51571 7.2008-1.2531 10.217-1.7688 1.45-0.24768 2.6321-0.44212 3.5942-0.59263 1.339-0.21069 2.1226-0.31097 2.1346-0.28268 0.0159 0.03621-0.78494 0.19951-2.1151 0.45872-0.88351 0.17098-2.1928 0.41883-3.5166 0.66723-2.2306 0.42009-5.0893 0.94466-7.9664 1.4468zm24.781-4.4342c-0.22492 0.03532-0.43145 0.06709-0.62091 0.09561-2.4701 0.37424-1.8374 0.21511-0.0114-0.14628 1.0582-0.2081 2.5516-0.5047 4.2563-0.84235 2.0039-0.39724 4.6604-0.91793 7.2337-1.3031 3.5719-0.53339 7.31-0.97962 11.676-1.4375 4.5169-0.47375 7.0731-0.72049 10.746-1.1303 3.2294-0.36396 5.9789-0.75289 8.0771-0.92784 1.2438-0.10731 2.1644-0.18648 2.8578-0.25037 2.2815-0.2102 3.4506-0.23922 2.8894-0.0852-0.19528 0.05343-2.389 0.25234-5.7552 0.56448-2.308 0.20765-5.0628 0.62507-8.0691 0.98158-1.1518 0.13557-2.3296 0.26899-3.5505 0.40364-7.0109 0.77318-12.591 1.3118-18.856 2.2171-2.5151 0.36444-5.243 0.87012-7.1268 1.2123-1.6709 0.30295-2.8039 0.50034-3.7457 0.64828zm-55.467 10.594c-0.92022 0.21925-1.8441 0.42594-2.5439 0.56619-1.4036 0.2813-0.28934-0.02865 2.4937-0.69179 2.7756-0.66137 4.0095-0.91627 2.5874-0.52046-0.69828 0.19435-1.6133 0.42594-2.5372 0.64606v-4e-6zm-9.8962 2.395c-0.27258 0.06671-0.52112 0.11875-0.71134 0.14755-0.076 0.01142-0.1428 0.01914-0.1982 0.02261-0.20654 0.01288-0.12591-0.0416 0.17228-0.13905 0.26077-0.08526 0.68565-0.20268 1.2256-0.33398 1.3178-0.31956 1.5326-0.31497 0.71011-0.0413-0.3855 0.12828-0.81708 0.25097-1.1984 0.34422-1e-5 -1.5e-5 -2e-5 -3.1e-5 -3e-5 -4.6e-5zm-104.62 40.027c0.14042-0.0914 0.28349-0.18802 0.42337-0.28587 0.22254-0.15569 0.43879-0.31429 0.62176-0.4578 0.54759-0.42939 0.18115-0.24182-0.72828 0.34398-0.1047 0.0674-0.2157 0.1393-0.3317 0.21481-0.2281 0.1485-0.42432 0.27696-0.58321 0.38253l-2.1e-5 1e-5c-0.66363 0.44068-0.90058 0.63747-0.41689 0.39445 0.1273-0.064 0.27148-0.14253 0.4256-0.2314 0.18175-0.10301 0.38169-0.22551 0.58939-0.3607zm20.339-11.307c-0.29438 0.14102-0.58637 0.27642-0.86986 0.40338-0.82452 0.36515-1.5766 0.66973-2.0273 0.80621-0.39175 0.11862-1.3723 0.49177-2.3773 0.94341-0.29443 0.13281-0.58659 0.26952-0.86993 0.40649-1.2832 0.62027-2.5206 1.2187-2.7579 1.2853-0.13743 0.0386 1.2624-0.79017 3.4625-1.9231 1.2573-0.64643 2.57-1.2561 4.2671-2.0128 0.39654-0.17841 0.79744-0.36058 1.2045-0.54709 2.2143-1.0146 4.3478-2.0498 6.5622-3.0644 1.2595-0.56544 1.8011-0.77413 1.4086-0.51711-0.37807 0.24747-0.88337 0.53434-1.36 0.77696-0.39789 0.2045-0.78562 0.3851-1.0847 0.50026-0.66331 0.25546-1.747 0.81166-2.4009 1.2311-0.77188 0.49523-1.9614 1.1385-3.157 1.7113 6e-6 3e-5 1.3e-5 5e-5 1.9e-5 8e-5zm60.317-22.158c-2.8516 0.80118-7.5838 2.1091-9.1324 2.531-1.2763 0.3487-2.1182 0.56753-2.2807 0.58312-0.1423 0.0136 0.70371-0.25786 2.24-0.72324 2.2795-0.68903 5.1249-1.5093 9.16-2.6476 2.7067-0.76356 6.2834-1.7635 7.935-2.2228 2.3165-0.64348 3.6706-0.9996 3.4765-0.90065-0.18058 0.09207-1.5026 0.5049-3.4272 1.0806-2.2189 0.66425-5.0122 1.4682-7.9712 2.2995zm-48.843 16.504c-0.36812 0.14938-0.46292 0.14403-0.27014-0.0246 0.33057-0.28932 1.7468-1.0237 3.3449-1.6925 0.80612-0.33734 1.4462-0.59287 1.8434-0.74292 0.04058-0.0153 0.07882-0.0295 0.11469-0.0427 0.53049-0.19452 0.54194-0.16213 0.04436 0.0922-0.04203 0.0216-0.08768 0.0447-0.13696 0.0695-0.54321 0.26962-1.6031 0.7677-2.9413 1.4121-0.98004 0.47188-1.6207 0.77548-1.999 0.92898 2.1e-5 -1e-5 4.3e-5 -1e-5 6.4e-5 -1e-5 -2.6e-5 0-5.3e-5 1e-5 -8e-5 2e-5zm191.48-42.378c-2.7125 0.16238-4.3857 0.24737-4.4039 0.20847-0.023-0.04935 1.7773-0.21839 4.5707-0.43856 1.9522-0.15545 4.7367-0.36865 7.4854-0.52684-1e-3 6.8e-5 0.31068-0.01774 0.3095-0.01767 1.8152-0.10126 3.7303-0.2007 5.6769-0.27161 2.8983-0.10405 5.8182-0.15588 8.9472-0.18416 1.9793 0.0095 3.9177 0.07628 5.7649 0.09695 2e-3 2.4e-5 0.20407 0.0021 0.20627 0.0021 1.3221 3.76e-4 1.9148 0.01197 1.9897 0.01319 0.25361 0.0041 0.48219-0.02132 2.3608 0.0794 0.73037 0.03888 1.4571 0.09303 2.1888 0.16557 4.3466 0.359 9.7048 1.0158 9.855 1.0357 0.16797 0.02541 0.29699 0.04674 0.38399 0.06305 0.36923 0.06925 0.21757 0.07765-0.41109 0.03133-0.99087-0.04531-3.359-0.26273-7.6504-0.63955-0.73233-0.0643-1.4874-0.12825-2.2544-0.18852-2.325-0.22111-4.3496-0.24577-6.5149-0.24657-5e-5 0-9e-3 -4e-6 -9e-3 -4e-6 -1.8802-0.01699-3.8832-0.08869-5.96-0.09864-3.0408 0.02561-5.9852 0.07184-8.9306 0.17229-1.8687 0.06467-3.7104 0.15518-5.4986 0.25053-3.1108 0.16851-5.8346 0.3557-7.9519 0.48437-7e-5 4e-6 -0.15407 0.0092-0.15414 0.0092 1e-5 -9e-6 1e-5 -1.9e-5 -1e-5 -3e-5zm-214.77 51.257c-0.08079 0.0445-0.16114 0.0886-0.24085 0.13207-0.60206 0.32892-1.1795 0.63641-1.5839 0.8367-3e-6 -2e-4 -7e-6 -4.1e-4 -1e-5 -6.2e-4 -0.70614 0.34975-0.26597 0.0342 1.4949-0.94903 0.20986-0.11695 0.43907-0.24414 0.67822-0.37608 2.2055-1.2168 2.7252-1.436 1.6585-0.79551-0.58275 0.35011-1.3196 0.77359-2.0068 1.1523 1e-6 5e-5 2e-6 9e-5 4e-6 1.4e-4zm-36.267 22.558c0.24972-0.18661 0.48441-0.36506 0.69919-0.53282 0.03932-0.0384 0.19615-0.19013 0.39389-0.37926 0.94672-0.9053-0.12805 0.0365-0.39152 0.20066-0.19039 0.14031-0.43366 0.32036-0.69636 0.51637-1.9859 1.4818-2.7549 2.1655-1.833 1.5198 0.52342-0.36663 1.2644-0.90371 1.8278-1.3248h2e-6z" stroke-width=".26458"/>
 </g>
</svg>
